<?xml version="1.0" standalone="no"?>
 <!DOCTYPE svg PUBLIC "-//W3C//DTD SVG 1.1//EN" 
 "http://www.w3.org/Graphics/SVG/1.1/DTD/svg11.dtd"> 
<svg
  xmlns:svg="http://www.w3.org/2000/svg"
  xmlns="http://www.w3.org/2000/svg"
  xmlns:xlink="http://www.w3.org/1999/xlink"
  version="1.1"
  width="10.546080cm" height="7.218680cm" viewBox="0 0 41520 28420">
<title>SVG Picture created as lightboard-zero-F_SilkS.svg date 2021/01/21 17:35:32 </title>
  <desc>Picture generated by PCBNEW </desc>
<g style="fill:#000000; fill-opacity:1;stroke:#000000; stroke-opacity:1;
stroke-linecap:round; stroke-linejoin:round;"
 transform="translate(0 0) scale(1 1)">
</g>
<g style="fill:#000000; fill-opacity:0.0; 
stroke:#000000; stroke-width:-0.000393701; stroke-opacity:1; 
stroke-linecap:round; stroke-linejoin:round;">
</g>
<g style="fill:#000000; fill-opacity:0.0; 
stroke:#000000; stroke-width:60; stroke-opacity:1; 
stroke-linecap:round; stroke-linejoin:round;">
<text x="15003.3" y="4685.04"
textLength="961.661" font-size="419.947" lengthAdjust="spacingAndGlyphs"
text-anchor="middle" opacity="0">OTG</text>
<path d="M14695 4355
L14755 4355
L14785 4370
L14815 4400
L14830 4460
L14830 4565
L14815 4625
L14785 4655
L14755 4670
L14695 4670
L14665 4655
L14635 4625
L14620 4565
L14620 4460
L14635 4400
L14665 4370
L14695 4355
" />
<path d="M14920 4355
L15100 4355
" />
<path d="M15010 4670
L15010 4355
" />
<path d="M15370 4370
L15340 4355
L15295 4355
L15250 4370
L15220 4400
L15205 4430
L15190 4490
L15190 4535
L15205 4595
L15220 4625
L15250 4655
L15295 4670
L15325 4670
L15370 4655
L15385 4640
L15385 4535
L15325 4535
" />
<text x="28231.6" y="21036.1"
textLength="1098" font-size="453.333" lengthAdjust="spacingAndGlyphs"
text-anchor="middle" opacity="0">RGB</text>
<path d="M27996 21019
L27883 20858
" />
<path d="M27802 21019
L27802 20679
L27932 20679
L27964 20696
L27980 20712
L27996 20744
L27996 20793
L27980 20825
L27964 20841
L27932 20858
L27802 20858
" />
<path d="M28320 20696
L28288 20679
L28239 20679
L28191 20696
L28158 20728
L28142 20760
L28126 20825
L28126 20874
L28142 20938
L28158 20971
L28191 21003
L28239 21019
L28272 21019
L28320 21003
L28336 20987
L28336 20874
L28272 20874
" />
<path d="M28595 20841
L28644 20858
L28660 20874
L28676 20906
L28676 20955
L28660 20987
L28644 21003
L28612 21019
L28482 21019
L28482 20679
L28595 20679
L28628 20696
L28644 20712
L28660 20744
L28660 20777
L28644 20809
L28628 20825
L28595 20841
L28482 20841
" />
</g>
<g style="fill:#000000; fill-opacity:0.0; 
stroke:#000000; stroke-width:59.0551; stroke-opacity:1; 
stroke-linecap:round; stroke-linejoin:round;">
<text x="17995.4" y="18897.6"
textLength="1165.36" font-size="524.934" lengthAdjust="spacingAndGlyphs"
text-anchor="middle" opacity="0">2V5</text>
<path d="M17526 18522
L17545 18503
L17582 18485
L17676 18485
L17714 18503
L17732 18522
L17751 18560
L17751 18597
L17732 18653
L17507 18878
L17751 18878
" />
<path d="M17864 18485
L17995 18878
L18126 18485
" />
<path d="M18445 18485
L18257 18485
L18239 18672
L18257 18653
L18295 18635
L18389 18635
L18426 18653
L18445 18672
L18464 18710
L18464 18803
L18445 18841
L18426 18860
L18389 18878
L18295 18878
L18257 18860
L18239 18841
" />
</g>
<g style="fill:#000000; fill-opacity:0.0; 
stroke:#000000; stroke-width:60; stroke-opacity:1; 
stroke-linecap:round; stroke-linejoin:round;">
<text x="22719.8" y="11488.9"
textLength="1015.82" font-size="453.333" lengthAdjust="spacingAndGlyphs"
text-anchor="middle" opacity="0">3V3</text>
<path d="M22298 11132
L22509 11132
L22396 11262
L22444 11262
L22476 11278
L22493 11294
L22509 11326
L22509 11407
L22493 11440
L22476 11456
L22444 11472
L22347 11472
L22315 11456
L22298 11440
" />
<path d="M22606 11132
L22719 11472
L22833 11132
" />
<path d="M22914 11132
L23124 11132
L23011 11262
L23059 11262
L23092 11278
L23108 11294
L23124 11326
L23124 11407
L23108 11440
L23092 11456
L23059 11472
L22962 11472
L22930 11456
L22914 11440
" />
<text x="21834" y="15819.6"
textLength="1017.05" font-size="453.333" lengthAdjust="spacingAndGlyphs"
text-anchor="middle" opacity="0">1V1</text>
<path d="M21623 15803
L21429 15803
" />
<path d="M21526 15803
L21526 15463
L21493 15511
L21461 15544
L21429 15560
" />
<path d="M21720 15463
L21833 15803
L21947 15463
" />
<path d="M22238 15803
L22044 15803
" />
<path d="M22141 15803
L22141 15463
L22109 15511
L22076 15544
L22044 15560
" />
<g transform="rotate(-90 8487.53 15295.3)">
<text x="8487.53" y="15465.3"
textLength="984.667" font-size="453.333" lengthAdjust="spacingAndGlyphs"
text-anchor="middle" opacity="0">ANT</text>
</g>
<path d="M8544 15683
L8544 15521
" />
<path d="M8641 15716
L8301 15602
L8641 15489
" />
<path d="M8641 15376
L8301 15376
L8641 15181
L8301 15181
" />
<path d="M8301 15068
L8301 14874
" />
<path d="M8641 14971
L8301 14971
" />
<text x="7700.13" y="11311.7"
textLength="968.476" font-size="453.333" lengthAdjust="spacingAndGlyphs"
text-anchor="middle" opacity="0">BAT</text>
<path d="M7449 11117
L7497 11133
L7513 11149
L7530 11182
L7530 11230
L7513 11263
L7497 11279
L7465 11295
L7335 11295
L7335 10955
L7449 10955
L7481 10971
L7497 10987
L7513 11020
L7513 11052
L7497 11085
L7481 11101
L7449 11117
L7335 11117
" />
<path d="M7659 11198
L7821 11198
" />
<path d="M7627 11295
L7740 10955
L7853 11295
" />
<path d="M7918 10955
L8112 10955
" />
<path d="M8015 11295
L8015 10955
" />
</g>
<g style="fill:#000000; fill-opacity:0.0; 
stroke:#000000; stroke-width:47.2441; stroke-opacity:1; 
stroke-linecap:round; stroke-linejoin:round;">
<path d="M9806 19803
L9806 16889
" />
<path d="M13900 19803
L9806 19803
" />
<path d="M13900 16889
L13900 19803
" />
<path d="M9806 16889
L13900 16889
" />
<path d="M10633 13287
L10633 10767
" />
<path d="M13152 13287
L10633 13287
" />
<path d="M13152 10767
L13152 13287
" />
<path d="M10633 10767
L13152 10767
" />
<path d="M17641 15078
L17641 13385
" />
<path d="M19333 15078
L17641 15078
" />
<path d="M19333 13385
L19333 15078
" />
<path d="M17641 13385
L19333 13385
" />
<path d="M26066 17125
L26066 12795
" />
<path d="M30396 17125
L26066 17125
" />
<path d="M30396 12795
L30396 17125
" />
<path d="M26066 12795
L30396 12795
" />
</g>
<g style="fill:#000000; fill-opacity:0.0; 
stroke:#000000; stroke-width:60; stroke-opacity:1; 
stroke-linecap:round; stroke-linejoin:round;">
<text x="32818.2" y="17866.9"
textLength="677.048" font-size="453.333" lengthAdjust="spacingAndGlyphs"
text-anchor="middle" opacity="0">TP</text>
<path d="M32551 17510
L32745 17510
" />
<path d="M32648 17850
L32648 17510
" />
<path d="M32858 17850
L32858 17510
L32988 17510
L33020 17526
L33036 17543
L33053 17575
L33053 17623
L33036 17656
L33020 17672
L32988 17688
L32858 17688
" />
<text x="13093.8" y="10701.5"
textLength="1081.81" font-size="453.333" lengthAdjust="spacingAndGlyphs"
text-anchor="middle" opacity="0">WIFI</text>
<path d="M12640 10345
L12721 10685
L12786 10442
L12850 10685
L12931 10345
" />
<path d="M13061 10685
L13061 10345
" />
<path d="M13336 10507
L13223 10507
" />
<path d="M13223 10685
L13223 10345
L13385 10345
" />
<path d="M13514 10685
L13514 10345
" />
<text x="18093.8" y="13299.9"
textLength="1162.76" font-size="453.333" lengthAdjust="spacingAndGlyphs"
text-anchor="middle" opacity="0">PMU</text>
<path d="M17632 13283
L17632 12943
L17761 12943
L17794 12959
L17810 12976
L17826 13008
L17826 13057
L17810 13089
L17794 13105
L17761 13121
L17632 13121
" />
<path d="M17972 13283
L17972 12943
L18085 13186
L18199 12943
L18199 13283
" />
<path d="M18360 12943
L18360 13218
L18377 13251
L18393 13267
L18425 13283
L18490 13283
L18522 13267
L18539 13251
L18555 13218
L18555 12943
" />
<text x="26499.3" y="12729.1"
textLength="1098" font-size="453.333" lengthAdjust="spacingAndGlyphs"
text-anchor="middle" opacity="0">SOC</text>
<path d="M26054 12696
L26102 12712
L26183 12712
L26216 12696
L26232 12680
L26248 12648
L26248 12615
L26232 12583
L26216 12567
L26183 12550
L26118 12534
L26086 12518
L26070 12502
L26054 12470
L26054 12437
L26070 12405
L26086 12389
L26118 12372
L26199 12372
L26248 12389
" />
<path d="M26458 12372
L26523 12372
L26556 12389
L26588 12421
L26604 12486
L26604 12599
L26588 12664
L26556 12696
L26523 12712
L26458 12712
L26426 12696
L26394 12664
L26377 12599
L26377 12486
L26394 12421
L26426 12389
L26458 12372
" />
<path d="M26944 12680
L26928 12696
L26879 12712
L26847 12712
L26798 12696
L26766 12664
L26750 12631
L26734 12567
L26734 12518
L26750 12453
L26766 12421
L26798 12389
L26847 12372
L26879 12372
L26928 12389
L26944 12405
" />
<text x="13428.5" y="4685.04"
textLength="617.933" font-size="419.947" lengthAdjust="spacingAndGlyphs"
text-anchor="middle" opacity="0">TX</text>
<path d="M13188 4355
L13368 4355
" />
<path d="M13278 4670
L13278 4355
" />
<path d="M13443 4355
L13653 4670
" />
<path d="M13653 4355
L13443 4670
" />
<text x="14176.5" y="4685.04"
textLength="692.923" font-size="419.947" lengthAdjust="spacingAndGlyphs"
text-anchor="middle" opacity="0">RX</text>
<path d="M14124 4670
L14019 4520
" />
<path d="M13944 4670
L13944 4355
L14064 4355
L14094 4370
L14109 4385
L14124 4415
L14124 4460
L14109 4490
L14094 4505
L14064 4520
L13944 4520
" />
<path d="M14229 4355
L14438 4670
" />
<path d="M14438 4355
L14229 4670
" />
<text x="15830.1" y="4685.04"
textLength="737.917" font-size="419.947" lengthAdjust="spacingAndGlyphs"
text-anchor="middle" opacity="0">W1</text>
<path d="M15545 4355
L15620 4670
L15680 4445
L15740 4670
L15815 4355
" />
<path d="M16100 4670
L15920 4670
" />
<path d="M16010 4670
L16010 4355
L15980 4400
L15950 4430
L15920 4445
" />
<text x="12680.4" y="4685.04"
textLength="722.919" font-size="419.947" lengthAdjust="spacingAndGlyphs"
text-anchor="middle" opacity="0">CH</text>
<path d="M12612 4640
L12597 4655
L12552 4670
L12522 4670
L12477 4655
L12447 4625
L12432 4595
L12417 4535
L12417 4490
L12432 4430
L12447 4400
L12477 4370
L12522 4355
L12552 4355
L12597 4370
L12612 4385
" />
<path d="M12747 4670
L12747 4355
" />
<path d="M12747 4505
L12927 4505
" />
<path d="M12927 4670
L12927 4355
" />
<g transform="rotate(-90 17995.4 6988.19)">
<text x="17995.4" y="7158.19"
textLength="1033.24" font-size="453.333" lengthAdjust="spacingAndGlyphs"
text-anchor="middle" opacity="0">PA0</text>
</g>
<path d="M18149 7384
L17809 7384
L17809 7255
L17825 7222
L17841 7206
L17873 7190
L17922 7190
L17954 7206
L17971 7222
L17987 7255
L17987 7384
" />
<path d="M18052 7061
L18052 6899
" />
<path d="M18149 7093
L17809 6980
L18149 6866
" />
<path d="M17809 6688
L17809 6656
L17825 6623
L17841 6607
L17873 6591
L17938 6575
L18019 6575
L18084 6591
L18116 6607
L18133 6623
L18149 6656
L18149 6688
L18133 6721
L18116 6737
L18084 6753
L18019 6769
L17938 6769
L17873 6753
L17841 6737
L17825 6721
L17809 6688
" />
<g transform="rotate(-90 18979.7 6988.19)">
<text x="18979.7" y="7158.19"
textLength="1033.24" font-size="453.333" lengthAdjust="spacingAndGlyphs"
text-anchor="middle" opacity="0">PA2</text>
</g>
<path d="M19133 7384
L18793 7384
L18793 7255
L18809 7222
L18825 7206
L18858 7190
L18906 7190
L18939 7206
L18955 7222
L18971 7255
L18971 7384
" />
<path d="M19036 7061
L19036 6899
" />
<path d="M19133 7093
L18793 6980
L19133 6866
" />
<path d="M18825 6769
L18809 6753
L18793 6721
L18793 6640
L18809 6607
L18825 6591
L18858 6575
L18890 6575
L18939 6591
L19133 6785
L19133 6575
" />
<g transform="rotate(-90 19963.9 6988.19)">
<text x="19963.9" y="7158.19"
textLength="1081.81" font-size="453.333" lengthAdjust="spacingAndGlyphs"
text-anchor="middle" opacity="0">PC3</text>
</g>
<path d="M20117 7409
L19777 7409
L19777 7279
L19793 7247
L19810 7231
L19842 7214
L19891 7214
L19923 7231
L19939 7247
L19955 7279
L19955 7409
" />
<path d="M20085 6874
L20101 6891
L20117 6939
L20117 6971
L20101 7020
L20069 7052
L20036 7069
L19972 7085
L19923 7085
L19858 7069
L19826 7052
L19793 7020
L19777 6971
L19777 6939
L19793 6891
L19810 6874
" />
<path d="M19777 6761
L19777 6551
L19907 6664
L19907 6615
L19923 6583
L19939 6567
L19972 6551
L20052 6551
L20085 6567
L20101 6583
L20117 6615
L20117 6712
L20101 6745
L20085 6761
" />
<g transform="rotate(-90 21046.6 6988.19)">
<text x="21046.6" y="7158.19"
textLength="1081.81" font-size="453.333" lengthAdjust="spacingAndGlyphs"
text-anchor="middle" opacity="0">PC1</text>
</g>
<path d="M21200 7409
L20860 7409
L20860 7279
L20876 7247
L20892 7231
L20925 7214
L20973 7214
L21006 7231
L21022 7247
L21038 7279
L21038 7409
" />
<path d="M21168 6874
L21184 6891
L21200 6939
L21200 6971
L21184 7020
L21151 7052
L21119 7069
L21054 7085
L21006 7085
L20941 7069
L20908 7052
L20876 7020
L20860 6971
L20860 6939
L20876 6891
L20892 6874
" />
<path d="M21200 6551
L21200 6745
" />
<path d="M21200 6648
L20860 6648
L20908 6680
L20941 6712
L20957 6745
" />
<g transform="rotate(-90 22030.8 8267.72)">
<text x="22030.8" y="8437.72"
textLength="1081.81" font-size="453.333" lengthAdjust="spacingAndGlyphs"
text-anchor="middle" opacity="0">PC0</text>
</g>
<path d="M22184 8688
L21844 8688
L21844 8559
L21860 8526
L21877 8510
L21909 8494
L21957 8494
L21990 8510
L22006 8526
L22022 8559
L22022 8688
" />
<path d="M22152 8154
L22168 8170
L22184 8219
L22184 8251
L22168 8300
L22136 8332
L22103 8348
L22038 8364
L21990 8364
L21925 8348
L21893 8332
L21860 8300
L21844 8251
L21844 8219
L21860 8170
L21877 8154
" />
<path d="M21844 7943
L21844 7911
L21860 7879
L21877 7862
L21909 7846
L21974 7830
L22055 7830
L22119 7846
L22152 7862
L22168 7879
L22184 7911
L22184 7943
L22168 7976
L22152 7992
L22119 8008
L22055 8024
L21974 8024
L21909 8008
L21877 7992
L21860 7976
L21844 7943
" />
<g transform="rotate(-90 22030.8 6988.19)">
<text x="22030.8" y="7158.19"
textLength="1033.24" font-size="453.333" lengthAdjust="spacingAndGlyphs"
text-anchor="middle" opacity="0">PF0</text>
</g>
<path d="M22184 7384
L21844 7384
L21844 7255
L21860 7222
L21877 7206
L21909 7190
L21957 7190
L21990 7206
L22006 7222
L22022 7255
L22022 7384
" />
<path d="M22006 6931
L22006 7044
" />
<path d="M22184 7044
L21844 7044
L21844 6882
" />
<path d="M21844 6688
L21844 6656
L21860 6623
L21877 6607
L21909 6591
L21974 6575
L22055 6575
L22119 6591
L22152 6607
L22168 6623
L22184 6656
L22184 6688
L22168 6721
L22152 6737
L22119 6753
L22055 6769
L21974 6769
L21909 6753
L21877 6737
L21860 6721
L21844 6688
" />
<g transform="rotate(-90 23015.1 8267.72)">
<text x="23015.1" y="8437.72"
textLength="1033.24" font-size="453.333" lengthAdjust="spacingAndGlyphs"
text-anchor="middle" opacity="0">PF1</text>
</g>
<path d="M23168 8664
L22828 8664
L22828 8534
L22845 8502
L22861 8486
L22893 8470
L22942 8470
L22974 8486
L22990 8502
L23006 8534
L23006 8664
" />
<path d="M22990 8211
L22990 8324
" />
<path d="M23168 8324
L22828 8324
L22828 8162
" />
<path d="M23168 7854
L23168 8049
" />
<path d="M23168 7952
L22828 7952
L22877 7984
L22909 8016
L22926 8049
" />
<g transform="rotate(-90 23015.1 6889.76)">
<text x="23015.1" y="7059.76"
textLength="1033.24" font-size="453.333" lengthAdjust="spacingAndGlyphs"
text-anchor="middle" opacity="0">PF2</text>
</g>
<path d="M23168 7286
L22828 7286
L22828 7156
L22845 7124
L22861 7108
L22893 7092
L22942 7092
L22974 7108
L22990 7124
L23006 7156
L23006 7286
" />
<path d="M22990 6833
L22990 6946
" />
<path d="M23168 6946
L22828 6946
L22828 6784
" />
<path d="M22861 6671
L22845 6655
L22828 6622
L22828 6541
L22845 6509
L22861 6493
L22893 6476
L22926 6476
L22974 6493
L23168 6687
L23168 6476
" />
<g transform="rotate(-90 23999.3 8267.72)">
<text x="23999.3" y="8437.72"
textLength="1033.24" font-size="453.333" lengthAdjust="spacingAndGlyphs"
text-anchor="middle" opacity="0">PF3</text>
</g>
<path d="M24153 8664
L23813 8664
L23813 8534
L23829 8502
L23845 8486
L23877 8470
L23926 8470
L23958 8486
L23975 8502
L23991 8534
L23991 8664
" />
<path d="M23975 8211
L23975 8324
" />
<path d="M24153 8324
L23813 8324
L23813 8162
" />
<path d="M23813 8065
L23813 7854
L23942 7968
L23942 7919
L23958 7887
L23975 7871
L24007 7854
L24088 7854
L24120 7871
L24136 7887
L24153 7919
L24153 8016
L24136 8049
L24120 8065
" />
<g transform="rotate(-90 23999.3 6889.76)">
<text x="23999.3" y="7059.76"
textLength="1033.24" font-size="453.333" lengthAdjust="spacingAndGlyphs"
text-anchor="middle" opacity="0">PF4</text>
</g>
<path d="M24153 7286
L23813 7286
L23813 7156
L23829 7124
L23845 7108
L23877 7092
L23926 7092
L23958 7108
L23975 7124
L23991 7156
L23991 7286
" />
<path d="M23975 6833
L23975 6946
" />
<path d="M24153 6946
L23813 6946
L23813 6784
" />
<path d="M23926 6509
L24153 6509
" />
<path d="M23796 6590
L24039 6671
L24039 6460
" />
<g transform="rotate(-90 24983.6 8267.72)">
<text x="24983.6" y="8437.72"
textLength="1033.24" font-size="453.333" lengthAdjust="spacingAndGlyphs"
text-anchor="middle" opacity="0">PF5</text>
</g>
<path d="M25137 8664
L24797 8664
L24797 8534
L24813 8502
L24829 8486
L24862 8470
L24910 8470
L24943 8486
L24959 8502
L24975 8534
L24975 8664
" />
<path d="M24959 8211
L24959 8324
" />
<path d="M25137 8324
L24797 8324
L24797 8162
" />
<path d="M24797 7871
L24797 8032
L24959 8049
L24943 8032
L24926 8000
L24926 7919
L24943 7887
L24959 7871
L24991 7854
L25072 7854
L25105 7871
L25121 7887
L25137 7919
L25137 8000
L25121 8032
L25105 8049
" />
<g transform="rotate(-90 24983.6 6889.76)">
<text x="24983.6" y="7059.76"
textLength="1049.43" font-size="453.333" lengthAdjust="spacingAndGlyphs"
text-anchor="middle" opacity="0">PE0</text>
</g>
<path d="M25137 7294
L24797 7294
L24797 7165
L24813 7132
L24829 7116
L24862 7100
L24910 7100
L24943 7116
L24959 7132
L24975 7165
L24975 7294
" />
<path d="M24959 6954
L24959 6841
" />
<path d="M25137 6792
L25137 6954
L24797 6954
L24797 6792
" />
<path d="M24797 6582
L24797 6549
L24813 6517
L24829 6501
L24862 6485
L24926 6468
L25007 6468
L25072 6485
L25105 6501
L25121 6517
L25137 6549
L25137 6582
L25121 6614
L25105 6630
L25072 6646
L25007 6663
L24926 6663
L24862 6646
L24829 6630
L24813 6614
L24797 6582
" />
<g transform="rotate(-90 26066.3 6889.76)">
<text x="26066.3" y="7059.76"
textLength="1049.43" font-size="453.333" lengthAdjust="spacingAndGlyphs"
text-anchor="middle" opacity="0">PE1</text>
</g>
<path d="M26220 7294
L25880 7294
L25880 7165
L25896 7132
L25912 7116
L25944 7100
L25993 7100
L26025 7116
L26041 7132
L26058 7165
L26058 7294
" />
<path d="M26041 6954
L26041 6841
" />
<path d="M26220 6792
L26220 6954
L25880 6954
L25880 6792
" />
<path d="M26220 6468
L26220 6663
" />
<path d="M26220 6565
L25880 6565
L25928 6598
L25961 6630
L25977 6663
" />
<g transform="rotate(-90 26066.3 8267.72)">
<text x="26066.3" y="8437.72"
textLength="1049.43" font-size="453.333" lengthAdjust="spacingAndGlyphs"
text-anchor="middle" opacity="0">PE2</text>
</g>
<path d="M26220 8672
L25880 8672
L25880 8542
L25896 8510
L25912 8494
L25944 8478
L25993 8478
L26025 8494
L26041 8510
L26058 8542
L26058 8672
" />
<path d="M26041 8332
L26041 8219
" />
<path d="M26220 8170
L26220 8332
L25880 8332
L25880 8170
" />
<path d="M25912 8041
L25896 8024
L25880 7992
L25880 7911
L25896 7879
L25912 7862
L25944 7846
L25977 7846
L26025 7862
L26220 8057
L26220 7846
" />
<g transform="rotate(-90 27050.5 6889.76)">
<text x="27050.5" y="7059.76"
textLength="1049.43" font-size="453.333" lengthAdjust="spacingAndGlyphs"
text-anchor="middle" opacity="0">PE3</text>
</g>
<path d="M27204 7294
L26864 7294
L26864 7165
L26880 7132
L26896 7116
L26929 7100
L26977 7100
L27010 7116
L27026 7132
L27042 7165
L27042 7294
" />
<path d="M27026 6954
L27026 6841
" />
<path d="M27204 6792
L27204 6954
L26864 6954
L26864 6792
" />
<path d="M26864 6679
L26864 6468
L26993 6582
L26993 6533
L27010 6501
L27026 6485
L27058 6468
L27139 6468
L27171 6485
L27188 6501
L27204 6533
L27204 6630
L27188 6663
L27171 6679
" />
<g transform="rotate(-90 27050.5 8267.72)">
<text x="27050.5" y="8437.72"
textLength="1049.43" font-size="453.333" lengthAdjust="spacingAndGlyphs"
text-anchor="middle" opacity="0">PE4</text>
</g>
<path d="M27204 8672
L26864 8672
L26864 8542
L26880 8510
L26896 8494
L26929 8478
L26977 8478
L27010 8494
L27026 8510
L27042 8542
L27042 8672
" />
<path d="M27026 8332
L27026 8219
" />
<path d="M27204 8170
L27204 8332
L26864 8332
L26864 8170
" />
<path d="M26977 7879
L27204 7879
" />
<path d="M26848 7960
L27091 8041
L27091 7830
" />
<g transform="rotate(-90 28034.8 6889.76)">
<text x="28034.8" y="7059.76"
textLength="1049.43" font-size="453.333" lengthAdjust="spacingAndGlyphs"
text-anchor="middle" opacity="0">PE5</text>
</g>
<path d="M28188 7294
L27848 7294
L27848 7165
L27864 7132
L27880 7116
L27913 7100
L27961 7100
L27994 7116
L28010 7132
L28026 7165
L28026 7294
" />
<path d="M28010 6954
L28010 6841
" />
<path d="M28188 6792
L28188 6954
L27848 6954
L27848 6792
" />
<path d="M27848 6485
L27848 6646
L28010 6663
L27994 6646
L27978 6614
L27978 6533
L27994 6501
L28010 6485
L28042 6468
L28123 6468
L28156 6485
L28172 6501
L28188 6533
L28188 6614
L28172 6646
L28156 6663
" />
<g transform="rotate(-90 28034.8 8267.72)">
<text x="28034.8" y="8437.72"
textLength="1049.43" font-size="453.333" lengthAdjust="spacingAndGlyphs"
text-anchor="middle" opacity="0">PE6</text>
</g>
<path d="M28188 8672
L27848 8672
L27848 8542
L27864 8510
L27880 8494
L27913 8478
L27961 8478
L27994 8494
L28010 8510
L28026 8542
L28026 8672
" />
<path d="M28010 8332
L28010 8219
" />
<path d="M28188 8170
L28188 8332
L27848 8332
L27848 8170
" />
<path d="M27848 7879
L27848 7943
L27864 7976
L27880 7992
L27929 8024
L27994 8041
L28123 8041
L28156 8024
L28172 8008
L28188 7976
L28188 7911
L28172 7879
L28156 7862
L28123 7846
L28042 7846
L28010 7862
L27994 7879
L27978 7911
L27978 7976
L27994 8008
L28010 8024
L28042 8041
" />
<g transform="rotate(-90 29019 6889.76)">
<text x="29019" y="7059.76"
textLength="1049.43" font-size="453.333" lengthAdjust="spacingAndGlyphs"
text-anchor="middle" opacity="0">PE7</text>
</g>
<path d="M29172 7294
L28832 7294
L28832 7165
L28849 7132
L28865 7116
L28897 7100
L28946 7100
L28978 7116
L28994 7132
L29010 7165
L29010 7294
" />
<path d="M28994 6954
L28994 6841
" />
<path d="M29172 6792
L29172 6954
L28832 6954
L28832 6792
" />
<path d="M28832 6679
L28832 6452
L29172 6598
" />
<g transform="rotate(-90 29019 8267.72)">
<text x="29019" y="8437.72"
textLength="1049.43" font-size="453.333" lengthAdjust="spacingAndGlyphs"
text-anchor="middle" opacity="0">PE8</text>
</g>
<path d="M29172 8672
L28832 8672
L28832 8542
L28849 8510
L28865 8494
L28897 8478
L28946 8478
L28978 8494
L28994 8510
L29010 8542
L29010 8672
" />
<path d="M28994 8332
L28994 8219
" />
<path d="M29172 8170
L29172 8332
L28832 8332
L28832 8170
" />
<path d="M28978 7976
L28962 8008
L28946 8024
L28913 8041
L28897 8041
L28865 8024
L28849 8008
L28832 7976
L28832 7911
L28849 7879
L28865 7862
L28897 7846
L28913 7846
L28946 7862
L28962 7879
L28978 7911
L28978 7976
L28994 8008
L29010 8024
L29043 8041
L29108 8041
L29140 8024
L29156 8008
L29172 7976
L29172 7911
L29156 7879
L29140 7862
L29108 7846
L29043 7846
L29010 7862
L28994 7879
L28978 7911
" />
<g transform="rotate(-90 30003.3 8267.72)">
<text x="30003.3" y="8437.72"
textLength="1373.24" font-size="453.333" lengthAdjust="spacingAndGlyphs"
text-anchor="middle" opacity="0">PE10</text>
</g>
<path d="M30157 8834
L29817 8834
L29817 8704
L29833 8672
L29849 8656
L29881 8640
L29930 8640
L29962 8656
L29978 8672
L29995 8704
L29995 8834
" />
<path d="M29978 8494
L29978 8381
" />
<path d="M30157 8332
L30157 8494
L29817 8494
L29817 8332
" />
<path d="M30157 8008
L30157 8202
" />
<path d="M30157 8105
L29817 8105
L29865 8138
L29898 8170
L29914 8202
" />
<path d="M29817 7798
L29817 7765
L29833 7733
L29849 7717
L29881 7701
L29946 7684
L30027 7684
L30092 7701
L30124 7717
L30140 7733
L30157 7765
L30157 7798
L30140 7830
L30124 7846
L30092 7862
L30027 7879
L29946 7879
L29881 7862
L29849 7846
L29833 7830
L29817 7798
" />
<g transform="rotate(-90 30003.3 6889.76)">
<text x="30003.3" y="7059.76"
textLength="1049.43" font-size="453.333" lengthAdjust="spacingAndGlyphs"
text-anchor="middle" opacity="0">PE9</text>
</g>
<path d="M30157 7294
L29817 7294
L29817 7165
L29833 7132
L29849 7116
L29881 7100
L29930 7100
L29962 7116
L29978 7132
L29995 7165
L29995 7294
" />
<path d="M29978 6954
L29978 6841
" />
<path d="M30157 6792
L30157 6954
L29817 6954
L29817 6792
" />
<path d="M30157 6630
L30157 6565
L30140 6533
L30124 6517
L30076 6485
L30011 6468
L29881 6468
L29849 6485
L29833 6501
L29817 6533
L29817 6598
L29833 6630
L29849 6646
L29881 6663
L29962 6663
L29995 6646
L30011 6630
L30027 6598
L30027 6533
L30011 6501
L29995 6485
L29962 6468
" />
<g transform="rotate(-90 30987.5 8267.72)">
<text x="30987.5" y="8437.72"
textLength="1373.24" font-size="453.333" lengthAdjust="spacingAndGlyphs"
text-anchor="middle" opacity="0">PE12</text>
</g>
<path d="M31141 8834
L30801 8834
L30801 8704
L30817 8672
L30833 8656
L30866 8640
L30914 8640
L30947 8656
L30963 8672
L30979 8704
L30979 8834
" />
<path d="M30963 8494
L30963 8381
" />
<path d="M31141 8332
L31141 8494
L30801 8494
L30801 8332
" />
<path d="M31141 8008
L31141 8202
" />
<path d="M31141 8105
L30801 8105
L30849 8138
L30882 8170
L30898 8202
" />
<path d="M30833 7879
L30817 7862
L30801 7830
L30801 7749
L30817 7717
L30833 7701
L30866 7684
L30898 7684
L30947 7701
L31141 7895
L31141 7684
" />
<g transform="rotate(-90 30987.5 6889.76)">
<text x="30987.5" y="7059.76"
textLength="1373.24" font-size="453.333" lengthAdjust="spacingAndGlyphs"
text-anchor="middle" opacity="0">PE11</text>
</g>
<path d="M31141 7456
L30801 7456
L30801 7326
L30817 7294
L30833 7278
L30866 7262
L30914 7262
L30947 7278
L30963 7294
L30979 7326
L30979 7456
" />
<path d="M30963 7116
L30963 7003
" />
<path d="M31141 6954
L31141 7116
L30801 7116
L30801 6954
" />
<path d="M31141 6630
L31141 6825
" />
<path d="M31141 6727
L30801 6727
L30849 6760
L30882 6792
L30898 6825
" />
<path d="M31141 6306
L31141 6501
" />
<path d="M31141 6404
L30801 6404
L30849 6436
L30882 6468
L30898 6501
" />
</g>
<g style="fill:#000000; fill-opacity:0.0; 
stroke:#000000; stroke-width:118.11; stroke-opacity:1; 
stroke-linecap:round; stroke-linejoin:round;">
<text x="27916.7" y="10216.5"
textLength="5561.69" font-size="787.402" lengthAdjust="spacingAndGlyphs"
text-anchor="middle" opacity="0">NeoPi-Nano</text>
<path d="M25315 10188
L25315 9597
L25652 10188
L25652 9597
" />
<path d="M26159 10160
L26102 10188
L25990 10188
L25934 10160
L25905 10104
L25905 9879
L25934 9822
L25990 9794
L26102 9794
L26159 9822
L26187 9879
L26187 9935
L25905 9991
" />
<path d="M26524 10188
L26468 10160
L26440 10132
L26412 10075
L26412 9907
L26440 9850
L26468 9822
L26524 9794
L26609 9794
L26665 9822
L26693 9850
L26721 9907
L26721 10075
L26693 10132
L26665 10160
L26609 10188
L26524 10188
" />
<path d="M26974 10188
L26974 9597
L27199 9597
L27255 9625
L27283 9654
L27312 9710
L27312 9794
L27283 9850
L27255 9879
L27199 9907
L26974 9907
" />
<path d="M27565 10188
L27565 9794
" />
<path d="M27565 9597
L27537 9625
L27565 9654
L27593 9625
L27565 9597
L27565 9654
" />
<path d="M27846 9963
L28296 9963
" />
<path d="M28577 10188
L28577 9597
L28914 10188
L28914 9597
" />
<path d="M29449 10188
L29449 9879
L29421 9822
L29364 9794
L29252 9794
L29196 9822
" />
<path d="M29449 10160
L29393 10188
L29252 10188
L29196 10160
L29168 10104
L29168 10047
L29196 9991
L29252 9963
L29393 9963
L29449 9935
" />
<path d="M29730 9794
L29730 10188
" />
<path d="M29730 9850
L29758 9822
L29814 9794
L29899 9794
L29955 9822
L29983 9879
L29983 10188
" />
<path d="M30349 10188
L30292 10160
L30264 10132
L30236 10075
L30236 9907
L30264 9850
L30292 9822
L30349 9794
L30433 9794
L30489 9822
L30517 9850
L30546 9907
L30546 10075
L30517 10132
L30489 10160
L30433 10188
L30349 10188
" />
</g>
<g style="fill:#000000; fill-opacity:0.0; 
stroke:#000000; stroke-width:59.0551; stroke-opacity:1; 
stroke-linecap:round; stroke-linejoin:round;">
<g transform="rotate(-90 15790.7 13228.3)">
<text x="15790.7" y="13425.2"
textLength="1672.1" font-size="524.934" lengthAdjust="spacingAndGlyphs"
text-anchor="middle" opacity="0">BOOT</text>
</g>
<path d="M15762 13762
L15781 13706
L15800 13687
L15837 13668
L15893 13668
L15931 13687
L15950 13706
L15968 13743
L15968 13893
L15575 13893
L15575 13762
L15593 13725
L15612 13706
L15650 13687
L15687 13687
L15725 13706
L15743 13725
L15762 13762
L15762 13893
" />
<path d="M15575 13425
L15575 13350
L15593 13312
L15631 13275
L15706 13256
L15837 13256
L15912 13275
L15950 13312
L15968 13350
L15968 13425
L15950 13462
L15912 13500
L15837 13518
L15706 13518
L15631 13500
L15593 13462
L15575 13425
" />
<path d="M15575 13012
L15575 12937
L15593 12900
L15631 12862
L15706 12844
L15837 12844
L15912 12862
L15950 12900
L15968 12937
L15968 13012
L15950 13050
L15912 13087
L15837 13106
L15706 13106
L15631 13087
L15593 13050
L15575 13012
" />
<path d="M15575 12731
L15575 12506
" />
<path d="M15968 12619
L15575 12619
" />
<text x="15987.5" y="18976.4"
textLength="1201.63" font-size="524.934" lengthAdjust="spacingAndGlyphs"
text-anchor="middle" opacity="0">AUX</text>
<path d="M15500 18845
L15687 18845
" />
<path d="M15462 18957
L15593 18563
L15725 18957
" />
<path d="M15856 18563
L15856 18882
L15875 18920
L15893 18938
L15931 18957
L16006 18957
L16043 18938
L16062 18920
L16081 18882
L16081 18563
" />
<path d="M16231 18563
L16493 18957
" />
<path d="M16493 18563
L16231 18957
" />
<text x="15928.5" y="11909.4"
textLength="1445.35" font-size="524.934" lengthAdjust="spacingAndGlyphs"
text-anchor="middle" opacity="0">BIOS</text>
<path d="M15469 11684
L15525 11703
L15544 11721
L15562 11759
L15562 11815
L15544 11853
L15525 11871
L15487 11890
L15337 11890
L15337 11497
L15469 11497
L15506 11515
L15525 11534
L15544 11571
L15544 11609
L15525 11646
L15506 11665
L15469 11684
L15337 11684
" />
<path d="M15731 11890
L15731 11497
" />
<path d="M15994 11497
L16069 11497
L16106 11515
L16144 11553
L16162 11628
L16162 11759
L16144 11834
L16106 11871
L16069 11890
L15994 11890
L15956 11871
L15919 11834
L15900 11759
L15900 11628
L15919 11553
L15956 11515
L15994 11497
" />
<path d="M16312 11871
L16369 11890
L16462 11890
L16500 11871
L16519 11853
L16537 11815
L16537 11778
L16519 11740
L16500 11721
L16462 11703
L16387 11684
L16350 11665
L16331 11646
L16312 11609
L16312 11571
L16331 11534
L16350 11515
L16387 11497
L16481 11497
L16537 11515
" />
<g transform="rotate(-90 10042.7 22007.9)">
<text x="10042.7" y="22204.7"
textLength="1182.88" font-size="524.934" lengthAdjust="spacingAndGlyphs"
text-anchor="middle" opacity="0">OTG</text>
</g>
<path d="M9827 22392
L9827 22317
L9845 22279
L9883 22242
L9958 22223
L10089 22223
L10164 22242
L10202 22279
L10220 22317
L10220 22392
L10202 22429
L10164 22467
L10089 22485
L9958 22485
L9883 22467
L9845 22429
L9827 22392
" />
<path d="M9827 22110
L9827 21886
" />
<path d="M10220 21998
L9827 21998
" />
<path d="M9845 21548
L9827 21586
L9827 21642
L9845 21698
L9883 21736
L9920 21754
L9995 21773
L10052 21773
L10127 21754
L10164 21736
L10202 21698
L10220 21642
L10220 21604
L10202 21548
L10183 21529
L10052 21529
L10052 21604
" />
<text x="8546.59" y="20354.3"
textLength="1332.86" font-size="524.934" lengthAdjust="spacingAndGlyphs"
text-anchor="middle" opacity="0">COM</text>
<path d="M8237 20298
L8218 20316
L8162 20335
L8124 20335
L8068 20316
L8031 20279
L8012 20241
L7993 20166
L7993 20110
L8012 20035
L8031 19998
L8068 19960
L8124 19941
L8162 19941
L8218 19960
L8237 19979
" />
<path d="M8480 19941
L8555 19941
L8593 19960
L8630 19998
L8649 20073
L8649 20204
L8630 20279
L8593 20316
L8555 20335
L8480 20335
L8443 20316
L8405 20279
L8387 20204
L8387 20073
L8405 19998
L8443 19960
L8480 19941
" />
<path d="M8818 20335
L8818 19941
L8949 20223
L9080 19941
L9080 20335
" />
<text x="22759.2" y="17874"
textLength="1257.87" font-size="524.934" lengthAdjust="spacingAndGlyphs"
text-anchor="middle" opacity="0">FMR</text>
<path d="M22393 17649
L22262 17649
" />
<path d="M22262 17855
L22262 17461
L22449 17461
" />
<path d="M22599 17855
L22599 17461
L22731 17742
L22862 17461
L22862 17855
" />
<path d="M23274 17855
L23143 17667
" />
<path d="M23049 17855
L23049 17461
L23199 17461
L23237 17480
L23255 17499
L23274 17536
L23274 17592
L23255 17630
L23237 17649
L23199 17667
L23049 17667
" />
<text x="22719.8" y="17126"
textLength="1182.88" font-size="524.934" lengthAdjust="spacingAndGlyphs"
text-anchor="middle" opacity="0">FML</text>
<path d="M22391 16901
L22260 16901
" />
<path d="M22260 17107
L22260 16713
L22447 16713
" />
<path d="M22597 17107
L22597 16713
L22729 16994
L22860 16713
L22860 17107
" />
<path d="M23235 17107
L23047 17107
L23047 16713
" />
<g transform="rotate(-90 34137.1 7775.59)">
<text x="34137.1" y="7972.44"
textLength="1857.8" font-size="524.934" lengthAdjust="spacingAndGlyphs"
text-anchor="middle" opacity="0">RESET</text>
</g>
<path d="M34315 8347
L34127 8478
" />
<path d="M34315 8572
L33921 8572
L33921 8422
L33940 8384
L33959 8366
L33996 8347
L34052 8347
L34090 8366
L34109 8384
L34127 8422
L34127 8572
" />
<path d="M34109 8178
L34109 8047
" />
<path d="M34315 7991
L34315 8178
L33921 8178
L33921 7991
" />
<path d="M34296 7841
L34315 7784
L34315 7691
L34296 7653
L34277 7634
L34240 7616
L34202 7616
L34165 7634
L34146 7653
L34127 7691
L34109 7766
L34090 7803
L34071 7822
L34034 7841
L33996 7841
L33959 7822
L33940 7803
L33921 7766
L33921 7672
L33940 7616
" />
<path d="M34109 7447
L34109 7316
" />
<path d="M34315 7260
L34315 7447
L33921 7447
L33921 7260
" />
<path d="M33921 7147
L33921 6922
" />
<path d="M34315 7035
L33921 7035
" />
<text x="22621.4" y="14173.2"
textLength="1164.14" font-size="524.934" lengthAdjust="spacingAndGlyphs"
text-anchor="middle" opacity="0">3V0</text>
<path d="M22133 13760
L22377 13760
L22246 13910
L22302 13910
L22340 13929
L22358 13948
L22377 13985
L22377 14079
L22358 14116
L22340 14135
L22302 14154
L22190 14154
L22152 14135
L22133 14116
" />
<path d="M22490 13760
L22621 14154
L22752 13760
" />
<path d="M22958 13760
L22996 13760
L23033 13779
L23052 13798
L23071 13835
L23090 13910
L23090 14004
L23071 14079
L23052 14116
L23033 14135
L22996 14154
L22958 14154
L22921 14135
L22902 14116
L22883 14079
L22865 14004
L22865 13910
L22883 13835
L22902 13798
L22921 13779
L22958 13760
" />
</g>
<g style="fill:#000000; fill-opacity:1.0; 
stroke:#000000; stroke-width:3.93701; stroke-opacity:1; 
stroke-linecap:round; stroke-linejoin:round;">
<path style="fill:#000000; fill-opacity:1.0; 
stroke:#000000; stroke-width:3.93701; stroke-opacity:1; 
stroke-linecap:round; stroke-linejoin:round;fill-rule:evenodd;"
d="M 29477.3,17789.7
29486.4,17804.4
29500.3,17827.8
29518.6,17858.7
29540.7,17896.3
29565.9,17939.5
29593.8,17987.3
29623.6,18038.8
29655,18092.9
29687.2,18148.7
29719.8,18205.1
29752.1,18261.2
29783.5,18316
29813.6,18368.5
29841.7,18417.6
29867.3,18462.5
29889.8,18502.1
29908.5,18535.3
29923,18561.3
29932.7,18579.1
29937,18587.5
29937.1,18588.1
29931.8,18595.3
29917.1,18606.3
29894.7,18620
29866.4,18635.3
29836.8,18649.9
29796.4,18667.6
29754,18683.6
29708,18698
29657.1,18711.4
29599.6,18724
29534.3,18736.3
29459.5,18748.5
29382.2,18759.9
29315,18770
29258.6,18780
29211.6,18790.4
29172.4,18801.7
29139.8,18814.4
29112.3,18828.9
29088.5,18845.9
29067,18865.7
29060.1,18873.1
29045,18890.2
29033.9,18904.2
29028.7,18912.4
29028.6,18913.1
29026.8,18917.2
29020.5,18917.3
29008.5,18912.7
28989.5,18902.9
28962.2,18887.4
28943.2,18876.2
28914.9,18858.8
28892.9,18843.8
28878.7,18832.4
28873.8,18825.7
28873.8,18825.7
28876.9,18819.3
28885.5,18803.3
28899.3,18778.6
28917.6,18746
28940,18706.4
28966,18660.6
28995.1,18609.7
29026.7,18554.3
29060.5,18495.5
29095.8,18434
29132.1,18370.7
29169,18306.6
29206,18242.4
29242.6,18179.1
29278.2,18117.5
29312.4,18058.5
29344.6,18003
29374.4,17951.8
29401.2,17905.8
29424.6,17866
29444,17833
29459,17807.9
29469,17791.5
29473.5,17784.7
29473.7,17784.6
Z" /> 
<path style="fill:#000000; fill-opacity:1.0; 
stroke:#000000; stroke-width:3.93701; stroke-opacity:1; 
stroke-linecap:round; stroke-linejoin:round;fill-rule:evenodd;"
d="M 30195.2,19029.4
30199.7,19036.9
30209.8,19054.1
30224.9,19080.2
30244.7,19114.2
30268.5,19155.4
30296,19202.8
30326.6,19255.7
30359.7,19313.1
30395,19374.1
30431.2,19437
30468.3,19501.2
30503.8,19562.9
30537.4,19621.1
30568.5,19674.9
30596.5,19723.5
30621,19765.9
30641.4,19801.3
30657.3,19828.8
30668.1,19847.5
30673.2,19856.2
30681.4,19871
30685.9,19880.2
30686.2,19881.9
30680.7,19878.8
30665.5,19870.2
30641.3,19856.3
30608.9,19837.7
30569.2,19814.8
30522.9,19788.1
30470.8,19758
30413.8,19725.1
30352.5,19689.7
30287.9,19652.3
30263.3,19638.1
30197.6,19600
30134.8,19563.8
30075.9,19529.7
30021.5,19498.4
29972.6,19470.2
29930,19445.7
29894.4,19425.2
29866.6,19409.3
29847.5,19398.4
29837.8,19393
29836.8,19392.5
29839.7,19387.9
29850,19375.5
29866.5,19356.5
29888.2,19332.1
29914.1,19303.3
29943.1,19271.4
29974.2,19237.4
30006.3,19202.5
30038.4,19167.8
30069.4,19134.5
30098.4,19103.7
30124.1,19076.6
30145.6,19054.2
30161.9,19037.8
30167.5,19032.4
30186,19015
Z" /> 
<path style="fill:#000000; fill-opacity:1.0; 
stroke:#000000; stroke-width:3.93701; stroke-opacity:1; 
stroke-linecap:round; stroke-linejoin:round;fill-rule:evenodd;"
d="M 28752.1,19051.6
28764.9,19056.6
28784.5,19066.4
28812.5,19081.8
28814.7,19083.1
28840.5,19097.8
28862.3,19110.8
28877.9,19120.6
28885.2,19125.9
28885.4,19126.2
28883.6,19133.6
28875.5,19150.2
28861.6,19175.1
28842.4,19207.4
28818.5,19246.1
28790.4,19290.4
28783.4,19301.2
28765.1,19331.4
28751.8,19357.3
28744.7,19376.7
28743.9,19380.5
28744.3,19397.4
28747.9,19424.1
28754.4,19459
28763.4,19500.3
28774.3,19546.4
28786.7,19595.5
28800.2,19645.9
28814.2,19695.9
28828.4,19743.8
28842.3,19787.8
28855.4,19826.3
28867.3,19857.5
28875.5,19876
28885.3,19895.8
28894.5,19914.6
28895,19915.7
28910.2,19934.7
28932.5,19947.6
28958.4,19953.7
28984.6,19952.7
29007.7,19944.1
29020.7,19932.8
29039.4,19901.8
29053.2,19863.1
29060.7,19820.8
29061.8,19796.8
29057.5,19751.9
29044.9,19714.8
29023.3,19683.6
29016.5,19676.7
28996.5,19657.2
28995.1,19519.4
28993.7,19381.7
29028.8,19328.6
29045.3,19304.5
29061.1,19282.9
29074.1,19266.7
29079.7,19260.7
29095.5,19246
29116.9,19257.5
29130.5,19265.8
29137.9,19272.2
29138.3,19273.3
29143.4,19278.2
29152.1,19281.9
29160.4,19285.2
29173.2,19291.4
29191.6,19301.2
29216.6,19315.2
29249.3,19333.9
29290.9,19358
29313.5,19371.2
29340.1,19387
29357.6,19398.3
29367.4,19406.3
29371.2,19412.4
29370.4,19417.9
29369.8,19419.2
29363.7,19427.3
29350.6,19442.4
29332,19462.9
29309.6,19487
29290.2,19507.5
29245.4,19556.1
29210.4,19598.3
29184.8,19634.3
29168.4,19664.8
29162.8,19680.3
29160.5,19693.8
29158.2,19716.9
29155.9,19746.9
29154,19781.2
29153.1,19802.9
29151.9,19840.3
29151.3,19867.7
29151.6,19887.2
29153,19900.7
29155.5,19910.5
29159.3,19918.7
29162.4,19923.6
29179.8,19942.8
29202.3,19956.2
29226,19962
29243.7,19959.9
29259.8,19950.8
29279.9,19934.4
29301.3,19913.7
29321.1,19891.5
29336.5,19870.7
29342.2,19860.6
29350.7,19846.8
29366.2,19825.7
29387.2,19799.1
29412.3,19768.6
29440.2,19735.7
29469.3,19702.2
29498.4,19669.7
29526,19639.9
29550.6,19614.3
29569.9,19595.5
29591.4,19576.8
29609.4,19563
29622.1,19555.5
29626.3,19554.7
29632.8,19558
29648.8,19566.9
29673.6,19580.8
29706.1,19599.2
29745.5,19621.6
29790.8,19647.5
29841.1,19676.3
29895.5,19707.4
29953,19740.4
30012.7,19774.7
30073.7,19809.7
30135,19845
30195.8,19880
30255,19914.2
30311.9,19947
30365.4,19977.9
30414.6,20006.4
30458.6,20032
30496.4,20054
30527.2,20072
30550,20085.5
30563.9,20093.8
30567.9,20096.4
30562.5,20097
30545.4,20097.5
30517.3,20098
30478.7,20098.4
30430.2,20098.9
30372.3,20099.3
30305.7,20099.7
30230.8,20100
30148.2,20100.4
30058.6,20100.7
29962.4,20100.9
29860.3,20101.2
29752.8,20101.4
29640.5,20101.5
29524,20101.6
29403.7,20101.6
29353.3,20101.6
28132.8,20101.6
28219.8,19950.7
28238.3,19918.8
28262,19877.6
28290.2,19828.7
28322.1,19773.3
28357,19712.8
28393.9,19648.6
28432.2,19582.2
28471,19514.8
28509.6,19447.8
28519.4,19430.9
28554.9,19369.2
28588.8,19310.6
28620.6,19255.7
28649.7,19205.7
28675.6,19161.2
28697.8,19123.2
28715.8,19092.6
28729.1,19070.2
28737.2,19056.9
28739.5,19053.6
28744.2,19050.9
Z" /> 
</g>
<g style="fill:#000000; fill-opacity:1.0; 
stroke:#000000; stroke-width:47.2441; stroke-opacity:1; 
stroke-linecap:round; stroke-linejoin:round;">
</g>
<g style="fill:#000000; fill-opacity:0.0; 
stroke:#000000; stroke-width:47.2441; stroke-opacity:1; 
stroke-linecap:round; stroke-linejoin:round;">
<path d="M11982 20684
L11982 20870
" />
<path d="M12394 20684
L12394 20870
" />
<path d="M13256 20857
L13069 20857
" />
<path d="M13256 21268
L13069 21268
" />
<path d="M23098 13512
L23285 13512
" />
<path d="M23098 13101
L23285 13101
" />
<path d="M26643 17908
L26643 18114
" />
<path d="M27221 17908
L27221 18114
" />
<path d="M21099 23165
L21056 23165
" />
<path d="M21056 23165
L21056 23401
" />
<path d="M31111 23165
L31154 23165
" />
<path d="M31154 23165
L31154 23401
" />
<path d="M22188 22145
L22267 22303
" />
<path d="M22267 22303
L22345 22145
" />
<path d="M22345 22145
L22188 22145
" />
<path d="M28668 11029
L28668 10919
" />
<path d="M28267 11029
L28267 10919
" />
<path d="M7813 12095
L7626 12095
" />
<path d="M7813 11684
L7626 11684
" />
<path d="M13668 13428
L13668 13539
" />
<path d="M13267 13428
L13267 13539
" />
<path d="M8798 15015
L8798 14905
" />
<path d="M9200 15015
L9200 14905
" />
<path d="M7775 12700
L7664 12700
" />
<path d="M7775 12299
L7664 12299
" />
<path d="M10736 4558
L10923 4558
" />
<path d="M10736 4969
L10923 4969
" />
<path d="M12216 5418
L12216 5605
" />
<path d="M11805 5418
L11805 5605
" />
</g>
<g style="fill:#000000; fill-opacity:0.0; 
stroke:#000000; stroke-width:59.0551; stroke-opacity:1; 
stroke-linecap:round; stroke-linejoin:round;">
<path d="M32709 19655
L32798 19655
" />
<path d="M32709 18336
L32828 18336
" />
<path d="M34028 18336
L33910 18336
" />
<path d="M34028 19655
L33910 19655
" />
<path d="M32709 19655
L32709 18336
" />
<path d="M34028 19655
L34028 18336
" />
<path d="M32798 19655
L32798 20137
" />
</g>
<g style="fill:#000000; fill-opacity:0.0; 
stroke:#000000; stroke-width:47.2441; stroke-opacity:1; 
stroke-linecap:round; stroke-linejoin:round;">
<path d="M32046 19720
L31936 19720
" />
<path d="M32046 20122
L31936 20122
" />
<path d="M10776 13985
L10962 13985
" />
<path d="M10776 13573
L10962 13573
" />
<path d="M11611 5163
L10082 5163
" />
<path d="M11611 6057
L11611 5163
" />
<path d="M10082 6057
L11611 6057
" />
<path d="M13117 20377
L13227 20377
" />
<path d="M13117 19976
L13227 19976
" />
<path d="M29634 20621
L29447 20621
" />
<path d="M29634 21032
L29447 21032
" />
<path d="M30893 20621
L30707 20621
" />
<path d="M30893 21032
L30707 21032
" />
<path d="M16829 7277
L17035 7277
" />
<path d="M16829 6698
L17035 6698
" />
<path d="M10164 7023
L10164 6913
" />
<path d="M9763 7023
L9763 6913
" />
<path d="M11376 10638
L11563 10638
" />
<path d="M11376 10227
L11563 10227
" />
</g>
<g style="fill:#000000; fill-opacity:0.0; 
stroke:#000000; stroke-width:100; stroke-opacity:1; 
stroke-linecap:round; stroke-linejoin:round;">
<path d="M11420 6377
L11026 6377
" />
<path d="M11420 7480
L11026 7480
" />
<path d="M11026 6377
L11026 7480
" />
<path d="M11420 6377
L11420 7480
" />
</g>
<g style="fill:#000000; fill-opacity:0.0; 
stroke:#000000; stroke-width:98.4252; stroke-opacity:1; 
stroke-linecap:round; stroke-linejoin:round;">
<circle cx="10633.2" cy="6240.16" r="49.2126" /> 
</g>
<g style="fill:#000000; fill-opacity:0.0; 
stroke:#000000; stroke-width:47.2441; stroke-opacity:1; 
stroke-linecap:round; stroke-linejoin:round;">
<path d="M12395 6727
L12395 6914
" />
<path d="M12807 6727
L12807 6914
" />
<path d="M13437 6914
L13437 6727
" />
<path d="M13025 6914
L13025 6727
" />
<path d="M7125 8175
L7341 8175
" />
<path d="M7125 10564
L7125 8175
" />
<path d="M7341 10564
L7125 10564
" />
<path d="M9357 8175
L9357 8903
" />
<path d="M8648 8175
L9357 8175
" />
<path d="M9357 9836
L9648 9836
" />
<path d="M9357 10564
L9357 9836
" />
<path d="M8648 10564
L9357 10564
" />
<path d="M13009 6111
L13009 5211
" />
<path d="M12430 6111
L13009 6111
" />
<path d="M12430 5211
L12430 6111
" />
<path d="M8444 13635
L8444 13746
" />
<path d="M8845 13635
L8845 13746
" />
<path d="M9466 13586
L9594 13586
" />
<path d="M9466 13185
L9594 13185
" />
<path d="M10865 12868
L10865 13055
" />
<path d="M12920 11000
L12733 11000
" />
<path d="M12920 11187
L12920 11000
" />
<path d="M12920 13055
L12733 13055
" />
<path d="M12920 12868
L12920 13055
" />
<path d="M10865 11000
L11052 11000
" />
<path d="M10865 11187
L10865 11000
" />
<path d="M13024 9887
L13684 9887
" />
<path d="M13024 9990
L13024 9887
" />
<path d="M11952 9990
L13024 9990
" />
<path d="M10879 9990
L10879 9887
" />
<path d="M11952 9990
L10879 9990
" />
<path d="M13024 7844
L13024 7946
" />
<path d="M11952 7844
L13024 7844
" />
<path d="M10879 7844
L10879 7946
" />
<path d="M11952 7844
L10879 7844
" />
<path d="M12040 13980
L12168 13980
" />
<path d="M12040 13578
L12168 13578
" />
<path d="M9586 13775
L9475 13775
" />
<path d="M9586 14177
L9475 14177
" />
<path d="M10259 13011
L10259 11437
" />
<path d="M8959 13011
L10259 13011
" />
<path d="M9465 11283
L9576 11283
" />
<path d="M9465 10881
L9576 10881
" />
<path d="M8826 11433
L8826 11322
" />
<path d="M8424 11433
L8424 11322
" />
<path d="M8196 15968
L8196 13326
" />
<path d="M7125 15968
L8196 15968
" />
<path d="M7125 13326
L7125 15968
" />
<path d="M15545 6727
L15545 6914
" />
<path d="M15957 6727
L15957 6914
" />
<path d="M14790 19098
L14901 19098
" />
<path d="M14790 18696
L14901 18696
" />
<path d="M13952 14043
L13952 12413
" />
<path d="M15070 12413
L15188 12413
" />
<path d="M15188 12413
L15188 14043
" />
<path d="M14070 14043
L13952 14043
" />
<path d="M15188 14043
L15070 14043
" />
<path d="M13952 12413
L14070 12413
" />
<circle cx="23743.4" cy="16692.9" r="374.016" /> 
<circle cx="23743.4" cy="17480.3" r="374.016" /> 
<path d="M14046 23566
L15093 23566
" />
<path d="M14046 21543
L14046 23566
" />
<path d="M15093 21543
L15093 23566
" />
<path d="M14046 21543
L15093 21543
" />
<path d="M14046 21043
L14046 20519
" />
<path d="M14046 20519
L14570 20519
" />
</g>
<g style="fill:#000000; fill-opacity:0.0; 
stroke:#000000; stroke-width:100; stroke-opacity:1; 
stroke-linecap:round; stroke-linejoin:round;">
<path d="M20068 18459
L20068 18509
" />
<path d="M20068 18509
L20018 18509
" />
<path d="M20018 18509
L20018 18459
" />
<path d="M20018 18459
L20068 18459
" />
<path d="M19991 17244
L19991 17386
" />
<path d="M19991 17613
L19991 18055
" />
<path d="M19991 18282
L19991 18425
" />
<path d="M19991 18425
L19858 18425
" />
<path d="M19596 18425
L18889 18425
" />
<path d="M18628 18425
L18495 18425
" />
<path d="M18495 18425
L18495 18283
" />
<path d="M18495 18055
L18495 17613
" />
<path d="M18495 17386
L18495 17244
" />
<path d="M18495 17244
L18628 17244
" />
<path d="M18889 17244
L19597 17244
" />
<path d="M19858 17244
L19991 17244
" />
<circle cx="19443.5" cy="17834.6" r="125" /> 
</g>
<g style="fill:#000000; fill-opacity:0.0; 
stroke:#000000; stroke-width:47.2441; stroke-opacity:1; 
stroke-linecap:round; stroke-linejoin:round;">
<path d="M20491 18175
L20491 18064
" />
<path d="M20893 18175
L20893 18064
" />
<path d="M32259 10066
L32259 9948
" />
<path d="M33889 8830
L33889 8948
" />
<path d="M33889 9948
L33889 10066
" />
<path d="M32259 8830
L33889 8830
" />
<path d="M32259 8948
L32259 8830
" />
<path d="M33889 10066
L32259 10066
" />
<path d="M31141 14474
L31141 14363
" />
<path d="M31542 14474
L31542 14363
" />
<path d="M31761 14474
L31761 14363
" />
<path d="M32162 14474
L32162 14363
" />
<path d="M19208 10425
L19208 9929
" />
<path d="M19208 7740
L19208 8236
" />
<path d="M17727 10425
L19208 10425
" />
<path d="M16841 7740
L19208 7740
" />
<path d="M21040 8421
L21151 8421
" />
<path d="M21040 8822
L21151 8822
" />
<path d="M21040 7751
L21151 7751
" />
<path d="M21040 8153
L21151 8153
" />
<path d="M15253 18110
L15253 16580
" />
<path d="M15253 16580
L14359 16580
" />
<path d="M14359 16580
L14359 18110
" />
<path d="M16040 6101
L16040 5201
" />
<path d="M15461 6101
L16040 6101
" />
<path d="M15461 5201
L15461 6101
" />
<path d="M20932 19720
L21042 19720
" />
<path d="M20932 20122
L21042 20122
" />
<path d="M21071 19006
L20884 19006
" />
<path d="M21071 19418
L20884 19418
" />
<path d="M21080 20424
L20894 20424
" />
<path d="M21080 20835
L20894 20835
" />
</g>
<g style="fill:#000000; fill-opacity:0.0; 
stroke:#000000; stroke-width:100; stroke-opacity:1; 
stroke-linecap:round; stroke-linejoin:round;">
<path d="M18782 24803
L16420 24803
" />
<path d="M18782 24015
L18782 24803
" />
<path d="M16420 24015
L16420 24803
" />
<path d="M19963 23622
L19963 19291
" />
<path d="M15239 23622
L15239 19291
" />
<path d="M19580 24015
L15633 24015
" />
<path d="M15633 23622
L15239 23622
" />
<path d="M15633 23622
L15633 24015
" />
<path d="M19570 23622
L19963 23622
" />
<path d="M19580 24015
L19580 23622
" />
<path d="M19570 23622
L15633 23622
" />
<path d="M19963 19291
L15239 19291
" />
</g>
<g style="fill:#000000; fill-opacity:0.0; 
stroke:#000000; stroke-width:47.2441; stroke-opacity:1; 
stroke-linecap:round; stroke-linejoin:round;">
<circle cx="21735.6" cy="16338.6" r="374.016" /> 
<circle cx="17601.7" cy="17874" r="374.016" /> 
<circle cx="21735.6" cy="13582.7" r="374.016" /> 
<circle cx="21735.6" cy="11614.2" r="374.016" /> 
<path d="M9063 17440
L8886 17440
" />
<path d="M9063 17440
L9063 17618
" />
<path d="M8846 19645
L8846 19468
" />
<path d="M8118 19645
L8846 19645
" />
<path d="M7114 16574
L7212 16574
" />
<path d="M7114 19645
L7212 19645
" />
<path d="M8118 16574
L8846 16574
" />
<path d="M8846 16574
L8846 16751
" />
<path d="M9881 20275
L9881 21240
" />
<path d="M11148 20984
L11148 20275
" />
<path d="M11145 21555
L11145 21732
" />
<path d="M11145 21555
L11322 21555
" />
<path d="M13349 21771
L13172 21771
" />
<path d="M13349 22500
L13349 21771
" />
<path d="M10278 23503
L10278 23405
" />
<path d="M13349 23503
L13349 23405
" />
<path d="M10278 22500
L10278 21771
" />
<path d="M10278 21771
L10456 21771
" />
<path d="M23010 12139
L23216 12139
" />
<path d="M23010 11561
L23216 11561
" />
<path d="M31750 18438
L31956 18438
" />
<path d="M31750 17860
L31956 17860
" />
<path d="M31750 17592
L31956 17592
" />
<path d="M31750 17013
L31956 17013
" />
<path d="M33963 13660
L33963 10487
" />
<path d="M32184 13660
L33963 13660
" />
<path d="M32184 10487
L32184 13660
" />
<path d="M13019 16427
L10499 16427
" />
<path d="M13019 14438
L10499 14438
" />
<path d="M13019 16427.2 A994.094 994.094 0.0 0 0 13019 14439" />
<path d="M10499.3 14439 A994.094 994.094 0.0 0 0 10499.3 16427.2" />
<path d="M23138 9497
L22951 9497
" />
<path d="M23138 9085
L22951 9085
" />
<path d="M23138 9715
L22951 9715
" />
<path d="M23138 10126
L22951 10126
" />
<path d="M21002 9497
L21189 9497
" />
<path d="M21002 9085
L21189 9085
" />
<path d="M21002 10126
L21189 10126
" />
<path d="M21002 9715
L21189 9715
" />
<path d="M21002 10756
L21189 10756
" />
<path d="M21002 10345
L21189 10345
" />
<path d="M25948 18996
L25948 19625
" />
<path d="M24688 18996
L24688 19625
" />
<path d="M24456 20098
L24456 19133
" />
<path d="M23188 19389
L23188 20098
" />
<path d="M14067 6914
L14067 6727
" />
<path d="M13655 6914
L13655 6727
" />
<path d="M14697 6914
L14697 6727
" />
<path d="M14285 6914
L14285 6727
" />
<path d="M13737 5851
L13737 4951
" />
<path d="M13737 4951
L13158 4951
" />
<path d="M13158 4951
L13158 5851
" />
<path d="M13946 4951
L13946 5851
" />
<path d="M14524 4951
L13946 4951
" />
<path d="M14524 5851
L14524 4951
" />
<path d="M32345 7086
L32345 8661
" />
<path d="M33645 7086
L32345 7086
" />
<path d="M26204 13149
L26204 12933
" />
<path d="M26204 12933
L26420 12933
" />
<path d="M30259 13149
L30259 12933
" />
<path d="M30259 12933
L30042 12933
" />
<path d="M30259 16771
L30259 16988
" />
<path d="M30259 16988
L30042 16988
" />
<path d="M26204 16771
L26204 16988
" />
</g>
<g style="fill:#000000; fill-opacity:0.0; 
stroke:#000000; stroke-width:59.0551; stroke-opacity:1; 
stroke-linecap:round; stroke-linejoin:round;">
<circle cx="26656.8" cy="16535.4" r="118.11" /> 
</g>
<g style="fill:#000000; fill-opacity:0.0; 
stroke:#000000; stroke-width:47.2441; stroke-opacity:1; 
stroke-linecap:round; stroke-linejoin:round;">
<path d="M26420 16988
L26204 16988
" />
<path d="M17981 13598
L17853 13598
" />
<path d="M19121 14866
L19121 14738
" />
<path d="M18993 14866
L19121 14866
" />
<path d="M17853 14866
L17853 14738
" />
<path d="M17981 14866
L17853 14866
" />
<path d="M19121 13598
L19121 13726
" />
<path d="M18993 13598
L19121 13598
" />
<path d="M29377 11029
L29377 10919
" />
<path d="M28975 11029
L28975 10919
" />
<path d="M23247 12476
L23136 12476
" />
<path d="M23247 12877
L23136 12877
" />
<path d="M22450 19114
L22450 20013
" />
<path d="M22450 20013
L23028 20013
" />
<path d="M23028 20013
L23028 19114
" />
<path d="M14879 14602
L14989 14602
" />
<path d="M14879 15003
L14989 15003
" />
<path d="M14869 16019
L14979 16019
" />
<path d="M14869 16421
L14979 16421
" />
<path d="M22538 20754
L22538 20643
" />
<path d="M22940 20754
L22940 20643
" />
<path d="M25255 20614
L25144 20614
" />
<path d="M25255 20212
L25144 20212
" />
<path d="M13845 18346
L13845 16988
" />
<path d="M13845 18346
L13845 19114
" />
<path d="M9861 18346
L9861 17578
" />
<path d="M9861 18346
L9861 19114
" />
<path d="M14072 10561
L14072 11220
" />
<path d="M13969 10561
L14072 10561
" />
<path d="M13969 9488
L13969 10561
" />
<path d="M13969 8415
L14072 8415
" />
<path d="M13969 9488
L13969 8415
" />
<path d="M16115 10561
L16013 10561
" />
<path d="M16115 9488
L16115 10561
" />
<path d="M16115 8415
L16013 8415
" />
<path d="M16115 9488
L16115 8415
" />
<path d="M22542 15767
L22956 15767
" />
<path d="M22542 15059
L22542 15767
" />
<path d="M23841 15767
L23428 15767
" />
<path d="M23841 14822
L23841 15767
" />
<path d="M15327 6914
L15327 6727
" />
<path d="M14915 6914
L14915 6727
" />
<path d="M17370 10699
L17183 10699
" />
<path d="M17370 11111
L17183 11111
" />
<path d="M14821 15717
L15008 15717
" />
<path d="M14821 15306
L15008 15306
" />
<path d="M22216 20792
L22216 20605
" />
<path d="M21805 20792
L21805 20605
" />
<path d="M14752 11497
L14565 11497
" />
<path d="M14752 11908
L14565 11908
" />
<path d="M32931 15993
L33118 15993
" />
<path d="M32931 15581
L33118 15581
" />
<path d="M31681 15993
L31868 15993
" />
<path d="M31681 15581
L31868 15581
" />
<path d="M23285 10542
L23098 10542
" />
<path d="M23285 10953
L23098 10953
" />
<path d="M24594 17056
L24781 17056
" />
<path d="M24594 16644
L24781 16644
" />
<path d="M24604 14772
L24791 14772
" />
<path d="M24604 14361
L24791 14361
" />
<path d="M17455 11816
L17455 12002
" />
<path d="M17866 11816
L17866 12002
" />
<path d="M16691 13985
L16878 13985
" />
<path d="M16691 13573
L16878 13573
" />
<path d="M20315 13573
L20128 13573
" />
<path d="M20315 13985
L20128 13985
" />
<path d="M16766 11816
L16766 12002
" />
<path d="M17177 11816
L17177 12002
" />
<path d="M16691 13296
L16878 13296
" />
<path d="M16691 12884
L16878 12884
" />
<path d="M20313 12884
L20126 12884
" />
<path d="M20313 13296
L20126 13296
" />
<path d="M20849 11555
L20849 12185
" />
<path d="M19589 11555
L19589 12185
" />
<path d="M16459 15807
L17089 15807
" />
<path d="M16459 17066
L17089 17066
" />
<path d="M20534 17066
L19904 17066
" />
<path d="M20534 15807
L19904 15807
" />
<path d="M16463 6248
L16463 5724
" />
<path d="M16987 6248
L16463 6248
" />
<path d="M16463 5224
L16463 4200
" />
<path d="M17487 5224
L16463 5224
" />
<path d="M17487 6248
L17487 5224
" />
<path d="M16463 4200
L31511 4200
" />
<path d="M17487 6248
L31511 6248
" />
<path d="M31511 6248
L31511 4200
" />
<path d="M14713 4961
L14713 5861
" />
<path d="M15292 4961
L14713 4961
" />
<path d="M15292 5861
L15292 4961
" />
<path d="M18045 11194
L18945 11194
" />
<path d="M18045 10616
L18045 11194
" />
<path d="M18945 10616
L18045 10616
" />
<path d="M32969 16696
L33080 16696
" />
<path d="M32969 16295
L33080 16295
" />
<path d="M31719 16696
L31830 16696
" />
<path d="M31719 16295
L31830 16295
" />
<path d="M24445 13468
L24556 13468
" />
<path d="M24445 13066
L24556 13066
" />
<path d="M24445 12208
L24556 12208
" />
<path d="M24445 11807
L24556 11807
" />
<path d="M24445 12838
L24556 12838
" />
<path d="M24445 12437
L24556 12437
" />
<path d="M24445 10547
L24556 10547
" />
<path d="M24445 10948
L24556 10948
" />
<path d="M24632 16401
L24743 16401
" />
<path d="M24632 16000
L24743 16000
" />
<path d="M24642 15397
L24753 15397
" />
<path d="M24642 14996
L24753 14996
" />
<path d="M24445 11196
L24556 11196
" />
<path d="M24445 11598
L24556 11598
" />
<path d="M19298 16610
L19298 16499
" />
<path d="M18896 16610
L18896 16499
" />
<path d="M18688 16610
L18688 16499
" />
<path d="M18286 16610
L18286 16499
" />
<path d="M18078 16610
L18078 16499
" />
<path d="M17676 16610
L17676 16499
" />
<path d="M21298 14826
L21298 14937
" />
<path d="M21700 14826
L21700 14937
" />
<path d="M21928 14826
L21928 14937
" />
<path d="M22330 14826
L22330 14937
" />
<path d="M18148 11844
L18148 11954
" />
<path d="M18550 11844
L18550 11954
" />
<path d="M16709 14669
L16820 14669
" />
<path d="M16709 14267
L16820 14267
" />
<path d="M20285 14267
L20174 14267
" />
<path d="M20285 14669
L20174 14669
" />
<path d="M16709 15358
L16820 15358
" />
<path d="M16709 14956
L16820 14956
" />
<path d="M20285 14956
L20174 14956
" />
<path d="M20285 15358
L20174 15358
" />
<path d="M18837 11844
L18837 11954
" />
<path d="M19239 11844
L19239 11954
" />
<g >
</g>
</g>
<g style="fill:#000000; fill-opacity:0.0; 
stroke:#000000; stroke-width:47.2441; stroke-opacity:1; 
stroke-linecap:round; stroke-linejoin:round;">
</g>
<g style="fill:#000000; fill-opacity:0.0; 
stroke:#000000; stroke-width:19.685; stroke-opacity:1; 
stroke-linecap:round; stroke-linejoin:round;">
<path d="M8152.89 3937.01 A1181.1 1181.1 0.0 0 0 6971.78 5118.11" />
<path d="M6971.78 22440.9 A1181.1 1181.1 0.0 0 0 8152.89 23622" />
<path d="M33349.7 23622 A1181.1 1181.1 0.0 0 0 34530.8 22440.9" />
<path d="M34530.8 5118.11 A1181.1 1181.1 0.0 0 0 33349.7 3937.01" />
<path d="M6971 22440
L6971 5118
" />
<path d="M33349 23622
L8152 23622
" />
<path d="M34530 5118
L34530 22440
" />
<path d="M8152 3937
L33349 3937
" />
<g >
</g>
<g >
</g>
<g >
</g>
<g >
</g>
<g >
</g>
<g >
</g>
<g >
</g>
<g >
</g>
<g >
</g>
<g >
</g>
<g >
</g>
<g >
</g>
<g >
</g>
<g >
</g>
<g >
</g>
<g >
</g>
<g >
</g>
<g >
</g>
<g >
</g>
<g >
</g>
<g >
</g>
<g >
</g>
<g >
</g>
<g >
</g>
<g >
</g>
<g >
</g>
<g >
</g>
<g >
</g>
<g >
</g>
<g >
</g>
<g >
</g>
<g >
</g>
<g >
</g>
<g >
</g>
<g >
</g>
<g >
</g>
<g >
</g>
<g >
</g>
<g >
</g>
<g >
</g>
<g >
</g>
<g >
</g>
<g >
</g>
<g >
</g>
<g >
</g>
<g >
</g>
<g >
</g>
<g >
</g>
<g >
</g>
<g >
</g>
<g >
</g>
<g >
</g>
<g >
</g>
<g >
</g>
<g >
</g>
<g >
</g>
<g >
</g>
<g >
</g>
<g >
</g>
<g >
</g>
<g >
</g>
<g >
</g>
<g >
</g>
<g >
</g>
<g >
</g>
<g >
</g>
<g >
</g>
<g >
</g>
<g >
</g>
<g >
</g>
<g >
</g>
<g >
</g>
<g >
</g>
<g >
</g>
<g >
</g>
<g >
</g>
<g >
</g>
<g >
</g>
<g >
</g>
<g >
</g>
<g >
</g>
<g >
</g>
<g >
</g>
<g >
</g>
<g >
</g>
<g >
</g>
<g >
</g>
<g >
</g>
<g >
</g>
<g >
</g>
<g >
</g>
<g >
</g>
<g >
</g>
<g >
</g>
<g >
</g>
<g >
</g>
<g >
</g>
<g >
</g>
<g >
</g>
<g >
</g>
<g >
</g>
<g >
</g>
<g >
</g>
<g >
</g>
<g >
</g>
<g >
</g>
<g >
</g>
<g >
</g>
<g >
</g>
<g >
</g>
<g >
</g>
<g >
</g>
<g >
</g>
<g >
</g>
<g >
</g>
<g >
</g>
<g >
</g>
<g >
</g>
<g >
</g>
<g >
</g>
<g >
</g>
<g >
</g>
<g >
</g>
<g >
</g>
<g >
</g>
<g >
</g>
<g >
</g>
<g >
</g>
<g >
</g>
<g >
</g>
<g >
</g>
<g >
</g>
<g >
</g>
<g >
</g>
<g >
</g>
<g >
</g>
<g >
</g>
<g >
</g>
<g >
</g>
<g >
</g>
<g >
</g>
<g >
</g>
<g >
</g>
<g >
</g>
<g >
</g>
<g >
</g>
<g >
</g>
<g >
</g>
<g >
</g>
<g >
</g>
<g >
</g>
<g >
</g>
<g >
</g>
<g >
</g>
</g> 
</svg>
