%TF.GenerationSoftware,KiCad,Pcbnew,(5.99.0-8778-g8571687f51)*%
%TF.CreationDate,2021-02-03T12:08:05+08:00*%
%TF.ProjectId,lightboard-zero,6c696768-7462-46f6-9172-642d7a65726f,rev?*%
%TF.SameCoordinates,Original*%
%TF.FileFunction,Paste,Top*%
%TF.FilePolarity,Positive*%
%FSLAX46Y46*%
G04 Gerber Fmt 4.6, Leading zero omitted, Abs format (unit mm)*
G04 Created by KiCad (PCBNEW (5.99.0-8778-g8571687f51)) date 2021-02-03 12:08:05*
%MOMM*%
%LPD*%
G01*
G04 APERTURE LIST*
G04 Aperture macros list*
%AMRoundRect*
0 Rectangle with rounded corners*
0 $1 Rounding radius*
0 $2 $3 $4 $5 $6 $7 $8 $9 X,Y pos of 4 corners*
0 Add a 4 corners polygon primitive as box body*
4,1,4,$2,$3,$4,$5,$6,$7,$8,$9,$2,$3,0*
0 Add four circle primitives for the rounded corners*
1,1,$1+$1,$2,$3*
1,1,$1+$1,$4,$5*
1,1,$1+$1,$6,$7*
1,1,$1+$1,$8,$9*
0 Add four rect primitives between the rounded corners*
20,1,$1+$1,$2,$3,$4,$5,0*
20,1,$1+$1,$4,$5,$6,$7,0*
20,1,$1+$1,$6,$7,$8,$9,0*
20,1,$1+$1,$8,$9,$2,$3,0*%
%AMFreePoly0*
4,1,14,0.289644,0.110355,0.410355,-0.010356,0.425000,-0.045711,0.425000,-0.075000,0.410355,-0.110355,0.375000,-0.125000,-0.375000,-0.125000,-0.410355,-0.110355,-0.425000,-0.075000,-0.425000,0.075000,-0.410355,0.110355,-0.375000,0.125000,0.254289,0.125000,0.289644,0.110355,0.289644,0.110355,$1*%
%AMFreePoly1*
4,1,15,0.410355,0.110355,0.425000,0.075000,0.425000,0.045711,0.416421,0.025000,0.410355,0.010356,0.289644,-0.110355,0.254289,-0.125000,-0.375000,-0.125000,-0.410355,-0.110355,-0.425000,-0.075000,-0.425000,0.075000,-0.410355,0.110355,-0.375000,0.125000,0.375000,0.125000,0.410355,0.110355,0.410355,0.110355,$1*%
%AMFreePoly2*
4,1,14,0.110355,0.410355,0.125000,0.375000,0.125000,-0.375000,0.110355,-0.410355,0.075000,-0.425000,-0.075000,-0.425000,-0.110355,-0.410355,-0.125000,-0.375000,-0.125000,0.254289,-0.110355,0.289644,0.010356,0.410355,0.045711,0.425000,0.075000,0.425000,0.110355,0.410355,0.110355,0.410355,$1*%
%AMFreePoly3*
4,1,14,-0.010356,0.410355,0.110355,0.289644,0.125000,0.254289,0.125000,-0.375000,0.110355,-0.410355,0.075000,-0.425000,-0.075000,-0.425000,-0.110355,-0.410355,-0.125000,-0.375000,-0.125000,0.375000,-0.110355,0.410355,-0.075000,0.425000,-0.045711,0.425000,-0.010356,0.410355,-0.010356,0.410355,$1*%
%AMFreePoly4*
4,1,14,0.410355,0.110355,0.425000,0.075000,0.425000,-0.075000,0.410355,-0.110355,0.375000,-0.125000,-0.254289,-0.125000,-0.289644,-0.110355,-0.410355,0.010356,-0.425000,0.045711,-0.425000,0.075000,-0.410355,0.110355,-0.375000,0.125000,0.375000,0.125000,0.410355,0.110355,0.410355,0.110355,$1*%
%AMFreePoly5*
4,1,14,0.410355,0.110355,0.425000,0.075000,0.425000,-0.075000,0.410355,-0.110355,0.375000,-0.125000,-0.375000,-0.125000,-0.410355,-0.110355,-0.425000,-0.075000,-0.425000,-0.045711,-0.410355,-0.010356,-0.289644,0.110355,-0.254289,0.125000,0.375000,0.125000,0.410355,0.110355,0.410355,0.110355,$1*%
%AMFreePoly6*
4,1,14,0.110355,0.410355,0.125000,0.375000,0.125000,-0.254289,0.110355,-0.289644,-0.010356,-0.410355,-0.045711,-0.425000,-0.075000,-0.425000,-0.110355,-0.410355,-0.125000,-0.375000,-0.125000,0.375000,-0.110355,0.410355,-0.075000,0.425000,0.075000,0.425000,0.110355,0.410355,0.110355,0.410355,$1*%
%AMFreePoly7*
4,1,14,0.110355,0.410355,0.125000,0.375000,0.125000,-0.375000,0.110355,-0.410355,0.075000,-0.425000,0.045711,-0.425000,0.010356,-0.410355,-0.110355,-0.289644,-0.125000,-0.254289,-0.125000,0.375000,-0.110355,0.410355,-0.075000,0.425000,0.075000,0.425000,0.110355,0.410355,0.110355,0.410355,$1*%
G04 Aperture macros list end*
%ADD10R,0.300000X1.100000*%
%ADD11R,2.300000X3.100000*%
%ADD12RoundRect,0.200000X0.200000X0.275000X-0.200000X0.275000X-0.200000X-0.275000X0.200000X-0.275000X0*%
%ADD13RoundRect,0.200000X-0.275000X0.200000X-0.275000X-0.200000X0.275000X-0.200000X0.275000X0.200000X0*%
%ADD14RoundRect,0.225000X0.250000X-0.225000X0.250000X0.225000X-0.250000X0.225000X-0.250000X-0.225000X0*%
%ADD15RoundRect,0.225000X-0.250000X0.225000X-0.250000X-0.225000X0.250000X-0.225000X0.250000X0.225000X0*%
%ADD16RoundRect,0.218750X-0.256250X0.218750X-0.256250X-0.218750X0.256250X-0.218750X0.256250X0.218750X0*%
%ADD17RoundRect,0.225000X0.225000X0.250000X-0.225000X0.250000X-0.225000X-0.250000X0.225000X-0.250000X0*%
%ADD18RoundRect,0.225000X-0.225000X-0.250000X0.225000X-0.250000X0.225000X0.250000X-0.225000X0.250000X0*%
%ADD19RoundRect,0.218750X0.256250X-0.218750X0.256250X0.218750X-0.256250X0.218750X-0.256250X-0.218750X0*%
%ADD20RoundRect,0.250000X1.025000X-0.787500X1.025000X0.787500X-1.025000X0.787500X-1.025000X-0.787500X0*%
%ADD21RoundRect,0.250000X-0.250000X-0.475000X0.250000X-0.475000X0.250000X0.475000X-0.250000X0.475000X0*%
%ADD22R,0.400000X1.350000*%
%ADD23R,1.500000X1.900000*%
%ADD24RoundRect,0.200000X-0.200000X-0.275000X0.200000X-0.275000X0.200000X0.275000X-0.200000X0.275000X0*%
%ADD25RoundRect,0.249999X0.850001X-0.350001X0.850001X0.350001X-0.850001X0.350001X-0.850001X-0.350001X0*%
%ADD26R,0.650000X1.060000*%
%ADD27R,0.800000X1.800000*%
%ADD28RoundRect,0.200000X0.275000X-0.200000X0.275000X0.200000X-0.275000X0.200000X-0.275000X-0.200000X0*%
%ADD29RoundRect,0.150000X0.150000X-0.650000X0.150000X0.650000X-0.150000X0.650000X-0.150000X-0.650000X0*%
%ADD30R,2.750000X1.000000*%
%ADD31RoundRect,0.150000X-0.150000X0.825000X-0.150000X-0.825000X0.150000X-0.825000X0.150000X0.825000X0*%
%ADD32R,1.200000X1.400000*%
%ADD33RoundRect,0.200000X0.800000X-0.200000X0.800000X0.200000X-0.800000X0.200000X-0.800000X-0.200000X0*%
%ADD34C,0.999998*%
%ADD35RoundRect,0.200000X0.200000X0.800000X-0.200000X0.800000X-0.200000X-0.800000X0.200000X-0.800000X0*%
%ADD36R,1.060000X0.650000*%
%ADD37R,0.300000X1.400000*%
%ADD38RoundRect,0.218750X-0.218750X-0.256250X0.218750X-0.256250X0.218750X0.256250X-0.218750X0.256250X0*%
%ADD39R,1.000000X2.750000*%
%ADD40RoundRect,0.250000X0.375000X0.625000X-0.375000X0.625000X-0.375000X-0.625000X0.375000X-0.625000X0*%
%ADD41RoundRect,0.172500X-0.172500X-0.172500X0.172500X-0.172500X0.172500X0.172500X-0.172500X0.172500X0*%
%ADD42FreePoly0,0.000000*%
%ADD43RoundRect,0.062500X-0.362500X-0.062500X0.362500X-0.062500X0.362500X0.062500X-0.362500X0.062500X0*%
%ADD44FreePoly1,0.000000*%
%ADD45FreePoly2,0.000000*%
%ADD46RoundRect,0.062500X-0.062500X-0.362500X0.062500X-0.362500X0.062500X0.362500X-0.062500X0.362500X0*%
%ADD47FreePoly3,0.000000*%
%ADD48FreePoly4,0.000000*%
%ADD49FreePoly5,0.000000*%
%ADD50FreePoly6,0.000000*%
%ADD51FreePoly7,0.000000*%
%ADD52O,0.200000X0.800000*%
%ADD53O,0.800000X0.200000*%
%ADD54R,3.420000X3.420000*%
%ADD55RoundRect,0.150000X0.650000X0.150000X-0.650000X0.150000X-0.650000X-0.150000X0.650000X-0.150000X0*%
%ADD56RoundRect,0.232500X0.232500X-0.232500X0.232500X0.232500X-0.232500X0.232500X-0.232500X-0.232500X0*%
%ADD57RoundRect,0.062500X0.062500X-0.375000X0.062500X0.375000X-0.062500X0.375000X-0.062500X-0.375000X0*%
%ADD58RoundRect,0.062500X0.375000X-0.062500X0.375000X0.062500X-0.375000X0.062500X-0.375000X-0.062500X0*%
%ADD59RoundRect,0.250000X-0.625000X0.375000X-0.625000X-0.375000X0.625000X-0.375000X0.625000X0.375000X0*%
%ADD60RoundRect,0.150000X0.700000X-0.150000X0.700000X0.150000X-0.700000X0.150000X-0.700000X-0.150000X0*%
%ADD61RoundRect,0.250000X1.150000X-0.250000X1.150000X0.250000X-1.150000X0.250000X-1.150000X-0.250000X0*%
%ADD62R,1.350000X0.400000*%
%ADD63R,1.900000X1.500000*%
%ADD64RoundRect,0.250000X-0.475000X0.250000X-0.475000X-0.250000X0.475000X-0.250000X0.475000X0.250000X0*%
G04 APERTURE END LIST*
D10*
%TO.C,J4*%
X38850000Y-45450000D03*
X39350000Y-45450000D03*
X39850000Y-45450000D03*
X40350000Y-45450000D03*
X40850000Y-45450000D03*
X41350000Y-45450000D03*
X41850000Y-45450000D03*
X42350000Y-45450000D03*
X42850000Y-45450000D03*
X43350000Y-45450000D03*
X43850000Y-45450000D03*
X44350000Y-45450000D03*
X44850000Y-45450000D03*
X45350000Y-45450000D03*
X45850000Y-45450000D03*
X46350000Y-45450000D03*
X46850000Y-45450000D03*
X47350000Y-45450000D03*
X47850000Y-45450000D03*
X48350000Y-45450000D03*
X48850000Y-45450000D03*
X49350000Y-45450000D03*
X49850000Y-45450000D03*
X50350000Y-45450000D03*
X50850000Y-45450000D03*
X51350000Y-45450000D03*
X51850000Y-45450000D03*
X52350000Y-45450000D03*
X52850000Y-45450000D03*
X53350000Y-45450000D03*
X53850000Y-45450000D03*
X54350000Y-45450000D03*
X54850000Y-45450000D03*
X55350000Y-45450000D03*
X55850000Y-45450000D03*
X56350000Y-45450000D03*
X56850000Y-45450000D03*
X57350000Y-45450000D03*
X57850000Y-45450000D03*
X58350000Y-45450000D03*
D11*
X60020000Y-47150000D03*
X37180000Y-47150000D03*
%TD*%
D12*
%TO.C,R36*%
X2725000Y-20200000D03*
X1075000Y-20200000D03*
%TD*%
D13*
%TO.C,R38*%
X13250000Y-41950000D03*
X13250000Y-43600000D03*
%TD*%
D14*
%TO.C,C2*%
X54600000Y-18650000D03*
X54600000Y-17100000D03*
%TD*%
D12*
%TO.C,R37*%
X16550000Y-43500000D03*
X14900000Y-43500000D03*
%TD*%
D14*
%TO.C,C45*%
X7600000Y-8475000D03*
X7600000Y-6925000D03*
%TD*%
D15*
%TO.C,C9*%
X38500000Y-27025000D03*
X38500000Y-28575000D03*
%TD*%
D16*
%TO.C,D6*%
X16450000Y-3275000D03*
X16450000Y-4850000D03*
%TD*%
D17*
%TO.C,C42*%
X7275000Y-25500000D03*
X5725000Y-25500000D03*
%TD*%
D18*
%TO.C,C40*%
X19225000Y-38000000D03*
X20775000Y-38000000D03*
%TD*%
D19*
%TO.C,D1*%
X40050000Y-40137500D03*
X40050000Y-38562500D03*
%TD*%
D20*
%TO.C,C29*%
X66300000Y-23400000D03*
X66300000Y-17175000D03*
%TD*%
D21*
%TO.C,C30*%
X62250000Y-33950000D03*
X64150000Y-33950000D03*
%TD*%
%TO.C,C31*%
X62250000Y-36100000D03*
X64150000Y-36100000D03*
%TD*%
%TO.C,C32*%
X40050000Y-20100000D03*
X41950000Y-20100000D03*
%TD*%
D22*
%TO.C,J1*%
X11000000Y-45600000D03*
X11650000Y-45600000D03*
X12300000Y-45600000D03*
X12950000Y-45600000D03*
X13600000Y-45600000D03*
D23*
X13300000Y-48300000D03*
X11300000Y-48300000D03*
%TD*%
D15*
%TO.C,C3*%
X30650000Y-19450000D03*
X30650000Y-21000000D03*
%TD*%
D14*
%TO.C,C14*%
X30800000Y-32825000D03*
X30800000Y-31275000D03*
%TD*%
%TO.C,C13*%
X29250000Y-32825000D03*
X29250000Y-31275000D03*
%TD*%
D18*
%TO.C,C34*%
X34825000Y-40600000D03*
X36375000Y-40600000D03*
%TD*%
D13*
%TO.C,R35*%
X12800000Y-3175000D03*
X12800000Y-4825000D03*
%TD*%
D24*
%TO.C,R34*%
X8975000Y-2100000D03*
X10625000Y-2100000D03*
%TD*%
D14*
%TO.C,C12*%
X27700000Y-32825000D03*
X27700000Y-31275000D03*
%TD*%
D13*
%TO.C,R20*%
X22300000Y-6500000D03*
X22300000Y-8150000D03*
%TD*%
D25*
%TO.C,AE1*%
X1750000Y-29700000D03*
X1750000Y-24000000D03*
%TD*%
D26*
%TO.C,U8*%
X8050000Y-43500000D03*
X9000000Y-43500000D03*
X9950000Y-43500000D03*
X9950000Y-41300000D03*
X9000000Y-41300000D03*
X8050000Y-41300000D03*
%TD*%
D12*
%TO.C,R27*%
X41650000Y-13600000D03*
X40000000Y-13600000D03*
%TD*%
D27*
%TO.C,U1*%
X42150000Y-27450000D03*
X40250000Y-27450000D03*
X41200000Y-30750000D03*
%TD*%
D15*
%TO.C,C8*%
X28900000Y-19450000D03*
X28900000Y-21000000D03*
%TD*%
D18*
%TO.C,C7*%
X24100000Y-26750000D03*
X25650000Y-26750000D03*
%TD*%
D28*
%TO.C,R22*%
X17500000Y-8150000D03*
X17500000Y-6500000D03*
%TD*%
D21*
%TO.C,C46*%
X24350000Y-7750000D03*
X26250000Y-7750000D03*
%TD*%
D26*
%TO.C,U6*%
X43750000Y-39050000D03*
X42800000Y-39050000D03*
X41850000Y-39050000D03*
X41850000Y-41250000D03*
X42800000Y-41250000D03*
X43750000Y-41250000D03*
%TD*%
D29*
%TO.C,U4*%
X18595000Y-17700000D03*
X19865000Y-17700000D03*
X21135000Y-17700000D03*
X22405000Y-17700000D03*
X22405000Y-10500000D03*
X21135000Y-10500000D03*
X19865000Y-10500000D03*
X18595000Y-10500000D03*
%TD*%
D12*
%TO.C,R31*%
X61350000Y-42900000D03*
X59700000Y-42900000D03*
%TD*%
D30*
%TO.C,L4*%
X46600000Y-37900000D03*
X46600000Y-40200000D03*
%TD*%
D12*
%TO.C,R32*%
X58150000Y-42900000D03*
X56500000Y-42900000D03*
%TD*%
D31*
%TO.C,U7*%
X16845000Y-34125000D03*
X15575000Y-34125000D03*
X14305000Y-34125000D03*
X13035000Y-34125000D03*
X11765000Y-34125000D03*
X10495000Y-34125000D03*
X9225000Y-34125000D03*
X7955000Y-34125000D03*
X7955000Y-39075000D03*
X9225000Y-39075000D03*
X10495000Y-39075000D03*
X11765000Y-39075000D03*
X13035000Y-39075000D03*
X14305000Y-39075000D03*
X15575000Y-39075000D03*
X16845000Y-39075000D03*
%TD*%
D17*
%TO.C,C25*%
X47075000Y-41850000D03*
X45525000Y-41850000D03*
%TD*%
D24*
%TO.C,R23*%
X35050000Y-16800000D03*
X36700000Y-16800000D03*
%TD*%
D14*
%TO.C,C43*%
X4200000Y-19675000D03*
X4200000Y-18125000D03*
%TD*%
D18*
%TO.C,C44*%
X5700000Y-18150000D03*
X7250000Y-18150000D03*
%TD*%
D32*
%TO.C,Y3*%
X7550000Y-22150000D03*
X7550000Y-19950000D03*
X5850000Y-19950000D03*
X5850000Y-22150000D03*
%TD*%
D33*
%TO.C,SW2*%
X19300000Y-25700000D03*
X19300000Y-21500000D03*
%TD*%
D24*
%TO.C,R24*%
X35050000Y-15200000D03*
X36700000Y-15200000D03*
%TD*%
D14*
%TO.C,C39*%
X34850000Y-36800000D03*
X34850000Y-35250000D03*
%TD*%
D34*
%TO.C,MIC1*%
X32400000Y-36150022D03*
X29940010Y-36150022D03*
X29940010Y-34450000D03*
X32400000Y-34450000D03*
%TD*%
D35*
%TO.C,SW1*%
X68400000Y-14000000D03*
X64200000Y-14000000D03*
%TD*%
D18*
%TO.C,C15*%
X43750000Y-18950000D03*
X45300000Y-18950000D03*
%TD*%
D36*
%TO.C,U12*%
X9700000Y-6650000D03*
X9700000Y-7600000D03*
X9700000Y-8550000D03*
X11900000Y-8550000D03*
X11900000Y-6650000D03*
%TD*%
D17*
%TO.C,C4*%
X34450000Y-28500000D03*
X32900000Y-28500000D03*
%TD*%
%TO.C,C48*%
X64325000Y-40600000D03*
X62775000Y-40600000D03*
%TD*%
D37*
%TO.C,U13*%
X66050000Y-40450000D03*
X66550000Y-40450000D03*
X67050000Y-40450000D03*
X67550000Y-40450000D03*
X68050000Y-40450000D03*
X68050000Y-36050000D03*
X67550000Y-36050000D03*
X67050000Y-36050000D03*
X66550000Y-36050000D03*
X66050000Y-36050000D03*
%TD*%
D17*
%TO.C,C6*%
X34450000Y-26750000D03*
X32900000Y-26750000D03*
%TD*%
D38*
%TO.C,D2*%
X28825000Y-17700000D03*
X30400000Y-17700000D03*
%TD*%
D18*
%TO.C,C19*%
X43750000Y-22100000D03*
X45300000Y-22100000D03*
%TD*%
%TO.C,C16*%
X44250000Y-28600000D03*
X45800000Y-28600000D03*
%TD*%
D24*
%TO.C,R9*%
X44200000Y-27000000D03*
X45850000Y-27000000D03*
%TD*%
D39*
%TO.C,L1*%
X34800000Y-31750000D03*
X32500000Y-31750000D03*
%TD*%
D12*
%TO.C,R28*%
X36425000Y-42400000D03*
X34775000Y-42400000D03*
%TD*%
%TO.C,R11*%
X42025000Y-17300000D03*
X40375000Y-17300000D03*
%TD*%
D24*
%TO.C,R12*%
X62175000Y-30100000D03*
X63825000Y-30100000D03*
%TD*%
%TO.C,R13*%
X65350000Y-30100000D03*
X67000000Y-30100000D03*
%TD*%
D40*
%TO.C,D9*%
X10900000Y-4250000D03*
X8100000Y-4250000D03*
%TD*%
D32*
%TO.C,Y1*%
X65250000Y-8900000D03*
X65250000Y-11100000D03*
X66950000Y-11100000D03*
X66950000Y-8900000D03*
%TD*%
D24*
%TO.C,R25*%
X35050000Y-13600000D03*
X36700000Y-13600000D03*
%TD*%
D12*
%TO.C,R26*%
X41650000Y-15200000D03*
X40000000Y-15200000D03*
%TD*%
D38*
%TO.C,L6*%
X12250000Y-25000000D03*
X13825000Y-25000000D03*
%TD*%
D18*
%TO.C,C21*%
X43750000Y-23700000D03*
X45300000Y-23700000D03*
%TD*%
%TO.C,C18*%
X43750000Y-17300000D03*
X45300000Y-17300000D03*
%TD*%
D12*
%TO.C,R14*%
X20350000Y-19725000D03*
X18700000Y-19725000D03*
%TD*%
D28*
%TO.C,R15*%
X38200000Y-43400000D03*
X38200000Y-41750000D03*
%TD*%
D24*
%TO.C,R16*%
X19350000Y-29400000D03*
X21000000Y-29400000D03*
%TD*%
D17*
%TO.C,C49*%
X2675000Y-21750000D03*
X1125000Y-21750000D03*
%TD*%
D12*
%TO.C,R17*%
X27000000Y-17700000D03*
X25350000Y-17700000D03*
%TD*%
D19*
%TO.C,D8*%
X14600000Y-4825000D03*
X14600000Y-3250000D03*
%TD*%
D24*
%TO.C,R33*%
X9075000Y-25000000D03*
X10725000Y-25000000D03*
%TD*%
D12*
%TO.C,R29*%
X36400000Y-38800000D03*
X34750000Y-38800000D03*
%TD*%
D28*
%TO.C,R18*%
X20700000Y-8150000D03*
X20700000Y-6500000D03*
%TD*%
D41*
%TO.C,U2*%
X28850000Y-26550000D03*
X28850000Y-25750000D03*
X29650000Y-25750000D03*
X29650000Y-26550000D03*
D42*
X27800000Y-25250000D03*
D43*
X27800000Y-25700000D03*
X27800000Y-26150000D03*
X27800000Y-26600000D03*
D44*
X27800000Y-27050000D03*
D45*
X28350000Y-27600000D03*
D46*
X28800000Y-27600000D03*
X29250000Y-27600000D03*
X29700000Y-27600000D03*
D47*
X30150000Y-27600000D03*
D48*
X30700000Y-27050000D03*
D43*
X30700000Y-26600000D03*
X30700000Y-26150000D03*
X30700000Y-25700000D03*
D49*
X30700000Y-25250000D03*
D50*
X30150000Y-24700000D03*
D46*
X29700000Y-24700000D03*
X29250000Y-24700000D03*
X28800000Y-24700000D03*
D51*
X28350000Y-24700000D03*
%TD*%
D52*
%TO.C,U5*%
X49800000Y-32900000D03*
X50200000Y-32900000D03*
X50600000Y-32900000D03*
X51000000Y-32900000D03*
X51400000Y-32900000D03*
X51800000Y-32900000D03*
X52200000Y-32900000D03*
X52600000Y-32900000D03*
X53000000Y-32900000D03*
X53400000Y-32900000D03*
X53800000Y-32900000D03*
X54200000Y-32900000D03*
X54600000Y-32900000D03*
X55000000Y-32900000D03*
X55400000Y-32900000D03*
X55800000Y-32900000D03*
X56200000Y-32900000D03*
X56600000Y-32900000D03*
X57000000Y-32900000D03*
X57400000Y-32900000D03*
X57800000Y-32900000D03*
X58200000Y-32900000D03*
D53*
X58900000Y-32200000D03*
X58900000Y-31800000D03*
X58900000Y-31400000D03*
X58900000Y-31000000D03*
X58900000Y-30600000D03*
X58900000Y-30200000D03*
X58900000Y-29800000D03*
X58900000Y-29400000D03*
X58900000Y-29000000D03*
X58900000Y-28600000D03*
X58900000Y-28200000D03*
X58900000Y-27800000D03*
X58900000Y-27400000D03*
X58900000Y-27000000D03*
X58900000Y-26600000D03*
X58900000Y-26200000D03*
X58900000Y-25800000D03*
X58900000Y-25400000D03*
X58900000Y-25000000D03*
X58900000Y-24600000D03*
X58900000Y-24200000D03*
X58900000Y-23800000D03*
D52*
X58200000Y-23100000D03*
X57800000Y-23100000D03*
X57400000Y-23100000D03*
X57000000Y-23100000D03*
X56600000Y-23100000D03*
X56200000Y-23100000D03*
X55800000Y-23100000D03*
X55400000Y-23100000D03*
X55000000Y-23100000D03*
X54600000Y-23100000D03*
X54200000Y-23100000D03*
X53800000Y-23100000D03*
X53400000Y-23100000D03*
X53000000Y-23100000D03*
X52600000Y-23100000D03*
X52200000Y-23100000D03*
X51800000Y-23100000D03*
X51400000Y-23100000D03*
X51000000Y-23100000D03*
X50600000Y-23100000D03*
X50200000Y-23100000D03*
X49800000Y-23100000D03*
D53*
X49100000Y-23800000D03*
X49100000Y-24200000D03*
X49100000Y-24600000D03*
X49100000Y-25000000D03*
X49100000Y-25400000D03*
X49100000Y-25800000D03*
X49100000Y-26200000D03*
X49100000Y-26600000D03*
X49100000Y-27000000D03*
X49100000Y-27400000D03*
X49100000Y-27800000D03*
X49100000Y-28200000D03*
X49100000Y-28600000D03*
X49100000Y-29000000D03*
X49100000Y-29400000D03*
X49100000Y-29800000D03*
X49100000Y-30200000D03*
X49100000Y-30600000D03*
X49100000Y-31000000D03*
X49100000Y-31400000D03*
X49100000Y-31800000D03*
X49100000Y-32200000D03*
D54*
X54000000Y-28000000D03*
%TD*%
D15*
%TO.C,C10*%
X36900000Y-27025000D03*
X36900000Y-28575000D03*
%TD*%
D14*
%TO.C,C50*%
X5150000Y-28775000D03*
X5150000Y-27225000D03*
%TD*%
D18*
%TO.C,C35*%
X35100000Y-10200000D03*
X36650000Y-10200000D03*
%TD*%
%TO.C,C36*%
X35100000Y-11900000D03*
X36650000Y-11900000D03*
%TD*%
D55*
%TO.C,U11*%
X16250000Y-14555000D03*
X16250000Y-13285000D03*
X16250000Y-12015000D03*
X16250000Y-10745000D03*
X9050000Y-10745000D03*
X9050000Y-12015000D03*
X9050000Y-13285000D03*
X9050000Y-14555000D03*
%TD*%
D56*
%TO.C,U10*%
X11350000Y-19400000D03*
X11350000Y-21700000D03*
X13650000Y-19400000D03*
X12500000Y-21700000D03*
X11350000Y-20550000D03*
X12500000Y-20550000D03*
X12500000Y-19400000D03*
X13650000Y-21700000D03*
X13650000Y-20550000D03*
D57*
X10750000Y-22987500D03*
X11250000Y-22987500D03*
X11750000Y-22987500D03*
X12250000Y-22987500D03*
X12750000Y-22987500D03*
X13250000Y-22987500D03*
X13750000Y-22987500D03*
X14250000Y-22987500D03*
D58*
X14937500Y-22300000D03*
X14937500Y-21800000D03*
X14937500Y-21300000D03*
X14937500Y-20800000D03*
X14937500Y-20300000D03*
X14937500Y-19800000D03*
X14937500Y-19300000D03*
X14937500Y-18800000D03*
D57*
X14250000Y-18112500D03*
X13750000Y-18112500D03*
X13250000Y-18112500D03*
X12750000Y-18112500D03*
X12250000Y-18112500D03*
X11750000Y-18112500D03*
X11250000Y-18112500D03*
X10750000Y-18112500D03*
D58*
X10062500Y-18800000D03*
X10062500Y-19300000D03*
X10062500Y-19800000D03*
X10062500Y-20300000D03*
X10062500Y-20800000D03*
X10062500Y-21300000D03*
X10062500Y-21800000D03*
X10062500Y-22300000D03*
%TD*%
D38*
%TO.C,L5*%
X5712500Y-24000000D03*
X7287500Y-24000000D03*
%TD*%
D16*
%TO.C,D5*%
X18450000Y-3275000D03*
X18450000Y-4850000D03*
%TD*%
D24*
%TO.C,R10*%
X44175000Y-32800000D03*
X45825000Y-32800000D03*
%TD*%
D12*
%TO.C,R3*%
X34475000Y-23250000D03*
X32825000Y-23250000D03*
%TD*%
D19*
%TO.C,D4*%
X22300000Y-4800000D03*
X22300000Y-3225000D03*
%TD*%
D59*
%TO.C,D7*%
X19900000Y-33000000D03*
X19900000Y-35800000D03*
%TD*%
D24*
%TO.C,R4*%
X24100000Y-23250000D03*
X25750000Y-23250000D03*
%TD*%
D13*
%TO.C,R5*%
X25400000Y-19425000D03*
X25400000Y-21075000D03*
%TD*%
D12*
%TO.C,R6*%
X34480000Y-25000000D03*
X32830000Y-25000000D03*
%TD*%
D24*
%TO.C,R7*%
X24100000Y-25000000D03*
X25750000Y-25000000D03*
%TD*%
D18*
%TO.C,C47*%
X14975000Y-41250000D03*
X16525000Y-41250000D03*
%TD*%
D13*
%TO.C,R2*%
X14300000Y-6500000D03*
X14300000Y-8150000D03*
%TD*%
%TO.C,R8*%
X27150000Y-19425000D03*
X27150000Y-21075000D03*
%TD*%
D28*
%TO.C,R21*%
X19100000Y-8150000D03*
X19100000Y-6500000D03*
%TD*%
D17*
%TO.C,C1*%
X41975000Y-22200000D03*
X40425000Y-22200000D03*
%TD*%
D14*
%TO.C,C24*%
X56400000Y-18650000D03*
X56400000Y-17100000D03*
%TD*%
D60*
%TO.C,J6*%
X5950000Y-14425000D03*
X5950000Y-13175000D03*
D61*
X2600000Y-16275000D03*
X2600000Y-11325000D03*
%TD*%
D28*
%TO.C,R1*%
X15900000Y-8150000D03*
X15900000Y-6500000D03*
%TD*%
D14*
%TO.C,C26*%
X40050000Y-43350000D03*
X40050000Y-41800000D03*
%TD*%
D18*
%TO.C,C27*%
X19425000Y-31200000D03*
X20975000Y-31200000D03*
%TD*%
%TO.C,C28*%
X19450000Y-27600000D03*
X21000000Y-27600000D03*
%TD*%
%TO.C,C20*%
X43750000Y-20500000D03*
X45300000Y-20500000D03*
%TD*%
%TO.C,C17*%
X44225000Y-31150000D03*
X45775000Y-31150000D03*
%TD*%
D39*
%TO.C,L2*%
X23750000Y-31750000D03*
X26050000Y-31750000D03*
%TD*%
D14*
%TO.C,C37*%
X63475000Y-27400000D03*
X63475000Y-25850000D03*
%TD*%
D62*
%TO.C,J2*%
X4462500Y-34700000D03*
X4462500Y-35350000D03*
X4462500Y-36000000D03*
X4462500Y-36650000D03*
X4462500Y-37300000D03*
D63*
X1762500Y-37000000D03*
X1762500Y-35000000D03*
%TD*%
D15*
%TO.C,C51*%
X16500000Y-23475000D03*
X16500000Y-25025000D03*
%TD*%
D18*
%TO.C,C5*%
X24100000Y-28500000D03*
X25650000Y-28500000D03*
%TD*%
D24*
%TO.C,R30*%
X10600000Y-16500000D03*
X12250000Y-16500000D03*
%TD*%
D15*
%TO.C,C41*%
X4250000Y-24000000D03*
X4250000Y-25550000D03*
%TD*%
D30*
%TO.C,L3*%
X33650000Y-19000000D03*
X33650000Y-21300000D03*
%TD*%
D16*
%TO.C,D3*%
X20400000Y-3300000D03*
X20400000Y-4875000D03*
%TD*%
D14*
%TO.C,C38*%
X61900000Y-27400000D03*
X61900000Y-25850000D03*
%TD*%
D24*
%TO.C,R19*%
X40375000Y-23800000D03*
X42025000Y-23800000D03*
%TD*%
D18*
%TO.C,C22*%
X62225000Y-31900000D03*
X63775000Y-31900000D03*
%TD*%
%TO.C,C23*%
X65400000Y-31900000D03*
X66950000Y-31900000D03*
%TD*%
D64*
%TO.C,C33*%
X50700000Y-34800000D03*
X50700000Y-36700000D03*
%TD*%
M02*
