%TF.GenerationSoftware,KiCad,Pcbnew,(5.99.0-8778-g8571687f51)*%
%TF.CreationDate,2021-02-03T12:08:05+08:00*%
%TF.ProjectId,lightboard-zero,6c696768-7462-46f6-9172-642d7a65726f,rev?*%
%TF.SameCoordinates,Original*%
%TF.FileFunction,Legend,Top*%
%TF.FilePolarity,Positive*%
%FSLAX46Y46*%
G04 Gerber Fmt 4.6, Leading zero omitted, Abs format (unit mm)*
G04 Created by KiCad (PCBNEW (5.99.0-8778-g8571687f51)) date 2021-02-03 12:08:05*
%MOMM*%
%LPD*%
G01*
G04 APERTURE LIST*
%ADD10C,0.120000*%
%ADD11C,0.152400*%
%ADD12C,0.150000*%
%ADD13C,0.300000*%
%ADD14C,0.010000*%
%ADD15C,0.254000*%
G04 APERTURE END LIST*
D10*
X7200000Y-40300000D02*
X7200000Y-32900000D01*
X17600000Y-40300000D02*
X7200000Y-40300000D01*
X17600000Y-32900000D02*
X17600000Y-40300000D01*
X7200000Y-32900000D02*
X17600000Y-32900000D01*
X9300000Y-23750000D02*
X9300000Y-17350000D01*
X15700000Y-23750000D02*
X9300000Y-23750000D01*
X15700000Y-17350000D02*
X15700000Y-23750000D01*
X9300000Y-17350000D02*
X15700000Y-17350000D01*
X27100000Y-28300000D02*
X27100000Y-24000000D01*
X31400000Y-28300000D02*
X27100000Y-28300000D01*
X31400000Y-24000000D02*
X31400000Y-28300000D01*
X27100000Y-24000000D02*
X31400000Y-24000000D01*
X48500000Y-33500000D02*
X48500000Y-22500000D01*
X48500000Y-22500000D02*
X59500000Y-22500000D01*
X59500000Y-33500000D02*
X48500000Y-33500000D01*
X59500000Y-22500000D02*
X59500000Y-33500000D01*
D11*
X3993933Y-29836971D02*
X3993933Y-29425733D01*
X4240676Y-29919219D02*
X3377076Y-29631352D01*
X4240676Y-29343485D01*
X4240676Y-29055619D02*
X3377076Y-29055619D01*
X4240676Y-28562133D01*
X3377076Y-28562133D01*
X3377076Y-28274266D02*
X3377076Y-27780780D01*
X4240676Y-28027523D02*
X3377076Y-28027523D01*
X27077971Y-23740676D02*
X27077971Y-22877076D01*
X27406961Y-22877076D01*
X27489209Y-22918200D01*
X27530333Y-22959323D01*
X27571457Y-23041571D01*
X27571457Y-23164942D01*
X27530333Y-23247190D01*
X27489209Y-23288314D01*
X27406961Y-23329438D01*
X27077971Y-23329438D01*
X27941571Y-23740676D02*
X27941571Y-22877076D01*
X28229438Y-23493933D01*
X28517304Y-22877076D01*
X28517304Y-23740676D01*
X28928542Y-22877076D02*
X28928542Y-23576180D01*
X28969666Y-23658428D01*
X29010790Y-23699552D01*
X29093038Y-23740676D01*
X29257533Y-23740676D01*
X29339780Y-23699552D01*
X29380904Y-23658428D01*
X29422028Y-23576180D01*
X29422028Y-22877076D01*
X48469095Y-22249552D02*
X48592466Y-22290676D01*
X48798085Y-22290676D01*
X48880333Y-22249552D01*
X48921457Y-22208428D01*
X48962580Y-22126180D01*
X48962580Y-22043933D01*
X48921457Y-21961685D01*
X48880333Y-21920561D01*
X48798085Y-21879438D01*
X48633590Y-21838314D01*
X48551342Y-21797190D01*
X48510219Y-21756066D01*
X48469095Y-21673819D01*
X48469095Y-21591571D01*
X48510219Y-21509323D01*
X48551342Y-21468200D01*
X48633590Y-21427076D01*
X48839209Y-21427076D01*
X48962580Y-21468200D01*
X49497190Y-21427076D02*
X49661685Y-21427076D01*
X49743933Y-21468200D01*
X49826180Y-21550447D01*
X49867304Y-21714942D01*
X49867304Y-22002809D01*
X49826180Y-22167304D01*
X49743933Y-22249552D01*
X49661685Y-22290676D01*
X49497190Y-22290676D01*
X49414942Y-22249552D01*
X49332695Y-22167304D01*
X49291571Y-22002809D01*
X49291571Y-21714942D01*
X49332695Y-21550447D01*
X49414942Y-21468200D01*
X49497190Y-21427076D01*
X50730904Y-22208428D02*
X50689780Y-22249552D01*
X50566409Y-22290676D01*
X50484161Y-22290676D01*
X50360790Y-22249552D01*
X50278542Y-22167304D01*
X50237419Y-22085057D01*
X50196295Y-21920561D01*
X50196295Y-21797190D01*
X50237419Y-21632695D01*
X50278542Y-21550447D01*
X50360790Y-21468200D01*
X50484161Y-21427076D01*
X50566409Y-21427076D01*
X50689780Y-21468200D01*
X50730904Y-21509323D01*
X19619047Y-1061904D02*
X19771428Y-1061904D01*
X19847619Y-1100000D01*
X19923809Y-1176190D01*
X19961904Y-1328571D01*
X19961904Y-1595238D01*
X19923809Y-1747619D01*
X19847619Y-1823809D01*
X19771428Y-1861904D01*
X19619047Y-1861904D01*
X19542857Y-1823809D01*
X19466666Y-1747619D01*
X19428571Y-1595238D01*
X19428571Y-1328571D01*
X19466666Y-1176190D01*
X19542857Y-1100000D01*
X19619047Y-1061904D01*
X20190476Y-1061904D02*
X20647619Y-1061904D01*
X20419047Y-1861904D02*
X20419047Y-1061904D01*
X21333333Y-1100000D02*
X21257142Y-1061904D01*
X21142857Y-1061904D01*
X21028571Y-1100000D01*
X20952380Y-1176190D01*
X20914285Y-1252380D01*
X20876190Y-1404761D01*
X20876190Y-1519047D01*
X20914285Y-1671428D01*
X20952380Y-1747619D01*
X21028571Y-1823809D01*
X21142857Y-1861904D01*
X21219047Y-1861904D01*
X21333333Y-1823809D01*
X21371428Y-1785714D01*
X21371428Y-1519047D01*
X21219047Y-1519047D01*
D12*
X21440476Y-20202380D02*
X21440476Y-19202380D01*
X22011904Y-20202380D01*
X22011904Y-19202380D01*
X22678571Y-19202380D02*
X22869047Y-19202380D01*
X22964285Y-19250000D01*
X23059523Y-19345238D01*
X23107142Y-19535714D01*
X23107142Y-19869047D01*
X23059523Y-20059523D01*
X22964285Y-20154761D01*
X22869047Y-20202380D01*
X22678571Y-20202380D01*
X22583333Y-20154761D01*
X22488095Y-20059523D01*
X22440476Y-19869047D01*
X22440476Y-19535714D01*
X22488095Y-19345238D01*
X22583333Y-19250000D01*
X22678571Y-19202380D01*
X24107142Y-20202380D02*
X23773809Y-19726190D01*
X23535714Y-20202380D02*
X23535714Y-19202380D01*
X23916666Y-19202380D01*
X24011904Y-19250000D01*
X24059523Y-19297619D01*
X24107142Y-19392857D01*
X24107142Y-19535714D01*
X24059523Y-19630952D01*
X24011904Y-19678571D01*
X23916666Y-19726190D01*
X23535714Y-19726190D01*
X21661904Y-37866666D02*
X22138095Y-37866666D01*
X21566666Y-38152380D02*
X21900000Y-37152380D01*
X22233333Y-38152380D01*
X22566666Y-37152380D02*
X22566666Y-37961904D01*
X22614285Y-38057142D01*
X22661904Y-38104761D01*
X22757142Y-38152380D01*
X22947619Y-38152380D01*
X23042857Y-38104761D01*
X23090476Y-38057142D01*
X23138095Y-37961904D01*
X23138095Y-37152380D01*
X23519047Y-37152380D02*
X24185714Y-38152380D01*
X24185714Y-37152380D02*
X23519047Y-38152380D01*
X22328571Y-24957142D02*
X22376190Y-24814285D01*
X22423809Y-24766666D01*
X22519047Y-24719047D01*
X22661904Y-24719047D01*
X22757142Y-24766666D01*
X22804761Y-24814285D01*
X22852380Y-24909523D01*
X22852380Y-25290476D01*
X21852380Y-25290476D01*
X21852380Y-24957142D01*
X21900000Y-24861904D01*
X21947619Y-24814285D01*
X22042857Y-24766666D01*
X22138095Y-24766666D01*
X22233333Y-24814285D01*
X22280952Y-24861904D01*
X22328571Y-24957142D01*
X22328571Y-25290476D01*
X21852380Y-24100000D02*
X21852380Y-23909523D01*
X21900000Y-23814285D01*
X21995238Y-23719047D01*
X22185714Y-23671428D01*
X22519047Y-23671428D01*
X22709523Y-23719047D01*
X22804761Y-23814285D01*
X22852380Y-23909523D01*
X22852380Y-24100000D01*
X22804761Y-24195238D01*
X22709523Y-24290476D01*
X22519047Y-24338095D01*
X22185714Y-24338095D01*
X21995238Y-24290476D01*
X21900000Y-24195238D01*
X21852380Y-24100000D01*
X21852380Y-23052380D02*
X21852380Y-22861904D01*
X21900000Y-22766666D01*
X21995238Y-22671428D01*
X22185714Y-22623809D01*
X22519047Y-22623809D01*
X22709523Y-22671428D01*
X22804761Y-22766666D01*
X22852380Y-22861904D01*
X22852380Y-23052380D01*
X22804761Y-23147619D01*
X22709523Y-23242857D01*
X22519047Y-23290476D01*
X22185714Y-23290476D01*
X21995238Y-23242857D01*
X21900000Y-23147619D01*
X21852380Y-23052380D01*
X21852380Y-22338095D02*
X21852380Y-21766666D01*
X22852380Y-22052380D02*
X21852380Y-22052380D01*
D11*
X46140676Y-12007533D02*
X45277076Y-12007533D01*
X45277076Y-11678542D01*
X45318200Y-11596295D01*
X45359323Y-11555171D01*
X45441571Y-11514047D01*
X45564942Y-11514047D01*
X45647190Y-11555171D01*
X45688314Y-11596295D01*
X45729438Y-11678542D01*
X45729438Y-12007533D01*
X45688314Y-10856066D02*
X45688314Y-11143933D01*
X46140676Y-11143933D02*
X45277076Y-11143933D01*
X45277076Y-10732695D01*
X45277076Y-9992466D02*
X45277076Y-10403704D01*
X45688314Y-10444828D01*
X45647190Y-10403704D01*
X45606066Y-10321457D01*
X45606066Y-10115838D01*
X45647190Y-10033590D01*
X45688314Y-9992466D01*
X45770561Y-9951342D01*
X45976180Y-9951342D01*
X46058428Y-9992466D01*
X46099552Y-10033590D01*
X46140676Y-10115838D01*
X46140676Y-10321457D01*
X46099552Y-10403704D01*
X46058428Y-10444828D01*
X43640676Y-8507533D02*
X42777076Y-8507533D01*
X42777076Y-8178542D01*
X42818200Y-8096295D01*
X42859323Y-8055171D01*
X42941571Y-8014047D01*
X43064942Y-8014047D01*
X43147190Y-8055171D01*
X43188314Y-8096295D01*
X43229438Y-8178542D01*
X43229438Y-8507533D01*
X43188314Y-7356066D02*
X43188314Y-7643933D01*
X43640676Y-7643933D02*
X42777076Y-7643933D01*
X42777076Y-7232695D01*
X43064942Y-6533590D02*
X43640676Y-6533590D01*
X42735952Y-6739209D02*
X43352809Y-6944828D01*
X43352809Y-6410219D01*
X43640676Y-12007533D02*
X42777076Y-12007533D01*
X42777076Y-11678542D01*
X42818200Y-11596295D01*
X42859323Y-11555171D01*
X42941571Y-11514047D01*
X43064942Y-11514047D01*
X43147190Y-11555171D01*
X43188314Y-11596295D01*
X43229438Y-11678542D01*
X43229438Y-12007533D01*
X43188314Y-10856066D02*
X43188314Y-11143933D01*
X43640676Y-11143933D02*
X42777076Y-11143933D01*
X42777076Y-10732695D01*
X42777076Y-10485952D02*
X42777076Y-9951342D01*
X43106066Y-10239209D01*
X43106066Y-10115838D01*
X43147190Y-10033590D01*
X43188314Y-9992466D01*
X43270561Y-9951342D01*
X43476180Y-9951342D01*
X43558428Y-9992466D01*
X43599552Y-10033590D01*
X43640676Y-10115838D01*
X43640676Y-10362580D01*
X43599552Y-10444828D01*
X43558428Y-10485952D01*
X48890676Y-12028095D02*
X48027076Y-12028095D01*
X48027076Y-11699104D01*
X48068200Y-11616857D01*
X48109323Y-11575733D01*
X48191571Y-11534609D01*
X48314942Y-11534609D01*
X48397190Y-11575733D01*
X48438314Y-11616857D01*
X48479438Y-11699104D01*
X48479438Y-12028095D01*
X48438314Y-11164495D02*
X48438314Y-10876628D01*
X48890676Y-10753257D02*
X48890676Y-11164495D01*
X48027076Y-11164495D01*
X48027076Y-10753257D01*
X48109323Y-10424266D02*
X48068200Y-10383142D01*
X48027076Y-10300895D01*
X48027076Y-10095276D01*
X48068200Y-10013028D01*
X48109323Y-9971904D01*
X48191571Y-9930780D01*
X48273819Y-9930780D01*
X48397190Y-9971904D01*
X48890676Y-10465390D01*
X48890676Y-9930780D01*
X48890676Y-8528095D02*
X48027076Y-8528095D01*
X48027076Y-8199104D01*
X48068200Y-8116857D01*
X48109323Y-8075733D01*
X48191571Y-8034609D01*
X48314942Y-8034609D01*
X48397190Y-8075733D01*
X48438314Y-8116857D01*
X48479438Y-8199104D01*
X48479438Y-8528095D01*
X48438314Y-7664495D02*
X48438314Y-7376628D01*
X48890676Y-7253257D02*
X48890676Y-7664495D01*
X48027076Y-7664495D01*
X48027076Y-7253257D01*
X48890676Y-6430780D02*
X48890676Y-6924266D01*
X48890676Y-6677523D02*
X48027076Y-6677523D01*
X48150447Y-6759771D01*
X48232695Y-6842019D01*
X48273819Y-6924266D01*
X46140676Y-8528095D02*
X45277076Y-8528095D01*
X45277076Y-8199104D01*
X45318200Y-8116857D01*
X45359323Y-8075733D01*
X45441571Y-8034609D01*
X45564942Y-8034609D01*
X45647190Y-8075733D01*
X45688314Y-8116857D01*
X45729438Y-8199104D01*
X45729438Y-8528095D01*
X45688314Y-7664495D02*
X45688314Y-7376628D01*
X46140676Y-7253257D02*
X46140676Y-7664495D01*
X45277076Y-7664495D01*
X45277076Y-7253257D01*
X45277076Y-6718647D02*
X45277076Y-6636400D01*
X45318200Y-6554152D01*
X45359323Y-6513028D01*
X45441571Y-6471904D01*
X45606066Y-6430780D01*
X45811685Y-6430780D01*
X45976180Y-6471904D01*
X46058428Y-6513028D01*
X46099552Y-6554152D01*
X46140676Y-6636400D01*
X46140676Y-6718647D01*
X46099552Y-6800895D01*
X46058428Y-6842019D01*
X45976180Y-6883142D01*
X45811685Y-6924266D01*
X45606066Y-6924266D01*
X45441571Y-6883142D01*
X45359323Y-6842019D01*
X45318200Y-6800895D01*
X45277076Y-6718647D01*
X53890676Y-8528095D02*
X53027076Y-8528095D01*
X53027076Y-8199104D01*
X53068200Y-8116857D01*
X53109323Y-8075733D01*
X53191571Y-8034609D01*
X53314942Y-8034609D01*
X53397190Y-8075733D01*
X53438314Y-8116857D01*
X53479438Y-8199104D01*
X53479438Y-8528095D01*
X53438314Y-7664495D02*
X53438314Y-7376628D01*
X53890676Y-7253257D02*
X53890676Y-7664495D01*
X53027076Y-7664495D01*
X53027076Y-7253257D01*
X53027076Y-6471904D02*
X53027076Y-6883142D01*
X53438314Y-6924266D01*
X53397190Y-6883142D01*
X53356066Y-6800895D01*
X53356066Y-6595276D01*
X53397190Y-6513028D01*
X53438314Y-6471904D01*
X53520561Y-6430780D01*
X53726180Y-6430780D01*
X53808428Y-6471904D01*
X53849552Y-6513028D01*
X53890676Y-6595276D01*
X53890676Y-6800895D01*
X53849552Y-6883142D01*
X53808428Y-6924266D01*
X51390676Y-12028095D02*
X50527076Y-12028095D01*
X50527076Y-11699104D01*
X50568200Y-11616857D01*
X50609323Y-11575733D01*
X50691571Y-11534609D01*
X50814942Y-11534609D01*
X50897190Y-11575733D01*
X50938314Y-11616857D01*
X50979438Y-11699104D01*
X50979438Y-12028095D01*
X50938314Y-11164495D02*
X50938314Y-10876628D01*
X51390676Y-10753257D02*
X51390676Y-11164495D01*
X50527076Y-11164495D01*
X50527076Y-10753257D01*
X50814942Y-10013028D02*
X51390676Y-10013028D01*
X50485952Y-10218647D02*
X51102809Y-10424266D01*
X51102809Y-9889657D01*
X51390676Y-8528095D02*
X50527076Y-8528095D01*
X50527076Y-8199104D01*
X50568200Y-8116857D01*
X50609323Y-8075733D01*
X50691571Y-8034609D01*
X50814942Y-8034609D01*
X50897190Y-8075733D01*
X50938314Y-8116857D01*
X50979438Y-8199104D01*
X50979438Y-8528095D01*
X50938314Y-7664495D02*
X50938314Y-7376628D01*
X51390676Y-7253257D02*
X51390676Y-7664495D01*
X50527076Y-7664495D01*
X50527076Y-7253257D01*
X50527076Y-6965390D02*
X50527076Y-6430780D01*
X50856066Y-6718647D01*
X50856066Y-6595276D01*
X50897190Y-6513028D01*
X50938314Y-6471904D01*
X51020561Y-6430780D01*
X51226180Y-6430780D01*
X51308428Y-6471904D01*
X51349552Y-6513028D01*
X51390676Y-6595276D01*
X51390676Y-6842019D01*
X51349552Y-6924266D01*
X51308428Y-6965390D01*
X56390676Y-12028095D02*
X55527076Y-12028095D01*
X55527076Y-11699104D01*
X55568200Y-11616857D01*
X55609323Y-11575733D01*
X55691571Y-11534609D01*
X55814942Y-11534609D01*
X55897190Y-11575733D01*
X55938314Y-11616857D01*
X55979438Y-11699104D01*
X55979438Y-12028095D01*
X55938314Y-11164495D02*
X55938314Y-10876628D01*
X56390676Y-10753257D02*
X56390676Y-11164495D01*
X55527076Y-11164495D01*
X55527076Y-10753257D01*
X55897190Y-10259771D02*
X55856066Y-10342019D01*
X55814942Y-10383142D01*
X55732695Y-10424266D01*
X55691571Y-10424266D01*
X55609323Y-10383142D01*
X55568200Y-10342019D01*
X55527076Y-10259771D01*
X55527076Y-10095276D01*
X55568200Y-10013028D01*
X55609323Y-9971904D01*
X55691571Y-9930780D01*
X55732695Y-9930780D01*
X55814942Y-9971904D01*
X55856066Y-10013028D01*
X55897190Y-10095276D01*
X55897190Y-10259771D01*
X55938314Y-10342019D01*
X55979438Y-10383142D01*
X56061685Y-10424266D01*
X56226180Y-10424266D01*
X56308428Y-10383142D01*
X56349552Y-10342019D01*
X56390676Y-10259771D01*
X56390676Y-10095276D01*
X56349552Y-10013028D01*
X56308428Y-9971904D01*
X56226180Y-9930780D01*
X56061685Y-9930780D01*
X55979438Y-9971904D01*
X55938314Y-10013028D01*
X55897190Y-10095276D01*
X56390676Y-8528095D02*
X55527076Y-8528095D01*
X55527076Y-8199104D01*
X55568200Y-8116857D01*
X55609323Y-8075733D01*
X55691571Y-8034609D01*
X55814942Y-8034609D01*
X55897190Y-8075733D01*
X55938314Y-8116857D01*
X55979438Y-8199104D01*
X55979438Y-8528095D01*
X55938314Y-7664495D02*
X55938314Y-7376628D01*
X56390676Y-7253257D02*
X56390676Y-7664495D01*
X55527076Y-7664495D01*
X55527076Y-7253257D01*
X55527076Y-6965390D02*
X55527076Y-6389657D01*
X56390676Y-6759771D01*
X53890676Y-12028095D02*
X53027076Y-12028095D01*
X53027076Y-11699104D01*
X53068200Y-11616857D01*
X53109323Y-11575733D01*
X53191571Y-11534609D01*
X53314942Y-11534609D01*
X53397190Y-11575733D01*
X53438314Y-11616857D01*
X53479438Y-11699104D01*
X53479438Y-12028095D01*
X53438314Y-11164495D02*
X53438314Y-10876628D01*
X53890676Y-10753257D02*
X53890676Y-11164495D01*
X53027076Y-11164495D01*
X53027076Y-10753257D01*
X53027076Y-10013028D02*
X53027076Y-10177523D01*
X53068200Y-10259771D01*
X53109323Y-10300895D01*
X53232695Y-10383142D01*
X53397190Y-10424266D01*
X53726180Y-10424266D01*
X53808428Y-10383142D01*
X53849552Y-10342019D01*
X53890676Y-10259771D01*
X53890676Y-10095276D01*
X53849552Y-10013028D01*
X53808428Y-9971904D01*
X53726180Y-9930780D01*
X53520561Y-9930780D01*
X53438314Y-9971904D01*
X53397190Y-10013028D01*
X53356066Y-10095276D01*
X53356066Y-10259771D01*
X53397190Y-10342019D01*
X53438314Y-10383142D01*
X53520561Y-10424266D01*
X61390676Y-12439333D02*
X60527076Y-12439333D01*
X60527076Y-12110342D01*
X60568200Y-12028095D01*
X60609323Y-11986971D01*
X60691571Y-11945847D01*
X60814942Y-11945847D01*
X60897190Y-11986971D01*
X60938314Y-12028095D01*
X60979438Y-12110342D01*
X60979438Y-12439333D01*
X60938314Y-11575733D02*
X60938314Y-11287866D01*
X61390676Y-11164495D02*
X61390676Y-11575733D01*
X60527076Y-11575733D01*
X60527076Y-11164495D01*
X61390676Y-10342019D02*
X61390676Y-10835504D01*
X61390676Y-10588761D02*
X60527076Y-10588761D01*
X60650447Y-10671009D01*
X60732695Y-10753257D01*
X60773819Y-10835504D01*
X60609323Y-10013028D02*
X60568200Y-9971904D01*
X60527076Y-9889657D01*
X60527076Y-9684038D01*
X60568200Y-9601790D01*
X60609323Y-9560666D01*
X60691571Y-9519542D01*
X60773819Y-9519542D01*
X60897190Y-9560666D01*
X61390676Y-10054152D01*
X61390676Y-9519542D01*
X58890676Y-8528095D02*
X58027076Y-8528095D01*
X58027076Y-8199104D01*
X58068200Y-8116857D01*
X58109323Y-8075733D01*
X58191571Y-8034609D01*
X58314942Y-8034609D01*
X58397190Y-8075733D01*
X58438314Y-8116857D01*
X58479438Y-8199104D01*
X58479438Y-8528095D01*
X58438314Y-7664495D02*
X58438314Y-7376628D01*
X58890676Y-7253257D02*
X58890676Y-7664495D01*
X58027076Y-7664495D01*
X58027076Y-7253257D01*
X58890676Y-6842019D02*
X58890676Y-6677523D01*
X58849552Y-6595276D01*
X58808428Y-6554152D01*
X58685057Y-6471904D01*
X58520561Y-6430780D01*
X58191571Y-6430780D01*
X58109323Y-6471904D01*
X58068200Y-6513028D01*
X58027076Y-6595276D01*
X58027076Y-6759771D01*
X58068200Y-6842019D01*
X58109323Y-6883142D01*
X58191571Y-6924266D01*
X58397190Y-6924266D01*
X58479438Y-6883142D01*
X58520561Y-6842019D01*
X58561685Y-6759771D01*
X58561685Y-6595276D01*
X58520561Y-6513028D01*
X58479438Y-6471904D01*
X58397190Y-6430780D01*
X58890676Y-12439333D02*
X58027076Y-12439333D01*
X58027076Y-12110342D01*
X58068200Y-12028095D01*
X58109323Y-11986971D01*
X58191571Y-11945847D01*
X58314942Y-11945847D01*
X58397190Y-11986971D01*
X58438314Y-12028095D01*
X58479438Y-12110342D01*
X58479438Y-12439333D01*
X58438314Y-11575733D02*
X58438314Y-11287866D01*
X58890676Y-11164495D02*
X58890676Y-11575733D01*
X58027076Y-11575733D01*
X58027076Y-11164495D01*
X58890676Y-10342019D02*
X58890676Y-10835504D01*
X58890676Y-10588761D02*
X58027076Y-10588761D01*
X58150447Y-10671009D01*
X58232695Y-10753257D01*
X58273819Y-10835504D01*
X58027076Y-9807409D02*
X58027076Y-9725161D01*
X58068200Y-9642914D01*
X58109323Y-9601790D01*
X58191571Y-9560666D01*
X58356066Y-9519542D01*
X58561685Y-9519542D01*
X58726180Y-9560666D01*
X58808428Y-9601790D01*
X58849552Y-9642914D01*
X58890676Y-9725161D01*
X58890676Y-9807409D01*
X58849552Y-9889657D01*
X58808428Y-9930780D01*
X58726180Y-9971904D01*
X58561685Y-10013028D01*
X58356066Y-10013028D01*
X58191571Y-9971904D01*
X58109323Y-9930780D01*
X58068200Y-9889657D01*
X58027076Y-9807409D01*
X38930780Y-18277076D02*
X39465390Y-18277076D01*
X39177523Y-18606066D01*
X39300895Y-18606066D01*
X39383142Y-18647190D01*
X39424266Y-18688314D01*
X39465390Y-18770561D01*
X39465390Y-18976180D01*
X39424266Y-19058428D01*
X39383142Y-19099552D01*
X39300895Y-19140676D01*
X39054152Y-19140676D01*
X38971904Y-19099552D01*
X38930780Y-19058428D01*
X39712133Y-18277076D02*
X40000000Y-19140676D01*
X40287866Y-18277076D01*
X40493485Y-18277076D02*
X41028095Y-18277076D01*
X40740228Y-18606066D01*
X40863600Y-18606066D01*
X40945847Y-18647190D01*
X40986971Y-18688314D01*
X41028095Y-18770561D01*
X41028095Y-18976180D01*
X40986971Y-19058428D01*
X40945847Y-19099552D01*
X40863600Y-19140676D01*
X40616857Y-19140676D01*
X40534609Y-19099552D01*
X40493485Y-19058428D01*
X53403704Y-43390676D02*
X53115838Y-42979438D01*
X52910219Y-43390676D02*
X52910219Y-42527076D01*
X53239209Y-42527076D01*
X53321457Y-42568200D01*
X53362580Y-42609323D01*
X53403704Y-42691571D01*
X53403704Y-42814942D01*
X53362580Y-42897190D01*
X53321457Y-42938314D01*
X53239209Y-42979438D01*
X52910219Y-42979438D01*
X54226180Y-42568200D02*
X54143933Y-42527076D01*
X54020561Y-42527076D01*
X53897190Y-42568200D01*
X53814942Y-42650447D01*
X53773819Y-42732695D01*
X53732695Y-42897190D01*
X53732695Y-43020561D01*
X53773819Y-43185057D01*
X53814942Y-43267304D01*
X53897190Y-43349552D01*
X54020561Y-43390676D01*
X54102809Y-43390676D01*
X54226180Y-43349552D01*
X54267304Y-43308428D01*
X54267304Y-43020561D01*
X54102809Y-43020561D01*
X54925285Y-42938314D02*
X55048657Y-42979438D01*
X55089780Y-43020561D01*
X55130904Y-43102809D01*
X55130904Y-43226180D01*
X55089780Y-43308428D01*
X55048657Y-43349552D01*
X54966409Y-43390676D01*
X54637419Y-43390676D01*
X54637419Y-42527076D01*
X54925285Y-42527076D01*
X55007533Y-42568200D01*
X55048657Y-42609323D01*
X55089780Y-42691571D01*
X55089780Y-42773819D01*
X55048657Y-42856066D01*
X55007533Y-42897190D01*
X54925285Y-42938314D01*
X54637419Y-42938314D01*
D12*
X26809523Y-37047619D02*
X26857142Y-37000000D01*
X26952380Y-36952380D01*
X27190476Y-36952380D01*
X27285714Y-37000000D01*
X27333333Y-37047619D01*
X27380952Y-37142857D01*
X27380952Y-37238095D01*
X27333333Y-37380952D01*
X26761904Y-37952380D01*
X27380952Y-37952380D01*
X27666666Y-36952380D02*
X28000000Y-37952380D01*
X28333333Y-36952380D01*
X29142857Y-36952380D02*
X28666666Y-36952380D01*
X28619047Y-37428571D01*
X28666666Y-37380952D01*
X28761904Y-37333333D01*
X29000000Y-37333333D01*
X29095238Y-37380952D01*
X29142857Y-37428571D01*
X29190476Y-37523809D01*
X29190476Y-37761904D01*
X29142857Y-37857142D01*
X29095238Y-37904761D01*
X29000000Y-37952380D01*
X28761904Y-37952380D01*
X28666666Y-37904761D01*
X28619047Y-37857142D01*
D11*
X64971457Y-34477076D02*
X65464942Y-34477076D01*
X65218200Y-35340676D02*
X65218200Y-34477076D01*
X65752809Y-35340676D02*
X65752809Y-34477076D01*
X66081800Y-34477076D01*
X66164047Y-34518200D01*
X66205171Y-34559323D01*
X66246295Y-34641571D01*
X66246295Y-34764942D01*
X66205171Y-34847190D01*
X66164047Y-34888314D01*
X66081800Y-34929438D01*
X65752809Y-34929438D01*
X41140676Y-8507533D02*
X40277076Y-8507533D01*
X40277076Y-8178542D01*
X40318200Y-8096295D01*
X40359323Y-8055171D01*
X40441571Y-8014047D01*
X40564942Y-8014047D01*
X40647190Y-8055171D01*
X40688314Y-8096295D01*
X40729438Y-8178542D01*
X40729438Y-8507533D01*
X40688314Y-7356066D02*
X40688314Y-7643933D01*
X41140676Y-7643933D02*
X40277076Y-7643933D01*
X40277076Y-7232695D01*
X40359323Y-6944828D02*
X40318200Y-6903704D01*
X40277076Y-6821457D01*
X40277076Y-6615838D01*
X40318200Y-6533590D01*
X40359323Y-6492466D01*
X40441571Y-6451342D01*
X40523819Y-6451342D01*
X40647190Y-6492466D01*
X41140676Y-6985952D01*
X41140676Y-6451342D01*
X41140676Y-12007533D02*
X40277076Y-12007533D01*
X40277076Y-11678542D01*
X40318200Y-11596295D01*
X40359323Y-11555171D01*
X40441571Y-11514047D01*
X40564942Y-11514047D01*
X40647190Y-11555171D01*
X40688314Y-11596295D01*
X40729438Y-11678542D01*
X40729438Y-12007533D01*
X40688314Y-10856066D02*
X40688314Y-11143933D01*
X41140676Y-11143933D02*
X40277076Y-11143933D01*
X40277076Y-10732695D01*
X41140676Y-9951342D02*
X41140676Y-10444828D01*
X41140676Y-10198085D02*
X40277076Y-10198085D01*
X40400447Y-10280333D01*
X40482695Y-10362580D01*
X40523819Y-10444828D01*
X38640676Y-8757533D02*
X37777076Y-8757533D01*
X37777076Y-8428542D01*
X37818200Y-8346295D01*
X37859323Y-8305171D01*
X37941571Y-8264047D01*
X38064942Y-8264047D01*
X38147190Y-8305171D01*
X38188314Y-8346295D01*
X38229438Y-8428542D01*
X38229438Y-8757533D01*
X38188314Y-7606066D02*
X38188314Y-7893933D01*
X38640676Y-7893933D02*
X37777076Y-7893933D01*
X37777076Y-7482695D01*
X37777076Y-6989209D02*
X37777076Y-6906961D01*
X37818200Y-6824714D01*
X37859323Y-6783590D01*
X37941571Y-6742466D01*
X38106066Y-6701342D01*
X38311685Y-6701342D01*
X38476180Y-6742466D01*
X38558428Y-6783590D01*
X38599552Y-6824714D01*
X38640676Y-6906961D01*
X38640676Y-6989209D01*
X38599552Y-7071457D01*
X38558428Y-7112580D01*
X38476180Y-7153704D01*
X38311685Y-7194828D01*
X38106066Y-7194828D01*
X37941571Y-7153704D01*
X37859323Y-7112580D01*
X37818200Y-7071457D01*
X37777076Y-6989209D01*
X1212580Y-18238314D02*
X1335952Y-18279438D01*
X1377076Y-18320561D01*
X1418200Y-18402809D01*
X1418200Y-18526180D01*
X1377076Y-18608428D01*
X1335952Y-18649552D01*
X1253704Y-18690676D01*
X924714Y-18690676D01*
X924714Y-17827076D01*
X1212580Y-17827076D01*
X1294828Y-17868200D01*
X1335952Y-17909323D01*
X1377076Y-17991571D01*
X1377076Y-18073819D01*
X1335952Y-18156066D01*
X1294828Y-18197190D01*
X1212580Y-18238314D01*
X924714Y-18238314D01*
X1747190Y-18443933D02*
X2158428Y-18443933D01*
X1664942Y-18690676D02*
X1952809Y-17827076D01*
X2240676Y-18690676D01*
X2405171Y-17827076D02*
X2898657Y-17827076D01*
X2651914Y-18690676D02*
X2651914Y-17827076D01*
X18166666Y-1861904D02*
X17900000Y-1480952D01*
X17709523Y-1861904D02*
X17709523Y-1061904D01*
X18014285Y-1061904D01*
X18090476Y-1100000D01*
X18128571Y-1138095D01*
X18166666Y-1214285D01*
X18166666Y-1328571D01*
X18128571Y-1404761D01*
X18090476Y-1442857D01*
X18014285Y-1480952D01*
X17709523Y-1480952D01*
X18433333Y-1061904D02*
X18966666Y-1861904D01*
X18966666Y-1061904D02*
X18433333Y-1861904D01*
X21776190Y-1061904D02*
X21966666Y-1861904D01*
X22119047Y-1290476D01*
X22271428Y-1861904D01*
X22461904Y-1061904D01*
X23185714Y-1861904D02*
X22728571Y-1861904D01*
X22957142Y-1861904D02*
X22957142Y-1061904D01*
X22880952Y-1176190D01*
X22804761Y-1252380D01*
X22728571Y-1290476D01*
X14328571Y-1785714D02*
X14290476Y-1823809D01*
X14176190Y-1861904D01*
X14100000Y-1861904D01*
X13985714Y-1823809D01*
X13909523Y-1747619D01*
X13871428Y-1671428D01*
X13833333Y-1519047D01*
X13833333Y-1404761D01*
X13871428Y-1252380D01*
X13909523Y-1176190D01*
X13985714Y-1100000D01*
X14100000Y-1061904D01*
X14176190Y-1061904D01*
X14290476Y-1100000D01*
X14328571Y-1138095D01*
X14671428Y-1861904D02*
X14671428Y-1061904D01*
X14671428Y-1442857D02*
X15128571Y-1442857D01*
X15128571Y-1861904D02*
X15128571Y-1061904D01*
D12*
X39171428Y-34828571D02*
X38838095Y-34828571D01*
X38838095Y-35352380D02*
X38838095Y-34352380D01*
X39314285Y-34352380D01*
X39695238Y-35352380D02*
X39695238Y-34352380D01*
X40028571Y-35066666D01*
X40361904Y-34352380D01*
X40361904Y-35352380D01*
X41409523Y-35352380D02*
X41076190Y-34876190D01*
X40838095Y-35352380D02*
X40838095Y-34352380D01*
X41219047Y-34352380D01*
X41314285Y-34400000D01*
X41361904Y-34447619D01*
X41409523Y-34542857D01*
X41409523Y-34685714D01*
X41361904Y-34780952D01*
X41314285Y-34828571D01*
X41219047Y-34876190D01*
X40838095Y-34876190D01*
X3214285Y-41557142D02*
X3166666Y-41604761D01*
X3023809Y-41652380D01*
X2928571Y-41652380D01*
X2785714Y-41604761D01*
X2690476Y-41509523D01*
X2642857Y-41414285D01*
X2595238Y-41223809D01*
X2595238Y-41080952D01*
X2642857Y-40890476D01*
X2690476Y-40795238D01*
X2785714Y-40700000D01*
X2928571Y-40652380D01*
X3023809Y-40652380D01*
X3166666Y-40700000D01*
X3214285Y-40747619D01*
X3833333Y-40652380D02*
X4023809Y-40652380D01*
X4119047Y-40700000D01*
X4214285Y-40795238D01*
X4261904Y-40985714D01*
X4261904Y-41319047D01*
X4214285Y-41509523D01*
X4119047Y-41604761D01*
X4023809Y-41652380D01*
X3833333Y-41652380D01*
X3738095Y-41604761D01*
X3642857Y-41509523D01*
X3595238Y-41319047D01*
X3595238Y-40985714D01*
X3642857Y-40795238D01*
X3738095Y-40700000D01*
X3833333Y-40652380D01*
X4690476Y-41652380D02*
X4690476Y-40652380D01*
X5023809Y-41366666D01*
X5357142Y-40652380D01*
X5357142Y-41652380D01*
X7252380Y-46876190D02*
X7252380Y-46685714D01*
X7300000Y-46590476D01*
X7395238Y-46495238D01*
X7585714Y-46447619D01*
X7919047Y-46447619D01*
X8109523Y-46495238D01*
X8204761Y-46590476D01*
X8252380Y-46685714D01*
X8252380Y-46876190D01*
X8204761Y-46971428D01*
X8109523Y-47066666D01*
X7919047Y-47114285D01*
X7585714Y-47114285D01*
X7395238Y-47066666D01*
X7300000Y-46971428D01*
X7252380Y-46876190D01*
X7252380Y-46161904D02*
X7252380Y-45590476D01*
X8252380Y-45876190D02*
X7252380Y-45876190D01*
X7300000Y-44733333D02*
X7252380Y-44828571D01*
X7252380Y-44971428D01*
X7300000Y-45114285D01*
X7395238Y-45209523D01*
X7490476Y-45257142D01*
X7680952Y-45304761D01*
X7823809Y-45304761D01*
X8014285Y-45257142D01*
X8109523Y-45209523D01*
X8204761Y-45114285D01*
X8252380Y-44971428D01*
X8252380Y-44876190D01*
X8204761Y-44733333D01*
X8157142Y-44685714D01*
X7823809Y-44685714D01*
X7823809Y-44876190D01*
X39166666Y-32928571D02*
X38833333Y-32928571D01*
X38833333Y-33452380D02*
X38833333Y-32452380D01*
X39309523Y-32452380D01*
X39690476Y-33452380D02*
X39690476Y-32452380D01*
X40023809Y-33166666D01*
X40357142Y-32452380D01*
X40357142Y-33452380D01*
X41309523Y-33452380D02*
X40833333Y-33452380D01*
X40833333Y-32452380D01*
D11*
X28390676Y-8757533D02*
X27527076Y-8757533D01*
X27527076Y-8428542D01*
X27568200Y-8346295D01*
X27609323Y-8305171D01*
X27691571Y-8264047D01*
X27814942Y-8264047D01*
X27897190Y-8305171D01*
X27938314Y-8346295D01*
X27979438Y-8428542D01*
X27979438Y-8757533D01*
X28143933Y-7935057D02*
X28143933Y-7523819D01*
X28390676Y-8017304D02*
X27527076Y-7729438D01*
X28390676Y-7441571D01*
X27527076Y-6989209D02*
X27527076Y-6906961D01*
X27568200Y-6824714D01*
X27609323Y-6783590D01*
X27691571Y-6742466D01*
X27856066Y-6701342D01*
X28061685Y-6701342D01*
X28226180Y-6742466D01*
X28308428Y-6783590D01*
X28349552Y-6824714D01*
X28390676Y-6906961D01*
X28390676Y-6989209D01*
X28349552Y-7071457D01*
X28308428Y-7112580D01*
X28226180Y-7153704D01*
X28061685Y-7194828D01*
X27856066Y-7194828D01*
X27691571Y-7153704D01*
X27609323Y-7112580D01*
X27568200Y-7071457D01*
X27527076Y-6989209D01*
X30890676Y-8757533D02*
X30027076Y-8757533D01*
X30027076Y-8428542D01*
X30068200Y-8346295D01*
X30109323Y-8305171D01*
X30191571Y-8264047D01*
X30314942Y-8264047D01*
X30397190Y-8305171D01*
X30438314Y-8346295D01*
X30479438Y-8428542D01*
X30479438Y-8757533D01*
X30643933Y-7935057D02*
X30643933Y-7523819D01*
X30890676Y-8017304D02*
X30027076Y-7729438D01*
X30890676Y-7441571D01*
X30109323Y-7194828D02*
X30068200Y-7153704D01*
X30027076Y-7071457D01*
X30027076Y-6865838D01*
X30068200Y-6783590D01*
X30109323Y-6742466D01*
X30191571Y-6701342D01*
X30273819Y-6701342D01*
X30397190Y-6742466D01*
X30890676Y-7235952D01*
X30890676Y-6701342D01*
D12*
X38511904Y-24952380D02*
X39130952Y-24952380D01*
X38797619Y-25333333D01*
X38940476Y-25333333D01*
X39035714Y-25380952D01*
X39083333Y-25428571D01*
X39130952Y-25523809D01*
X39130952Y-25761904D01*
X39083333Y-25857142D01*
X39035714Y-25904761D01*
X38940476Y-25952380D01*
X38654761Y-25952380D01*
X38559523Y-25904761D01*
X38511904Y-25857142D01*
X39416666Y-24952380D02*
X39750000Y-25952380D01*
X40083333Y-24952380D01*
X40607142Y-24952380D02*
X40702380Y-24952380D01*
X40797619Y-25000000D01*
X40845238Y-25047619D01*
X40892857Y-25142857D01*
X40940476Y-25333333D01*
X40940476Y-25571428D01*
X40892857Y-25761904D01*
X40845238Y-25857142D01*
X40797619Y-25904761D01*
X40702380Y-25952380D01*
X40607142Y-25952380D01*
X40511904Y-25904761D01*
X40464285Y-25857142D01*
X40416666Y-25761904D01*
X40369047Y-25571428D01*
X40369047Y-25333333D01*
X40416666Y-25142857D01*
X40464285Y-25047619D01*
X40511904Y-25000000D01*
X40607142Y-24952380D01*
X69452380Y-11202380D02*
X68976190Y-11535714D01*
X69452380Y-11773809D02*
X68452380Y-11773809D01*
X68452380Y-11392857D01*
X68500000Y-11297619D01*
X68547619Y-11250000D01*
X68642857Y-11202380D01*
X68785714Y-11202380D01*
X68880952Y-11250000D01*
X68928571Y-11297619D01*
X68976190Y-11392857D01*
X68976190Y-11773809D01*
X68928571Y-10773809D02*
X68928571Y-10440476D01*
X69452380Y-10297619D02*
X69452380Y-10773809D01*
X68452380Y-10773809D01*
X68452380Y-10297619D01*
X69404761Y-9916666D02*
X69452380Y-9773809D01*
X69452380Y-9535714D01*
X69404761Y-9440476D01*
X69357142Y-9392857D01*
X69261904Y-9345238D01*
X69166666Y-9345238D01*
X69071428Y-9392857D01*
X69023809Y-9440476D01*
X68976190Y-9535714D01*
X68928571Y-9726190D01*
X68880952Y-9821428D01*
X68833333Y-9869047D01*
X68738095Y-9916666D01*
X68642857Y-9916666D01*
X68547619Y-9869047D01*
X68500000Y-9821428D01*
X68452380Y-9726190D01*
X68452380Y-9488095D01*
X68500000Y-9345238D01*
X68928571Y-8916666D02*
X68928571Y-8583333D01*
X69452380Y-8440476D02*
X69452380Y-8916666D01*
X68452380Y-8916666D01*
X68452380Y-8440476D01*
X68452380Y-8154761D02*
X68452380Y-7583333D01*
X69452380Y-7869047D02*
X68452380Y-7869047D01*
D11*
X33390676Y-8819219D02*
X32527076Y-8819219D01*
X32527076Y-8490228D01*
X32568200Y-8407980D01*
X32609323Y-8366857D01*
X32691571Y-8325733D01*
X32814942Y-8325733D01*
X32897190Y-8366857D01*
X32938314Y-8407980D01*
X32979438Y-8490228D01*
X32979438Y-8819219D01*
X33308428Y-7462133D02*
X33349552Y-7503257D01*
X33390676Y-7626628D01*
X33390676Y-7708876D01*
X33349552Y-7832247D01*
X33267304Y-7914495D01*
X33185057Y-7955619D01*
X33020561Y-7996742D01*
X32897190Y-7996742D01*
X32732695Y-7955619D01*
X32650447Y-7914495D01*
X32568200Y-7832247D01*
X32527076Y-7708876D01*
X32527076Y-7626628D01*
X32568200Y-7503257D01*
X32609323Y-7462133D01*
X32527076Y-7174266D02*
X32527076Y-6639657D01*
X32856066Y-6927523D01*
X32856066Y-6804152D01*
X32897190Y-6721904D01*
X32938314Y-6680780D01*
X33020561Y-6639657D01*
X33226180Y-6639657D01*
X33308428Y-6680780D01*
X33349552Y-6721904D01*
X33390676Y-6804152D01*
X33390676Y-7050895D01*
X33349552Y-7133142D01*
X33308428Y-7174266D01*
X36140676Y-8819219D02*
X35277076Y-8819219D01*
X35277076Y-8490228D01*
X35318200Y-8407980D01*
X35359323Y-8366857D01*
X35441571Y-8325733D01*
X35564942Y-8325733D01*
X35647190Y-8366857D01*
X35688314Y-8407980D01*
X35729438Y-8490228D01*
X35729438Y-8819219D01*
X36058428Y-7462133D02*
X36099552Y-7503257D01*
X36140676Y-7626628D01*
X36140676Y-7708876D01*
X36099552Y-7832247D01*
X36017304Y-7914495D01*
X35935057Y-7955619D01*
X35770561Y-7996742D01*
X35647190Y-7996742D01*
X35482695Y-7955619D01*
X35400447Y-7914495D01*
X35318200Y-7832247D01*
X35277076Y-7708876D01*
X35277076Y-7626628D01*
X35318200Y-7503257D01*
X35359323Y-7462133D01*
X36140676Y-6639657D02*
X36140676Y-7133142D01*
X36140676Y-6886400D02*
X35277076Y-6886400D01*
X35400447Y-6968647D01*
X35482695Y-7050895D01*
X35523819Y-7133142D01*
X38640676Y-12069219D02*
X37777076Y-12069219D01*
X37777076Y-11740228D01*
X37818200Y-11657980D01*
X37859323Y-11616857D01*
X37941571Y-11575733D01*
X38064942Y-11575733D01*
X38147190Y-11616857D01*
X38188314Y-11657980D01*
X38229438Y-11740228D01*
X38229438Y-12069219D01*
X38558428Y-10712133D02*
X38599552Y-10753257D01*
X38640676Y-10876628D01*
X38640676Y-10958876D01*
X38599552Y-11082247D01*
X38517304Y-11164495D01*
X38435057Y-11205619D01*
X38270561Y-11246742D01*
X38147190Y-11246742D01*
X37982695Y-11205619D01*
X37900447Y-11164495D01*
X37818200Y-11082247D01*
X37777076Y-10958876D01*
X37777076Y-10876628D01*
X37818200Y-10753257D01*
X37859323Y-10712133D01*
X37777076Y-10177523D02*
X37777076Y-10095276D01*
X37818200Y-10013028D01*
X37859323Y-9971904D01*
X37941571Y-9930780D01*
X38106066Y-9889657D01*
X38311685Y-9889657D01*
X38476180Y-9930780D01*
X38558428Y-9971904D01*
X38599552Y-10013028D01*
X38640676Y-10095276D01*
X38640676Y-10177523D01*
X38599552Y-10259771D01*
X38558428Y-10300895D01*
X38476180Y-10342019D01*
X38311685Y-10383142D01*
X38106066Y-10383142D01*
X37941571Y-10342019D01*
X37859323Y-10300895D01*
X37818200Y-10259771D01*
X37777076Y-10177523D01*
X37215390Y-30140676D02*
X36721904Y-30140676D01*
X36968647Y-30140676D02*
X36968647Y-29277076D01*
X36886400Y-29400447D01*
X36804152Y-29482695D01*
X36721904Y-29523819D01*
X37462133Y-29277076D02*
X37750000Y-30140676D01*
X38037866Y-29277076D01*
X38778095Y-30140676D02*
X38284609Y-30140676D01*
X38531352Y-30140676D02*
X38531352Y-29277076D01*
X38449104Y-29400447D01*
X38366857Y-29482695D01*
X38284609Y-29523819D01*
X14398533Y-16277076D02*
X14604152Y-17140676D01*
X14768647Y-16523819D01*
X14933142Y-17140676D01*
X15138761Y-16277076D01*
X15467752Y-17140676D02*
X15467752Y-16277076D01*
X16166857Y-16688314D02*
X15878990Y-16688314D01*
X15878990Y-17140676D02*
X15878990Y-16277076D01*
X16290228Y-16277076D01*
X16619219Y-17140676D02*
X16619219Y-16277076D01*
X15790476Y-1061904D02*
X16247619Y-1061904D01*
X16019047Y-1861904D02*
X16019047Y-1061904D01*
X16438095Y-1061904D02*
X16971428Y-1861904D01*
X16971428Y-1061904D02*
X16438095Y-1861904D01*
D13*
X46592857Y-15878571D02*
X46592857Y-14378571D01*
X47450000Y-15878571D01*
X47450000Y-14378571D01*
X48735714Y-15807142D02*
X48592857Y-15878571D01*
X48307142Y-15878571D01*
X48164285Y-15807142D01*
X48092857Y-15664285D01*
X48092857Y-15092857D01*
X48164285Y-14950000D01*
X48307142Y-14878571D01*
X48592857Y-14878571D01*
X48735714Y-14950000D01*
X48807142Y-15092857D01*
X48807142Y-15235714D01*
X48092857Y-15378571D01*
X49664285Y-15878571D02*
X49521428Y-15807142D01*
X49450000Y-15735714D01*
X49378571Y-15592857D01*
X49378571Y-15164285D01*
X49450000Y-15021428D01*
X49521428Y-14950000D01*
X49664285Y-14878571D01*
X49878571Y-14878571D01*
X50021428Y-14950000D01*
X50092857Y-15021428D01*
X50164285Y-15164285D01*
X50164285Y-15592857D01*
X50092857Y-15735714D01*
X50021428Y-15807142D01*
X49878571Y-15878571D01*
X49664285Y-15878571D01*
X50807142Y-15878571D02*
X50807142Y-14378571D01*
X51378571Y-14378571D01*
X51521428Y-14450000D01*
X51592857Y-14521428D01*
X51664285Y-14664285D01*
X51664285Y-14878571D01*
X51592857Y-15021428D01*
X51521428Y-15092857D01*
X51378571Y-15164285D01*
X50807142Y-15164285D01*
X52307142Y-15878571D02*
X52307142Y-14878571D01*
X52307142Y-14378571D02*
X52235714Y-14450000D01*
X52307142Y-14521428D01*
X52378571Y-14450000D01*
X52307142Y-14378571D01*
X52307142Y-14521428D01*
X53021428Y-15307142D02*
X54164285Y-15307142D01*
X54878571Y-15878571D02*
X54878571Y-14378571D01*
X55735714Y-15878571D01*
X55735714Y-14378571D01*
X57092857Y-15878571D02*
X57092857Y-15092857D01*
X57021428Y-14950000D01*
X56878571Y-14878571D01*
X56592857Y-14878571D01*
X56450000Y-14950000D01*
X57092857Y-15807142D02*
X56950000Y-15878571D01*
X56592857Y-15878571D01*
X56450000Y-15807142D01*
X56378571Y-15664285D01*
X56378571Y-15521428D01*
X56450000Y-15378571D01*
X56592857Y-15307142D01*
X56950000Y-15307142D01*
X57092857Y-15235714D01*
X57807142Y-14878571D02*
X57807142Y-15878571D01*
X57807142Y-15021428D02*
X57878571Y-14950000D01*
X58021428Y-14878571D01*
X58235714Y-14878571D01*
X58378571Y-14950000D01*
X58450000Y-15092857D01*
X58450000Y-15878571D01*
X59378571Y-15878571D02*
X59235714Y-15807142D01*
X59164285Y-15735714D01*
X59092857Y-15592857D01*
X59092857Y-15164285D01*
X59164285Y-15021428D01*
X59235714Y-14950000D01*
X59378571Y-14878571D01*
X59592857Y-14878571D01*
X59735714Y-14950000D01*
X59807142Y-15021428D01*
X59878571Y-15164285D01*
X59878571Y-15592857D01*
X59807142Y-15735714D01*
X59735714Y-15807142D01*
X59592857Y-15878571D01*
X59378571Y-15878571D01*
D11*
X61390676Y-8939333D02*
X60527076Y-8939333D01*
X60527076Y-8610342D01*
X60568200Y-8528095D01*
X60609323Y-8486971D01*
X60691571Y-8445847D01*
X60814942Y-8445847D01*
X60897190Y-8486971D01*
X60938314Y-8528095D01*
X60979438Y-8610342D01*
X60979438Y-8939333D01*
X60938314Y-8075733D02*
X60938314Y-7787866D01*
X61390676Y-7664495D02*
X61390676Y-8075733D01*
X60527076Y-8075733D01*
X60527076Y-7664495D01*
X61390676Y-6842019D02*
X61390676Y-7335504D01*
X61390676Y-7088761D02*
X60527076Y-7088761D01*
X60650447Y-7171009D01*
X60732695Y-7253257D01*
X60773819Y-7335504D01*
X61390676Y-6019542D02*
X61390676Y-6513028D01*
X61390676Y-6266285D02*
X60527076Y-6266285D01*
X60650447Y-6348533D01*
X60732695Y-6430780D01*
X60773819Y-6513028D01*
D10*
%TO.C,J4*%
X35885000Y-48840000D02*
X35775000Y-48840000D01*
X61425000Y-48840000D02*
X61425000Y-49440000D01*
X61315000Y-48840000D02*
X61425000Y-48840000D01*
X38650000Y-46250000D02*
X38850000Y-46650000D01*
X35775000Y-48840000D02*
X35775000Y-49440000D01*
X38850000Y-46650000D02*
X39050000Y-46250000D01*
X39050000Y-46250000D02*
X38650000Y-46250000D01*
%TO.C,R36*%
X2137258Y-20722500D02*
X1662742Y-20722500D01*
X2137258Y-19677500D02*
X1662742Y-19677500D01*
D14*
%TO.C,REF\u002A\u002A*%
X55322094Y-38391158D02*
X55354619Y-38403736D01*
X55354619Y-38403736D02*
X55404193Y-38428712D01*
X55404193Y-38428712D02*
X55475374Y-38467876D01*
X55475374Y-38467876D02*
X55480916Y-38470988D01*
X55480916Y-38470988D02*
X55546474Y-38508476D01*
X55546474Y-38508476D02*
X55601798Y-38541319D01*
X55601798Y-38541319D02*
X55641455Y-38566205D01*
X55641455Y-38566205D02*
X55660012Y-38579820D01*
X55660012Y-38579820D02*
X55660531Y-38580487D01*
X55660531Y-38580487D02*
X55656048Y-38599390D01*
X55656048Y-38599390D02*
X55635486Y-38641605D01*
X55635486Y-38641605D02*
X55600183Y-38704832D01*
X55600183Y-38704832D02*
X55551480Y-38786772D01*
X55551480Y-38786772D02*
X55490718Y-38885122D01*
X55490718Y-38885122D02*
X55419236Y-38997585D01*
X55419236Y-38997585D02*
X55401445Y-39025165D01*
X55401445Y-39025165D02*
X55355093Y-39101699D01*
X55355093Y-39101699D02*
X55321342Y-39167556D01*
X55321342Y-39167556D02*
X55303153Y-39216782D01*
X55303153Y-39216782D02*
X55301286Y-39226507D01*
X55301286Y-39226507D02*
X55302115Y-39269312D01*
X55302115Y-39269312D02*
X55311394Y-39337209D01*
X55311394Y-39337209D02*
X55327968Y-39425843D01*
X55327968Y-39425843D02*
X55350680Y-39530859D01*
X55350680Y-39530859D02*
X55378373Y-39647902D01*
X55378373Y-39647902D02*
X55409890Y-39772616D01*
X55409890Y-39772616D02*
X55444075Y-39900645D01*
X55444075Y-39900645D02*
X55479771Y-40027634D01*
X55479771Y-40027634D02*
X55515821Y-40149228D01*
X55515821Y-40149228D02*
X55551068Y-40261072D01*
X55551068Y-40261072D02*
X55584356Y-40358810D01*
X55584356Y-40358810D02*
X55614528Y-40438087D01*
X55614528Y-40438087D02*
X55635561Y-40485122D01*
X55635561Y-40485122D02*
X55660337Y-40535225D01*
X55660337Y-40535225D02*
X55683730Y-40583168D01*
X55683730Y-40583168D02*
X55684997Y-40585793D01*
X55684997Y-40585793D02*
X55723699Y-40634220D01*
X55723699Y-40634220D02*
X55780184Y-40666828D01*
X55780184Y-40666828D02*
X55845939Y-40682454D01*
X55845939Y-40682454D02*
X55912451Y-40679937D01*
X55912451Y-40679937D02*
X55971205Y-40658114D01*
X55971205Y-40658114D02*
X56004258Y-40629382D01*
X56004258Y-40629382D02*
X56051859Y-40550583D01*
X56051859Y-40550583D02*
X56086739Y-40452378D01*
X56086739Y-40452378D02*
X56105877Y-40344779D01*
X56105877Y-40344779D02*
X56108588Y-40283780D01*
X56108588Y-40283780D02*
X56097670Y-40169935D01*
X56097670Y-40169935D02*
X56065624Y-40075660D01*
X56065624Y-40075660D02*
X56010726Y-39996379D01*
X56010726Y-39996379D02*
X55993607Y-39978733D01*
X55993607Y-39978733D02*
X55942661Y-39929235D01*
X55942661Y-39929235D02*
X55939163Y-39579362D01*
X55939163Y-39579362D02*
X55935664Y-39229489D01*
X55935664Y-39229489D02*
X56024818Y-39094531D01*
X56024818Y-39094531D02*
X56066654Y-39033445D01*
X56066654Y-39033445D02*
X56106945Y-38978493D01*
X56106945Y-38978493D02*
X56139943Y-38937336D01*
X56139943Y-38937336D02*
X56154126Y-38922192D01*
X56154126Y-38922192D02*
X56194281Y-38884810D01*
X56194281Y-38884810D02*
X56248665Y-38914098D01*
X56248665Y-38914098D02*
X56283039Y-38935084D01*
X56283039Y-38935084D02*
X56301846Y-38951378D01*
X56301846Y-38951378D02*
X56303049Y-38954307D01*
X56303049Y-38954307D02*
X56315903Y-38966728D01*
X56315903Y-38966728D02*
X56337896Y-38975977D01*
X56337896Y-38975977D02*
X56359150Y-38984313D01*
X56359150Y-38984313D02*
X56391694Y-39000149D01*
X56391694Y-39000149D02*
X56438322Y-39025033D01*
X56438322Y-39025033D02*
X56501829Y-39060509D01*
X56501829Y-39060509D02*
X56585008Y-39108123D01*
X56585008Y-39108123D02*
X56690653Y-39169422D01*
X56690653Y-39169422D02*
X56748062Y-39202932D01*
X56748062Y-39202932D02*
X56815594Y-39243071D01*
X56815594Y-39243071D02*
X56859885Y-39271659D01*
X56859885Y-39271659D02*
X56884855Y-39292039D01*
X56884855Y-39292039D02*
X56894423Y-39307553D01*
X56894423Y-39307553D02*
X56892508Y-39321546D01*
X56892508Y-39321546D02*
X56890911Y-39324796D01*
X56890911Y-39324796D02*
X56875376Y-39345266D01*
X56875376Y-39345266D02*
X56842136Y-39383665D01*
X56842136Y-39383665D02*
X56795062Y-39435696D01*
X56795062Y-39435696D02*
X56738028Y-39497066D01*
X56738028Y-39497066D02*
X56688700Y-39549090D01*
X56688700Y-39549090D02*
X56575030Y-39672567D01*
X56575030Y-39672567D02*
X56486105Y-39779591D01*
X56486105Y-39779591D02*
X56421134Y-39871240D01*
X56421134Y-39871240D02*
X56379321Y-39948588D01*
X56379321Y-39948588D02*
X56365217Y-39987866D01*
X56365217Y-39987866D02*
X56359392Y-40022249D01*
X56359392Y-40022249D02*
X56353375Y-40080899D01*
X56353375Y-40080899D02*
X56347696Y-40157117D01*
X56347696Y-40157117D02*
X56342884Y-40244202D01*
X56342884Y-40244202D02*
X56340619Y-40299268D01*
X56340619Y-40299268D02*
X56337459Y-40394464D01*
X56337459Y-40394464D02*
X56336069Y-40464062D01*
X56336069Y-40464062D02*
X56336858Y-40513409D01*
X56336858Y-40513409D02*
X56340235Y-40547854D01*
X56340235Y-40547854D02*
X56346608Y-40572743D01*
X56346608Y-40572743D02*
X56356387Y-40593425D01*
X56356387Y-40593425D02*
X56364067Y-40606053D01*
X56364067Y-40606053D02*
X56408421Y-40654726D01*
X56408421Y-40654726D02*
X56465574Y-40688645D01*
X56465574Y-40688645D02*
X56525708Y-40703438D01*
X56525708Y-40703438D02*
X56570773Y-40698086D01*
X56570773Y-40698086D02*
X56611576Y-40674930D01*
X56611576Y-40674930D02*
X56662724Y-40633462D01*
X56662724Y-40633462D02*
X56717042Y-40580912D01*
X56717042Y-40580912D02*
X56767357Y-40524516D01*
X56767357Y-40524516D02*
X56806494Y-40471505D01*
X56806494Y-40471505D02*
X56820905Y-40445889D01*
X56820905Y-40445889D02*
X56842491Y-40410814D01*
X56842491Y-40410814D02*
X56881753Y-40357389D01*
X56881753Y-40357389D02*
X56935102Y-40289789D01*
X56935102Y-40289789D02*
X56998952Y-40212190D01*
X56998952Y-40212190D02*
X57069715Y-40128768D01*
X57069715Y-40128768D02*
X57143804Y-40043698D01*
X57143804Y-40043698D02*
X57217632Y-39961155D01*
X57217632Y-39961155D02*
X57287611Y-39885316D01*
X57287611Y-39885316D02*
X57350155Y-39820356D01*
X57350155Y-39820356D02*
X57399260Y-39772669D01*
X57399260Y-39772669D02*
X57453779Y-39725032D01*
X57453779Y-39725032D02*
X57499642Y-39689908D01*
X57499642Y-39689908D02*
X57531811Y-39670949D01*
X57531811Y-39670949D02*
X57542489Y-39668864D01*
X57542489Y-39668864D02*
X57558853Y-39677274D01*
X57558853Y-39677274D02*
X57599671Y-39699846D01*
X57599671Y-39699846D02*
X57662586Y-39735224D01*
X57662586Y-39735224D02*
X57745244Y-39782054D01*
X57745244Y-39782054D02*
X57845289Y-39838981D01*
X57845289Y-39838981D02*
X57960366Y-39904649D01*
X57960366Y-39904649D02*
X58088119Y-39977703D01*
X58088119Y-39977703D02*
X58226194Y-40056788D01*
X58226194Y-40056788D02*
X58372234Y-40140548D01*
X58372234Y-40140548D02*
X58523884Y-40227629D01*
X58523884Y-40227629D02*
X58678790Y-40316676D01*
X58678790Y-40316676D02*
X58834595Y-40406332D01*
X58834595Y-40406332D02*
X58988944Y-40495243D01*
X58988944Y-40495243D02*
X59139482Y-40582054D01*
X59139482Y-40582054D02*
X59283854Y-40665409D01*
X59283854Y-40665409D02*
X59419704Y-40743954D01*
X59419704Y-40743954D02*
X59544677Y-40816333D01*
X59544677Y-40816333D02*
X59656417Y-40881190D01*
X59656417Y-40881190D02*
X59752570Y-40937171D01*
X59752570Y-40937171D02*
X59830779Y-40982920D01*
X59830779Y-40982920D02*
X59888689Y-41017083D01*
X59888689Y-41017083D02*
X59923946Y-41038304D01*
X59923946Y-41038304D02*
X59934165Y-41044963D01*
X59934165Y-41044963D02*
X59920402Y-41046280D01*
X59920402Y-41046280D02*
X59877104Y-41047559D01*
X59877104Y-41047559D02*
X59805714Y-41048796D01*
X59805714Y-41048796D02*
X59707673Y-41049983D01*
X59707673Y-41049983D02*
X59584422Y-41051115D01*
X59584422Y-41051115D02*
X59437403Y-41052186D01*
X59437403Y-41052186D02*
X59268057Y-41053189D01*
X59268057Y-41053189D02*
X59077826Y-41054119D01*
X59077826Y-41054119D02*
X58868151Y-41054968D01*
X58868151Y-41054968D02*
X58640473Y-41055732D01*
X58640473Y-41055732D02*
X58396235Y-41056403D01*
X58396235Y-41056403D02*
X58136877Y-41056976D01*
X58136877Y-41056976D02*
X57863841Y-41057444D01*
X57863841Y-41057444D02*
X57578568Y-41057802D01*
X57578568Y-41057802D02*
X57282500Y-41058042D01*
X57282500Y-41058042D02*
X56977079Y-41058159D01*
X56977079Y-41058159D02*
X56848924Y-41058171D01*
X56848924Y-41058171D02*
X53748970Y-41058171D01*
X53748970Y-41058171D02*
X53970053Y-40674847D01*
X53970053Y-40674847D02*
X54016856Y-40593680D01*
X54016856Y-40593680D02*
X54077102Y-40489166D01*
X54077102Y-40489166D02*
X54148778Y-40364801D01*
X54148778Y-40364801D02*
X54229869Y-40224082D01*
X54229869Y-40224082D02*
X54318362Y-40070503D01*
X54318362Y-40070503D02*
X54412240Y-39907562D01*
X54412240Y-39907562D02*
X54509491Y-39738754D01*
X54509491Y-39738754D02*
X54608100Y-39567575D01*
X54608100Y-39567575D02*
X54706053Y-39397521D01*
X54706053Y-39397521D02*
X54730825Y-39354512D01*
X54730825Y-39354512D02*
X54821152Y-39197857D01*
X54821152Y-39197857D02*
X54907289Y-39048803D01*
X54907289Y-39048803D02*
X54987942Y-38909568D01*
X54987942Y-38909568D02*
X55061816Y-38782371D01*
X55061816Y-38782371D02*
X55127617Y-38669432D01*
X55127617Y-38669432D02*
X55184050Y-38572968D01*
X55184050Y-38572968D02*
X55229821Y-38495200D01*
X55229821Y-38495200D02*
X55263635Y-38438346D01*
X55263635Y-38438346D02*
X55284198Y-38404625D01*
X55284198Y-38404625D02*
X55289953Y-38396040D01*
X55289953Y-38396040D02*
X55302058Y-38389189D01*
X55302058Y-38389189D02*
X55322094Y-38391158D01*
X55322094Y-38391158D02*
X55322094Y-38391158D01*
G36*
X55322094Y-38391158D02*
G01*
X55354619Y-38403736D01*
X55404193Y-38428712D01*
X55475374Y-38467876D01*
X55480916Y-38470988D01*
X55546474Y-38508476D01*
X55601798Y-38541319D01*
X55641455Y-38566205D01*
X55660012Y-38579820D01*
X55660531Y-38580487D01*
X55656048Y-38599390D01*
X55635486Y-38641605D01*
X55600183Y-38704832D01*
X55551480Y-38786772D01*
X55490718Y-38885122D01*
X55419236Y-38997585D01*
X55401445Y-39025165D01*
X55355093Y-39101699D01*
X55321342Y-39167556D01*
X55303153Y-39216782D01*
X55301286Y-39226507D01*
X55302115Y-39269312D01*
X55311394Y-39337209D01*
X55327968Y-39425843D01*
X55350680Y-39530859D01*
X55378373Y-39647902D01*
X55409890Y-39772616D01*
X55444075Y-39900645D01*
X55479771Y-40027634D01*
X55515821Y-40149228D01*
X55551068Y-40261072D01*
X55584356Y-40358810D01*
X55614528Y-40438087D01*
X55635561Y-40485122D01*
X55660337Y-40535225D01*
X55683730Y-40583168D01*
X55684997Y-40585793D01*
X55723699Y-40634220D01*
X55780184Y-40666828D01*
X55845939Y-40682454D01*
X55912451Y-40679937D01*
X55971205Y-40658114D01*
X56004258Y-40629382D01*
X56051859Y-40550583D01*
X56086739Y-40452378D01*
X56105877Y-40344779D01*
X56108588Y-40283780D01*
X56097670Y-40169935D01*
X56065624Y-40075660D01*
X56010726Y-39996379D01*
X55993607Y-39978733D01*
X55942661Y-39929235D01*
X55939163Y-39579362D01*
X55935664Y-39229489D01*
X56024818Y-39094531D01*
X56066654Y-39033445D01*
X56106945Y-38978493D01*
X56139943Y-38937336D01*
X56154126Y-38922192D01*
X56194281Y-38884810D01*
X56248665Y-38914098D01*
X56283039Y-38935084D01*
X56301846Y-38951378D01*
X56303049Y-38954307D01*
X56315903Y-38966728D01*
X56337896Y-38975977D01*
X56359150Y-38984313D01*
X56391694Y-39000149D01*
X56438322Y-39025033D01*
X56501829Y-39060509D01*
X56585008Y-39108123D01*
X56690653Y-39169422D01*
X56748062Y-39202932D01*
X56815594Y-39243071D01*
X56859885Y-39271659D01*
X56884855Y-39292039D01*
X56894423Y-39307553D01*
X56892508Y-39321546D01*
X56890911Y-39324796D01*
X56875376Y-39345266D01*
X56842136Y-39383665D01*
X56795062Y-39435696D01*
X56738028Y-39497066D01*
X56688700Y-39549090D01*
X56575030Y-39672567D01*
X56486105Y-39779591D01*
X56421134Y-39871240D01*
X56379321Y-39948588D01*
X56365217Y-39987866D01*
X56359392Y-40022249D01*
X56353375Y-40080899D01*
X56347696Y-40157117D01*
X56342884Y-40244202D01*
X56340619Y-40299268D01*
X56337459Y-40394464D01*
X56336069Y-40464062D01*
X56336858Y-40513409D01*
X56340235Y-40547854D01*
X56346608Y-40572743D01*
X56356387Y-40593425D01*
X56364067Y-40606053D01*
X56408421Y-40654726D01*
X56465574Y-40688645D01*
X56525708Y-40703438D01*
X56570773Y-40698086D01*
X56611576Y-40674930D01*
X56662724Y-40633462D01*
X56717042Y-40580912D01*
X56767357Y-40524516D01*
X56806494Y-40471505D01*
X56820905Y-40445889D01*
X56842491Y-40410814D01*
X56881753Y-40357389D01*
X56935102Y-40289789D01*
X56998952Y-40212190D01*
X57069715Y-40128768D01*
X57143804Y-40043698D01*
X57217632Y-39961155D01*
X57287611Y-39885316D01*
X57350155Y-39820356D01*
X57399260Y-39772669D01*
X57453779Y-39725032D01*
X57499642Y-39689908D01*
X57531811Y-39670949D01*
X57542489Y-39668864D01*
X57558853Y-39677274D01*
X57599671Y-39699846D01*
X57662586Y-39735224D01*
X57745244Y-39782054D01*
X57845289Y-39838981D01*
X57960366Y-39904649D01*
X58088119Y-39977703D01*
X58226194Y-40056788D01*
X58372234Y-40140548D01*
X58523884Y-40227629D01*
X58678790Y-40316676D01*
X58834595Y-40406332D01*
X58988944Y-40495243D01*
X59139482Y-40582054D01*
X59283854Y-40665409D01*
X59419704Y-40743954D01*
X59544677Y-40816333D01*
X59656417Y-40881190D01*
X59752570Y-40937171D01*
X59830779Y-40982920D01*
X59888689Y-41017083D01*
X59923946Y-41038304D01*
X59934165Y-41044963D01*
X59920402Y-41046280D01*
X59877104Y-41047559D01*
X59805714Y-41048796D01*
X59707673Y-41049983D01*
X59584422Y-41051115D01*
X59437403Y-41052186D01*
X59268057Y-41053189D01*
X59077826Y-41054119D01*
X58868151Y-41054968D01*
X58640473Y-41055732D01*
X58396235Y-41056403D01*
X58136877Y-41056976D01*
X57863841Y-41057444D01*
X57578568Y-41057802D01*
X57282500Y-41058042D01*
X56977079Y-41058159D01*
X56848924Y-41058171D01*
X53748970Y-41058171D01*
X53970053Y-40674847D01*
X54016856Y-40593680D01*
X54077102Y-40489166D01*
X54148778Y-40364801D01*
X54229869Y-40224082D01*
X54318362Y-40070503D01*
X54412240Y-39907562D01*
X54509491Y-39738754D01*
X54608100Y-39567575D01*
X54706053Y-39397521D01*
X54730825Y-39354512D01*
X54821152Y-39197857D01*
X54907289Y-39048803D01*
X54987942Y-38909568D01*
X55061816Y-38782371D01*
X55127617Y-38669432D01*
X55184050Y-38572968D01*
X55229821Y-38495200D01*
X55263635Y-38438346D01*
X55284198Y-38404625D01*
X55289953Y-38396040D01*
X55302058Y-38389189D01*
X55322094Y-38391158D01*
G37*
X55322094Y-38391158D02*
X55354619Y-38403736D01*
X55404193Y-38428712D01*
X55475374Y-38467876D01*
X55480916Y-38470988D01*
X55546474Y-38508476D01*
X55601798Y-38541319D01*
X55641455Y-38566205D01*
X55660012Y-38579820D01*
X55660531Y-38580487D01*
X55656048Y-38599390D01*
X55635486Y-38641605D01*
X55600183Y-38704832D01*
X55551480Y-38786772D01*
X55490718Y-38885122D01*
X55419236Y-38997585D01*
X55401445Y-39025165D01*
X55355093Y-39101699D01*
X55321342Y-39167556D01*
X55303153Y-39216782D01*
X55301286Y-39226507D01*
X55302115Y-39269312D01*
X55311394Y-39337209D01*
X55327968Y-39425843D01*
X55350680Y-39530859D01*
X55378373Y-39647902D01*
X55409890Y-39772616D01*
X55444075Y-39900645D01*
X55479771Y-40027634D01*
X55515821Y-40149228D01*
X55551068Y-40261072D01*
X55584356Y-40358810D01*
X55614528Y-40438087D01*
X55635561Y-40485122D01*
X55660337Y-40535225D01*
X55683730Y-40583168D01*
X55684997Y-40585793D01*
X55723699Y-40634220D01*
X55780184Y-40666828D01*
X55845939Y-40682454D01*
X55912451Y-40679937D01*
X55971205Y-40658114D01*
X56004258Y-40629382D01*
X56051859Y-40550583D01*
X56086739Y-40452378D01*
X56105877Y-40344779D01*
X56108588Y-40283780D01*
X56097670Y-40169935D01*
X56065624Y-40075660D01*
X56010726Y-39996379D01*
X55993607Y-39978733D01*
X55942661Y-39929235D01*
X55939163Y-39579362D01*
X55935664Y-39229489D01*
X56024818Y-39094531D01*
X56066654Y-39033445D01*
X56106945Y-38978493D01*
X56139943Y-38937336D01*
X56154126Y-38922192D01*
X56194281Y-38884810D01*
X56248665Y-38914098D01*
X56283039Y-38935084D01*
X56301846Y-38951378D01*
X56303049Y-38954307D01*
X56315903Y-38966728D01*
X56337896Y-38975977D01*
X56359150Y-38984313D01*
X56391694Y-39000149D01*
X56438322Y-39025033D01*
X56501829Y-39060509D01*
X56585008Y-39108123D01*
X56690653Y-39169422D01*
X56748062Y-39202932D01*
X56815594Y-39243071D01*
X56859885Y-39271659D01*
X56884855Y-39292039D01*
X56894423Y-39307553D01*
X56892508Y-39321546D01*
X56890911Y-39324796D01*
X56875376Y-39345266D01*
X56842136Y-39383665D01*
X56795062Y-39435696D01*
X56738028Y-39497066D01*
X56688700Y-39549090D01*
X56575030Y-39672567D01*
X56486105Y-39779591D01*
X56421134Y-39871240D01*
X56379321Y-39948588D01*
X56365217Y-39987866D01*
X56359392Y-40022249D01*
X56353375Y-40080899D01*
X56347696Y-40157117D01*
X56342884Y-40244202D01*
X56340619Y-40299268D01*
X56337459Y-40394464D01*
X56336069Y-40464062D01*
X56336858Y-40513409D01*
X56340235Y-40547854D01*
X56346608Y-40572743D01*
X56356387Y-40593425D01*
X56364067Y-40606053D01*
X56408421Y-40654726D01*
X56465574Y-40688645D01*
X56525708Y-40703438D01*
X56570773Y-40698086D01*
X56611576Y-40674930D01*
X56662724Y-40633462D01*
X56717042Y-40580912D01*
X56767357Y-40524516D01*
X56806494Y-40471505D01*
X56820905Y-40445889D01*
X56842491Y-40410814D01*
X56881753Y-40357389D01*
X56935102Y-40289789D01*
X56998952Y-40212190D01*
X57069715Y-40128768D01*
X57143804Y-40043698D01*
X57217632Y-39961155D01*
X57287611Y-39885316D01*
X57350155Y-39820356D01*
X57399260Y-39772669D01*
X57453779Y-39725032D01*
X57499642Y-39689908D01*
X57531811Y-39670949D01*
X57542489Y-39668864D01*
X57558853Y-39677274D01*
X57599671Y-39699846D01*
X57662586Y-39735224D01*
X57745244Y-39782054D01*
X57845289Y-39838981D01*
X57960366Y-39904649D01*
X58088119Y-39977703D01*
X58226194Y-40056788D01*
X58372234Y-40140548D01*
X58523884Y-40227629D01*
X58678790Y-40316676D01*
X58834595Y-40406332D01*
X58988944Y-40495243D01*
X59139482Y-40582054D01*
X59283854Y-40665409D01*
X59419704Y-40743954D01*
X59544677Y-40816333D01*
X59656417Y-40881190D01*
X59752570Y-40937171D01*
X59830779Y-40982920D01*
X59888689Y-41017083D01*
X59923946Y-41038304D01*
X59934165Y-41044963D01*
X59920402Y-41046280D01*
X59877104Y-41047559D01*
X59805714Y-41048796D01*
X59707673Y-41049983D01*
X59584422Y-41051115D01*
X59437403Y-41052186D01*
X59268057Y-41053189D01*
X59077826Y-41054119D01*
X58868151Y-41054968D01*
X58640473Y-41055732D01*
X58396235Y-41056403D01*
X58136877Y-41056976D01*
X57863841Y-41057444D01*
X57578568Y-41057802D01*
X57282500Y-41058042D01*
X56977079Y-41058159D01*
X56848924Y-41058171D01*
X53748970Y-41058171D01*
X53970053Y-40674847D01*
X54016856Y-40593680D01*
X54077102Y-40489166D01*
X54148778Y-40364801D01*
X54229869Y-40224082D01*
X54318362Y-40070503D01*
X54412240Y-39907562D01*
X54509491Y-39738754D01*
X54608100Y-39567575D01*
X54706053Y-39397521D01*
X54730825Y-39354512D01*
X54821152Y-39197857D01*
X54907289Y-39048803D01*
X54987942Y-38909568D01*
X55061816Y-38782371D01*
X55127617Y-38669432D01*
X55184050Y-38572968D01*
X55229821Y-38495200D01*
X55263635Y-38438346D01*
X55284198Y-38404625D01*
X55289953Y-38396040D01*
X55302058Y-38389189D01*
X55322094Y-38391158D01*
X58987528Y-38334619D02*
X58998908Y-38353693D01*
X58998908Y-38353693D02*
X59024488Y-38397421D01*
X59024488Y-38397421D02*
X59063002Y-38463619D01*
X59063002Y-38463619D02*
X59113186Y-38550102D01*
X59113186Y-38550102D02*
X59173775Y-38654685D01*
X59173775Y-38654685D02*
X59243503Y-38775183D01*
X59243503Y-38775183D02*
X59321107Y-38909412D01*
X59321107Y-38909412D02*
X59405320Y-39055187D01*
X59405320Y-39055187D02*
X59494879Y-39210323D01*
X59494879Y-39210323D02*
X59586998Y-39370000D01*
X59586998Y-39370000D02*
X59681076Y-39533117D01*
X59681076Y-39533117D02*
X59771402Y-39689709D01*
X59771402Y-39689709D02*
X59856665Y-39837506D01*
X59856665Y-39837506D02*
X59935557Y-39974240D01*
X59935557Y-39974240D02*
X60006769Y-40097642D01*
X60006769Y-40097642D02*
X60068991Y-40205444D01*
X60068991Y-40205444D02*
X60120913Y-40295377D01*
X60120913Y-40295377D02*
X60161228Y-40365173D01*
X60161228Y-40365173D02*
X60188624Y-40412564D01*
X60188624Y-40412564D02*
X60201507Y-40434786D01*
X60201507Y-40434786D02*
X60222507Y-40472330D01*
X60222507Y-40472330D02*
X60233925Y-40495831D01*
X60233925Y-40495831D02*
X60234551Y-40499920D01*
X60234551Y-40499920D02*
X60220636Y-40492242D01*
X60220636Y-40492242D02*
X60181941Y-40470203D01*
X60181941Y-40470203D02*
X60120487Y-40434971D01*
X60120487Y-40434971D02*
X60038298Y-40387711D01*
X60038298Y-40387711D02*
X59937396Y-40329589D01*
X59937396Y-40329589D02*
X59819805Y-40261771D01*
X59819805Y-40261771D02*
X59687546Y-40185424D01*
X59687546Y-40185424D02*
X59542642Y-40101714D01*
X59542642Y-40101714D02*
X59387117Y-40011806D01*
X59387117Y-40011806D02*
X59222992Y-39916867D01*
X59222992Y-39916867D02*
X59160549Y-39880732D01*
X59160549Y-39880732D02*
X58993487Y-39784083D01*
X58993487Y-39784083D02*
X58834074Y-39691938D01*
X58834074Y-39691938D02*
X58684355Y-39605475D01*
X58684355Y-39605475D02*
X58546376Y-39525871D01*
X58546376Y-39525871D02*
X58422185Y-39454305D01*
X58422185Y-39454305D02*
X58313827Y-39391955D01*
X58313827Y-39391955D02*
X58223348Y-39339998D01*
X58223348Y-39339998D02*
X58152796Y-39299613D01*
X58152796Y-39299613D02*
X58104215Y-39271978D01*
X58104215Y-39271978D02*
X58079654Y-39258272D01*
X58079654Y-39258272D02*
X58077085Y-39256974D01*
X58077085Y-39256974D02*
X58084569Y-39245220D01*
X58084569Y-39245220D02*
X58110614Y-39213795D01*
X58110614Y-39213795D02*
X58152559Y-39165594D01*
X58152559Y-39165594D02*
X58207746Y-39103510D01*
X58207746Y-39103510D02*
X58273517Y-39030439D01*
X58273517Y-39030439D02*
X58347212Y-38949276D01*
X58347212Y-38949276D02*
X58426173Y-38862916D01*
X58426173Y-38862916D02*
X58507740Y-38774253D01*
X58507740Y-38774253D02*
X58589254Y-38686182D01*
X58589254Y-38686182D02*
X58668057Y-38601599D01*
X58668057Y-38601599D02*
X58741490Y-38523397D01*
X58741490Y-38523397D02*
X58806893Y-38454472D01*
X58806893Y-38454472D02*
X58861608Y-38397719D01*
X58861608Y-38397719D02*
X58902977Y-38356032D01*
X58902977Y-38356032D02*
X58917164Y-38342363D01*
X58917164Y-38342363D02*
X58964180Y-38298201D01*
X58964180Y-38298201D02*
X58987528Y-38334619D01*
X58987528Y-38334619D02*
X58987528Y-38334619D01*
G36*
X58987528Y-38334619D02*
G01*
X58998908Y-38353693D01*
X59024488Y-38397421D01*
X59063002Y-38463619D01*
X59113186Y-38550102D01*
X59173775Y-38654685D01*
X59243503Y-38775183D01*
X59321107Y-38909412D01*
X59405320Y-39055187D01*
X59494879Y-39210323D01*
X59586998Y-39370000D01*
X59681076Y-39533117D01*
X59771402Y-39689709D01*
X59856665Y-39837506D01*
X59935557Y-39974240D01*
X60006769Y-40097642D01*
X60068991Y-40205444D01*
X60120913Y-40295377D01*
X60161228Y-40365173D01*
X60188624Y-40412564D01*
X60201507Y-40434786D01*
X60222507Y-40472330D01*
X60233925Y-40495831D01*
X60234551Y-40499920D01*
X60220636Y-40492242D01*
X60181941Y-40470203D01*
X60120487Y-40434971D01*
X60038298Y-40387711D01*
X59937396Y-40329589D01*
X59819805Y-40261771D01*
X59687546Y-40185424D01*
X59542642Y-40101714D01*
X59387117Y-40011806D01*
X59222992Y-39916867D01*
X59160549Y-39880732D01*
X58993487Y-39784083D01*
X58834074Y-39691938D01*
X58684355Y-39605475D01*
X58546376Y-39525871D01*
X58422185Y-39454305D01*
X58313827Y-39391955D01*
X58223348Y-39339998D01*
X58152796Y-39299613D01*
X58104215Y-39271978D01*
X58079654Y-39258272D01*
X58077085Y-39256974D01*
X58084569Y-39245220D01*
X58110614Y-39213795D01*
X58152559Y-39165594D01*
X58207746Y-39103510D01*
X58273517Y-39030439D01*
X58347212Y-38949276D01*
X58426173Y-38862916D01*
X58507740Y-38774253D01*
X58589254Y-38686182D01*
X58668057Y-38601599D01*
X58741490Y-38523397D01*
X58806893Y-38454472D01*
X58861608Y-38397719D01*
X58902977Y-38356032D01*
X58917164Y-38342363D01*
X58964180Y-38298201D01*
X58987528Y-38334619D01*
G37*
X58987528Y-38334619D02*
X58998908Y-38353693D01*
X59024488Y-38397421D01*
X59063002Y-38463619D01*
X59113186Y-38550102D01*
X59173775Y-38654685D01*
X59243503Y-38775183D01*
X59321107Y-38909412D01*
X59405320Y-39055187D01*
X59494879Y-39210323D01*
X59586998Y-39370000D01*
X59681076Y-39533117D01*
X59771402Y-39689709D01*
X59856665Y-39837506D01*
X59935557Y-39974240D01*
X60006769Y-40097642D01*
X60068991Y-40205444D01*
X60120913Y-40295377D01*
X60161228Y-40365173D01*
X60188624Y-40412564D01*
X60201507Y-40434786D01*
X60222507Y-40472330D01*
X60233925Y-40495831D01*
X60234551Y-40499920D01*
X60220636Y-40492242D01*
X60181941Y-40470203D01*
X60120487Y-40434971D01*
X60038298Y-40387711D01*
X59937396Y-40329589D01*
X59819805Y-40261771D01*
X59687546Y-40185424D01*
X59542642Y-40101714D01*
X59387117Y-40011806D01*
X59222992Y-39916867D01*
X59160549Y-39880732D01*
X58993487Y-39784083D01*
X58834074Y-39691938D01*
X58684355Y-39605475D01*
X58546376Y-39525871D01*
X58422185Y-39454305D01*
X58313827Y-39391955D01*
X58223348Y-39339998D01*
X58152796Y-39299613D01*
X58104215Y-39271978D01*
X58079654Y-39258272D01*
X58077085Y-39256974D01*
X58084569Y-39245220D01*
X58110614Y-39213795D01*
X58152559Y-39165594D01*
X58207746Y-39103510D01*
X58273517Y-39030439D01*
X58347212Y-38949276D01*
X58426173Y-38862916D01*
X58507740Y-38774253D01*
X58589254Y-38686182D01*
X58668057Y-38601599D01*
X58741490Y-38523397D01*
X58806893Y-38454472D01*
X58861608Y-38397719D01*
X58902977Y-38356032D01*
X58917164Y-38342363D01*
X58964180Y-38298201D01*
X58987528Y-38334619D01*
X57164043Y-35185835D02*
X57187065Y-35223245D01*
X57187065Y-35223245D02*
X57222534Y-35282514D01*
X57222534Y-35282514D02*
X57268996Y-35361118D01*
X57268996Y-35361118D02*
X57324996Y-35456538D01*
X57324996Y-35456538D02*
X57389081Y-35566250D01*
X57389081Y-35566250D02*
X57459796Y-35687734D01*
X57459796Y-35687734D02*
X57535687Y-35818468D01*
X57535687Y-35818468D02*
X57615299Y-35955930D01*
X57615299Y-35955930D02*
X57697178Y-36097598D01*
X57697178Y-36097598D02*
X57779870Y-36240951D01*
X57779870Y-36240951D02*
X57861921Y-36383467D01*
X57861921Y-36383467D02*
X57941876Y-36522624D01*
X57941876Y-36522624D02*
X58018281Y-36655901D01*
X58018281Y-36655901D02*
X58089682Y-36780776D01*
X58089682Y-36780776D02*
X58154624Y-36894727D01*
X58154624Y-36894727D02*
X58211653Y-36995233D01*
X58211653Y-36995233D02*
X58259315Y-37079772D01*
X58259315Y-37079772D02*
X58296155Y-37145822D01*
X58296155Y-37145822D02*
X58320720Y-37190862D01*
X58320720Y-37190862D02*
X58331554Y-37212370D01*
X58331554Y-37212370D02*
X58331951Y-37213714D01*
X58331951Y-37213714D02*
X58318501Y-37231965D01*
X58318501Y-37231965D02*
X58281114Y-37259882D01*
X58281114Y-37259882D02*
X58224235Y-37294725D01*
X58224235Y-37294725D02*
X58152312Y-37333754D01*
X58152312Y-37333754D02*
X58077015Y-37370843D01*
X58077015Y-37370843D02*
X57974560Y-37415817D01*
X57974560Y-37415817D02*
X57866817Y-37456226D01*
X57866817Y-37456226D02*
X57750073Y-37492969D01*
X57750073Y-37492969D02*
X57620618Y-37526942D01*
X57620618Y-37526942D02*
X57474740Y-37559044D01*
X57474740Y-37559044D02*
X57308726Y-37590173D01*
X57308726Y-37590173D02*
X57118866Y-37621227D01*
X57118866Y-37621227D02*
X56922469Y-37650145D01*
X56922469Y-37650145D02*
X56751834Y-37675800D01*
X56751834Y-37675800D02*
X56608545Y-37701198D01*
X56608545Y-37701198D02*
X56489008Y-37727602D01*
X56489008Y-37727602D02*
X56389630Y-37756273D01*
X56389630Y-37756273D02*
X56306818Y-37788473D01*
X56306818Y-37788473D02*
X56236978Y-37825465D01*
X56236978Y-37825465D02*
X56176518Y-37868512D01*
X56176518Y-37868512D02*
X56121845Y-37918875D01*
X56121845Y-37918875D02*
X56104214Y-37937583D01*
X56104214Y-37937583D02*
X56066000Y-37981139D01*
X56066000Y-37981139D02*
X56037732Y-38016682D01*
X56037732Y-38016682D02*
X56024618Y-38037583D01*
X56024618Y-38037583D02*
X56024268Y-38039297D01*
X56024268Y-38039297D02*
X56019680Y-38049806D01*
X56019680Y-38049806D02*
X56003758Y-38049924D01*
X56003758Y-38049924D02*
X55973266Y-38038254D01*
X55973266Y-38038254D02*
X55924968Y-38013396D01*
X55924968Y-38013396D02*
X55855627Y-37973952D01*
X55855627Y-37973952D02*
X55807439Y-37945587D01*
X55807439Y-37945587D02*
X55735583Y-37901247D01*
X55735583Y-37901247D02*
X55679742Y-37863279D01*
X55679742Y-37863279D02*
X55643667Y-37834416D01*
X55643667Y-37834416D02*
X55631113Y-37817388D01*
X55631113Y-37817388D02*
X55631121Y-37817264D01*
X55631121Y-37817264D02*
X55638906Y-37801037D01*
X55638906Y-37801037D02*
X55660892Y-37760400D01*
X55660892Y-37760400D02*
X55695803Y-37697567D01*
X55695803Y-37697567D02*
X55742363Y-37614752D01*
X55742363Y-37614752D02*
X55799295Y-37514172D01*
X55799295Y-37514172D02*
X55865323Y-37398040D01*
X55865323Y-37398040D02*
X55939172Y-37268571D01*
X55939172Y-37268571D02*
X56019564Y-37127980D01*
X56019564Y-37127980D02*
X56105224Y-36978482D01*
X56105224Y-36978482D02*
X56194876Y-36822292D01*
X56194876Y-36822292D02*
X56287243Y-36661624D01*
X56287243Y-36661624D02*
X56381049Y-36498693D01*
X56381049Y-36498693D02*
X56475018Y-36335713D01*
X56475018Y-36335713D02*
X56567874Y-36174900D01*
X56567874Y-36174900D02*
X56658340Y-36018468D01*
X56658340Y-36018468D02*
X56745141Y-35868633D01*
X56745141Y-35868633D02*
X56827000Y-35727608D01*
X56827000Y-35727608D02*
X56902641Y-35597609D01*
X56902641Y-35597609D02*
X56970787Y-35480849D01*
X56970787Y-35480849D02*
X57030163Y-35379545D01*
X57030163Y-35379545D02*
X57079493Y-35295911D01*
X57079493Y-35295911D02*
X57117500Y-35232162D01*
X57117500Y-35232162D02*
X57142907Y-35190511D01*
X57142907Y-35190511D02*
X57154440Y-35173175D01*
X57154440Y-35173175D02*
X57154923Y-35172805D01*
X57154923Y-35172805D02*
X57164043Y-35185835D01*
X57164043Y-35185835D02*
X57164043Y-35185835D01*
G36*
X57164043Y-35185835D02*
G01*
X57187065Y-35223245D01*
X57222534Y-35282514D01*
X57268996Y-35361118D01*
X57324996Y-35456538D01*
X57389081Y-35566250D01*
X57459796Y-35687734D01*
X57535687Y-35818468D01*
X57615299Y-35955930D01*
X57697178Y-36097598D01*
X57779870Y-36240951D01*
X57861921Y-36383467D01*
X57941876Y-36522624D01*
X58018281Y-36655901D01*
X58089682Y-36780776D01*
X58154624Y-36894727D01*
X58211653Y-36995233D01*
X58259315Y-37079772D01*
X58296155Y-37145822D01*
X58320720Y-37190862D01*
X58331554Y-37212370D01*
X58331951Y-37213714D01*
X58318501Y-37231965D01*
X58281114Y-37259882D01*
X58224235Y-37294725D01*
X58152312Y-37333754D01*
X58077015Y-37370843D01*
X57974560Y-37415817D01*
X57866817Y-37456226D01*
X57750073Y-37492969D01*
X57620618Y-37526942D01*
X57474740Y-37559044D01*
X57308726Y-37590173D01*
X57118866Y-37621227D01*
X56922469Y-37650145D01*
X56751834Y-37675800D01*
X56608545Y-37701198D01*
X56489008Y-37727602D01*
X56389630Y-37756273D01*
X56306818Y-37788473D01*
X56236978Y-37825465D01*
X56176518Y-37868512D01*
X56121845Y-37918875D01*
X56104214Y-37937583D01*
X56066000Y-37981139D01*
X56037732Y-38016682D01*
X56024618Y-38037583D01*
X56024268Y-38039297D01*
X56019680Y-38049806D01*
X56003758Y-38049924D01*
X55973266Y-38038254D01*
X55924968Y-38013396D01*
X55855627Y-37973952D01*
X55807439Y-37945587D01*
X55735583Y-37901247D01*
X55679742Y-37863279D01*
X55643667Y-37834416D01*
X55631113Y-37817388D01*
X55631121Y-37817264D01*
X55638906Y-37801037D01*
X55660892Y-37760400D01*
X55695803Y-37697567D01*
X55742363Y-37614752D01*
X55799295Y-37514172D01*
X55865323Y-37398040D01*
X55939172Y-37268571D01*
X56019564Y-37127980D01*
X56105224Y-36978482D01*
X56194876Y-36822292D01*
X56287243Y-36661624D01*
X56381049Y-36498693D01*
X56475018Y-36335713D01*
X56567874Y-36174900D01*
X56658340Y-36018468D01*
X56745141Y-35868633D01*
X56827000Y-35727608D01*
X56902641Y-35597609D01*
X56970787Y-35480849D01*
X57030163Y-35379545D01*
X57079493Y-35295911D01*
X57117500Y-35232162D01*
X57142907Y-35190511D01*
X57154440Y-35173175D01*
X57154923Y-35172805D01*
X57164043Y-35185835D01*
G37*
X57164043Y-35185835D02*
X57187065Y-35223245D01*
X57222534Y-35282514D01*
X57268996Y-35361118D01*
X57324996Y-35456538D01*
X57389081Y-35566250D01*
X57459796Y-35687734D01*
X57535687Y-35818468D01*
X57615299Y-35955930D01*
X57697178Y-36097598D01*
X57779870Y-36240951D01*
X57861921Y-36383467D01*
X57941876Y-36522624D01*
X58018281Y-36655901D01*
X58089682Y-36780776D01*
X58154624Y-36894727D01*
X58211653Y-36995233D01*
X58259315Y-37079772D01*
X58296155Y-37145822D01*
X58320720Y-37190862D01*
X58331554Y-37212370D01*
X58331951Y-37213714D01*
X58318501Y-37231965D01*
X58281114Y-37259882D01*
X58224235Y-37294725D01*
X58152312Y-37333754D01*
X58077015Y-37370843D01*
X57974560Y-37415817D01*
X57866817Y-37456226D01*
X57750073Y-37492969D01*
X57620618Y-37526942D01*
X57474740Y-37559044D01*
X57308726Y-37590173D01*
X57118866Y-37621227D01*
X56922469Y-37650145D01*
X56751834Y-37675800D01*
X56608545Y-37701198D01*
X56489008Y-37727602D01*
X56389630Y-37756273D01*
X56306818Y-37788473D01*
X56236978Y-37825465D01*
X56176518Y-37868512D01*
X56121845Y-37918875D01*
X56104214Y-37937583D01*
X56066000Y-37981139D01*
X56037732Y-38016682D01*
X56024618Y-38037583D01*
X56024268Y-38039297D01*
X56019680Y-38049806D01*
X56003758Y-38049924D01*
X55973266Y-38038254D01*
X55924968Y-38013396D01*
X55855627Y-37973952D01*
X55807439Y-37945587D01*
X55735583Y-37901247D01*
X55679742Y-37863279D01*
X55643667Y-37834416D01*
X55631113Y-37817388D01*
X55631121Y-37817264D01*
X55638906Y-37801037D01*
X55660892Y-37760400D01*
X55695803Y-37697567D01*
X55742363Y-37614752D01*
X55799295Y-37514172D01*
X55865323Y-37398040D01*
X55939172Y-37268571D01*
X56019564Y-37127980D01*
X56105224Y-36978482D01*
X56194876Y-36822292D01*
X56287243Y-36661624D01*
X56381049Y-36498693D01*
X56475018Y-36335713D01*
X56567874Y-36174900D01*
X56658340Y-36018468D01*
X56745141Y-35868633D01*
X56827000Y-35727608D01*
X56902641Y-35597609D01*
X56970787Y-35480849D01*
X57030163Y-35379545D01*
X57079493Y-35295911D01*
X57117500Y-35232162D01*
X57142907Y-35190511D01*
X57154440Y-35173175D01*
X57154923Y-35172805D01*
X57164043Y-35185835D01*
D10*
%TO.C,R38*%
X13772500Y-42537742D02*
X13772500Y-43012258D01*
X12727500Y-42537742D02*
X12727500Y-43012258D01*
%TO.C,C2*%
X55110000Y-18015580D02*
X55110000Y-17734420D01*
X54090000Y-18015580D02*
X54090000Y-17734420D01*
%TO.C,R37*%
X15962258Y-42977500D02*
X15487742Y-42977500D01*
X15962258Y-44022500D02*
X15487742Y-44022500D01*
%TO.C,C45*%
X7090000Y-7840580D02*
X7090000Y-7559420D01*
X8110000Y-7840580D02*
X8110000Y-7559420D01*
%TO.C,C9*%
X37990000Y-27659420D02*
X37990000Y-27940580D01*
X39010000Y-27659420D02*
X39010000Y-27940580D01*
%TO.C,D6*%
X17185000Y-4862500D02*
X17185000Y-2577500D01*
X15715000Y-2577500D02*
X15715000Y-4862500D01*
X17185000Y-2577500D02*
X15715000Y-2577500D01*
%TO.C,C42*%
X6640580Y-26010000D02*
X6359420Y-26010000D01*
X6640580Y-24990000D02*
X6359420Y-24990000D01*
%TO.C,C40*%
X19859420Y-37490000D02*
X20140580Y-37490000D01*
X19859420Y-38510000D02*
X20140580Y-38510000D01*
%TO.C,D1*%
X40785000Y-40835000D02*
X40785000Y-38550000D01*
X39315000Y-40835000D02*
X40785000Y-40835000D01*
X39315000Y-38550000D02*
X39315000Y-40835000D01*
%TO.C,Y2*%
X15360000Y-26675000D02*
X8960000Y-26675000D01*
X15360000Y-31725000D02*
X8960000Y-31725000D01*
X15360000Y-26675000D02*
G75*
G02*
X15360000Y-31725000I0J-2525000D01*
G01*
X8960000Y-26675000D02*
G75*
G03*
X8960000Y-31725000I0J-2525000D01*
G01*
%TO.C,C29*%
X68560000Y-24697500D02*
X68560000Y-16637500D01*
X64040000Y-24697500D02*
X68560000Y-24697500D01*
X64040000Y-16637500D02*
X64040000Y-24697500D01*
%TO.C,C30*%
X62938748Y-33215000D02*
X63461252Y-33215000D01*
X62938748Y-34685000D02*
X63461252Y-34685000D01*
%TO.C,C31*%
X62938748Y-35365000D02*
X63461252Y-35365000D01*
X62938748Y-36835000D02*
X63461252Y-36835000D01*
%TO.C,C32*%
X40738748Y-20835000D02*
X41261252Y-20835000D01*
X40738748Y-19365000D02*
X41261252Y-19365000D01*
%TO.C,J1*%
X8400000Y-45300000D02*
X8850000Y-45300000D01*
X8400000Y-47150000D02*
X8400000Y-45300000D01*
X8400000Y-49700000D02*
X8400000Y-49450000D01*
X16200000Y-45300000D02*
X15750000Y-45300000D01*
X10600000Y-44750000D02*
X10600000Y-45200000D01*
X10600000Y-44750000D02*
X11050000Y-44750000D01*
X16200000Y-49700000D02*
X16200000Y-49450000D01*
X16200000Y-47150000D02*
X16200000Y-45300000D01*
%TO.C,C3*%
X30140000Y-20084420D02*
X30140000Y-20365580D01*
X31160000Y-20084420D02*
X31160000Y-20365580D01*
%TO.C,C14*%
X30290000Y-32190580D02*
X30290000Y-31909420D01*
X31310000Y-32190580D02*
X31310000Y-31909420D01*
%TO.C,C13*%
X28740000Y-32190580D02*
X28740000Y-31909420D01*
X29760000Y-32190580D02*
X29760000Y-31909420D01*
%TO.C,C34*%
X35459420Y-41110000D02*
X35740580Y-41110000D01*
X35459420Y-40090000D02*
X35740580Y-40090000D01*
%TO.C,R35*%
X13322500Y-3762742D02*
X13322500Y-4237258D01*
X12277500Y-3762742D02*
X12277500Y-4237258D01*
%TO.C,R34*%
X9562742Y-2622500D02*
X10037258Y-2622500D01*
X9562742Y-1577500D02*
X10037258Y-1577500D01*
%TO.C,C12*%
X27190000Y-32190580D02*
X27190000Y-31909420D01*
X28210000Y-32190580D02*
X28210000Y-31909420D01*
%TO.C,R20*%
X21777500Y-7087742D02*
X21777500Y-7562258D01*
X22822500Y-7087742D02*
X22822500Y-7562258D01*
%TO.C,TP1*%
X38450000Y-19500000D02*
G75*
G03*
X38450000Y-19500000I-950000J0D01*
G01*
%TO.C,AE1*%
X3110000Y-30560000D02*
X3110000Y-23850000D01*
X390000Y-23850000D02*
X390000Y-30560000D01*
X390000Y-30560000D02*
X3110000Y-30560000D01*
%TO.C,TP2*%
X38450000Y-24500000D02*
G75*
G03*
X38450000Y-24500000I-950000J0D01*
G01*
%TO.C,U8*%
X7390000Y-41500000D02*
X7390000Y-43950000D01*
X10610000Y-43300000D02*
X10610000Y-41500000D01*
%TO.C,R27*%
X41062258Y-13077500D02*
X40587742Y-13077500D01*
X41062258Y-14122500D02*
X40587742Y-14122500D01*
%TO.C,U1*%
X42850000Y-27650000D02*
X42850000Y-30050000D01*
X39550000Y-28250000D02*
X39550000Y-30050000D01*
X39550000Y-30050000D02*
X40600000Y-30050000D01*
X42850000Y-30050000D02*
X41800000Y-30050000D01*
%TO.C,C8*%
X29410000Y-20084420D02*
X29410000Y-20365580D01*
X28390000Y-20084420D02*
X28390000Y-20365580D01*
%TO.C,C7*%
X24734420Y-26240000D02*
X25015580Y-26240000D01*
X24734420Y-27260000D02*
X25015580Y-27260000D01*
%TO.C,R22*%
X16977500Y-7562258D02*
X16977500Y-7087742D01*
X18022500Y-7562258D02*
X18022500Y-7087742D01*
%TO.C,C46*%
X25038748Y-7015000D02*
X25561252Y-7015000D01*
X25038748Y-8485000D02*
X25561252Y-8485000D01*
%TO.C,U6*%
X44410000Y-41050000D02*
X44410000Y-38600000D01*
X41190000Y-39250000D02*
X41190000Y-41050000D01*
%TO.C,U4*%
X17775000Y-11375000D02*
X18035000Y-11375000D01*
X23225000Y-14100000D02*
X23225000Y-11375000D01*
X17775000Y-14100000D02*
X17775000Y-16825000D01*
X17775000Y-14100000D02*
X17775000Y-11375000D01*
X23225000Y-16825000D02*
X22965000Y-16825000D01*
X23225000Y-14100000D02*
X23225000Y-16825000D01*
X23225000Y-11375000D02*
X22965000Y-11375000D01*
X18035000Y-16825000D02*
X18035000Y-18500000D01*
X17775000Y-16825000D02*
X18035000Y-16825000D01*
%TO.C,R31*%
X60762258Y-42377500D02*
X60287742Y-42377500D01*
X60762258Y-43422500D02*
X60287742Y-43422500D01*
%TO.C,L4*%
X45000000Y-38250000D02*
X45000000Y-39850000D01*
X48200000Y-38250000D02*
X48200000Y-39850000D01*
%TO.C,R32*%
X57562258Y-42377500D02*
X57087742Y-42377500D01*
X57562258Y-43422500D02*
X57087742Y-43422500D01*
%TO.C,U7*%
X7340000Y-36600000D02*
X7340000Y-38550000D01*
X17460000Y-36600000D02*
X17460000Y-38550000D01*
X7340000Y-36600000D02*
X7340000Y-34650000D01*
X17460000Y-36600000D02*
X17460000Y-33150000D01*
%TO.C,C25*%
X46440580Y-42360000D02*
X46159420Y-42360000D01*
X46440580Y-41340000D02*
X46159420Y-41340000D01*
%TO.C,TP3*%
X27950000Y-35400000D02*
G75*
G03*
X27950000Y-35400000I-950000J0D01*
G01*
%TO.C,R23*%
X35637742Y-16277500D02*
X36112258Y-16277500D01*
X35637742Y-17322500D02*
X36112258Y-17322500D01*
%TO.C,TP4*%
X38450000Y-31500000D02*
G75*
G03*
X38450000Y-31500000I-950000J0D01*
G01*
D15*
%TO.C,CN1*%
X32999988Y-39000010D02*
X21000012Y-39000010D01*
X21000012Y-49999988D02*
X21000012Y-39000010D01*
X31999990Y-49999988D02*
X32999988Y-49999988D01*
X22000010Y-49999988D02*
X21000012Y-49999988D01*
X32026254Y-50999986D02*
X22000010Y-50999986D01*
X29999994Y-52999982D02*
X24000006Y-52999982D01*
X29999994Y-50999986D02*
X29999994Y-52999982D01*
X32999988Y-49999988D02*
X32999988Y-39000010D01*
X31999990Y-49999988D02*
X22000010Y-49999988D01*
X24000006Y-50999986D02*
X24000006Y-52999982D01*
X22000010Y-49999988D02*
X22000010Y-50999986D01*
X32026254Y-50999986D02*
X32026254Y-49999988D01*
D10*
%TO.C,C43*%
X3690000Y-19040580D02*
X3690000Y-18759420D01*
X4710000Y-19040580D02*
X4710000Y-18759420D01*
%TO.C,C44*%
X6334420Y-17640000D02*
X6615580Y-17640000D01*
X6334420Y-18660000D02*
X6615580Y-18660000D01*
%TO.C,Y3*%
X5050000Y-23050000D02*
X8350000Y-23050000D01*
X8350000Y-23050000D02*
X8350000Y-19050000D01*
%TO.C,SW2*%
X20870000Y-21530000D02*
X20870000Y-25670000D01*
X17730000Y-21530000D02*
X18030000Y-21530000D01*
X17730000Y-25670000D02*
X17730000Y-21530000D01*
X20870000Y-25670000D02*
X20570000Y-25670000D01*
X18030000Y-25670000D02*
X17730000Y-25670000D01*
X20570000Y-21530000D02*
X20870000Y-21530000D01*
%TO.C,J5*%
X17970000Y-42120000D02*
X19300000Y-42120000D01*
X17970000Y-44720000D02*
X20630000Y-44720000D01*
X17970000Y-49860000D02*
X20630000Y-49860000D01*
X20630000Y-44720000D02*
X20630000Y-49860000D01*
X17970000Y-44720000D02*
X17970000Y-49860000D01*
X17970000Y-43450000D02*
X17970000Y-42120000D01*
%TO.C,TP15*%
X43550000Y-34400000D02*
G75*
G03*
X43550000Y-34400000I-950000J0D01*
G01*
%TO.C,TP16*%
X43550000Y-32400000D02*
G75*
G03*
X43550000Y-32400000I-950000J0D01*
G01*
%TO.C,R24*%
X35637742Y-14677500D02*
X36112258Y-14677500D01*
X35637742Y-15722500D02*
X36112258Y-15722500D01*
%TO.C,C39*%
X34340000Y-36165580D02*
X34340000Y-35884420D01*
X35360000Y-36165580D02*
X35360000Y-35884420D01*
D15*
%TO.C,MIC1*%
X32067997Y-36799881D02*
X30272013Y-36799881D01*
X33070103Y-36799881D02*
X32732003Y-36799881D01*
X29270136Y-33799887D02*
X29608515Y-33799887D01*
X33070128Y-34738519D02*
X33070128Y-35861503D01*
X33265632Y-36887384D02*
X33265632Y-37014384D01*
X29608007Y-36799881D02*
X29270136Y-36799881D01*
X32731495Y-33799887D02*
X33070128Y-33799887D01*
X33138632Y-37014384D02*
X33138632Y-36887384D01*
X29270136Y-34160897D02*
X29270136Y-33799887D01*
X30271505Y-33799887D02*
X32068505Y-33799887D01*
X29270136Y-36799881D02*
X29270136Y-36439125D01*
X29270136Y-35860919D02*
X29270136Y-34739103D01*
X33265632Y-37014384D02*
X33138632Y-37014384D01*
X33138632Y-36887384D02*
X33265632Y-36887384D01*
X33070128Y-33799887D02*
X33070128Y-34161481D01*
X33070128Y-36438541D02*
X33070128Y-36799881D01*
X31995632Y-35299884D02*
G75*
G03*
X31995632Y-35299884I-317500J0D01*
G01*
D10*
%TO.C,SW1*%
X64230000Y-15570000D02*
X64230000Y-15270000D01*
X64230000Y-12730000D02*
X64230000Y-12430000D01*
X68370000Y-15270000D02*
X68370000Y-15570000D01*
X68370000Y-15570000D02*
X64230000Y-15570000D01*
X68370000Y-12430000D02*
X68370000Y-12730000D01*
X64230000Y-12430000D02*
X68370000Y-12430000D01*
%TO.C,C15*%
X44384420Y-19460000D02*
X44665580Y-19460000D01*
X44384420Y-18440000D02*
X44665580Y-18440000D01*
%TO.C,U12*%
X9900000Y-9210000D02*
X11700000Y-9210000D01*
X11700000Y-5990000D02*
X9250000Y-5990000D01*
%TO.C,C4*%
X33815580Y-29010000D02*
X33534420Y-29010000D01*
X33815580Y-27990000D02*
X33534420Y-27990000D01*
%TO.C,C48*%
X63690580Y-40090000D02*
X63409420Y-40090000D01*
X63690580Y-41110000D02*
X63409420Y-41110000D01*
D12*
%TO.C,U13*%
X68725000Y-39925000D02*
X68725000Y-36575000D01*
X68725000Y-39925000D02*
X68425000Y-39925000D01*
X65600000Y-39925000D02*
X65600000Y-41150000D01*
X65375000Y-39925000D02*
X65600000Y-39925000D01*
X65375000Y-36575000D02*
X65675000Y-36575000D01*
X65375000Y-39925000D02*
X65375000Y-36575000D01*
X68725000Y-36575000D02*
X68425000Y-36575000D01*
D10*
%TO.C,C6*%
X33815580Y-26240000D02*
X33534420Y-26240000D01*
X33815580Y-27260000D02*
X33534420Y-27260000D01*
%TO.C,D2*%
X30412500Y-16965000D02*
X28127500Y-16965000D01*
X28127500Y-16965000D02*
X28127500Y-18435000D01*
X28127500Y-18435000D02*
X30412500Y-18435000D01*
%TO.C,C19*%
X44384420Y-21590000D02*
X44665580Y-21590000D01*
X44384420Y-22610000D02*
X44665580Y-22610000D01*
%TO.C,C16*%
X44884420Y-29110000D02*
X45165580Y-29110000D01*
X44884420Y-28090000D02*
X45165580Y-28090000D01*
%TO.C,R9*%
X44787742Y-26477500D02*
X45262258Y-26477500D01*
X44787742Y-27522500D02*
X45262258Y-27522500D01*
%TO.C,J3*%
X24110000Y-670000D02*
X62330000Y-670000D01*
X26710000Y-3270000D02*
X24110000Y-3270000D01*
X62330000Y-5870000D02*
X62330000Y-670000D01*
X25440000Y-5870000D02*
X24110000Y-5870000D01*
X24110000Y-5870000D02*
X24110000Y-4540000D01*
X26710000Y-5870000D02*
X62330000Y-5870000D01*
X26710000Y-5870000D02*
X26710000Y-3270000D01*
X24110000Y-3270000D02*
X24110000Y-670000D01*
%TO.C,L1*%
X34450000Y-30150000D02*
X32850000Y-30150000D01*
X34450000Y-33350000D02*
X32850000Y-33350000D01*
%TO.C,R28*%
X35837258Y-42922500D02*
X35362742Y-42922500D01*
X35837258Y-41877500D02*
X35362742Y-41877500D01*
%TO.C,R11*%
X41437258Y-17822500D02*
X40962742Y-17822500D01*
X41437258Y-16777500D02*
X40962742Y-16777500D01*
%TO.C,R12*%
X62762742Y-30622500D02*
X63237258Y-30622500D01*
X62762742Y-29577500D02*
X63237258Y-29577500D01*
%TO.C,R13*%
X65937742Y-29577500D02*
X66412258Y-29577500D01*
X65937742Y-30622500D02*
X66412258Y-30622500D01*
%TO.C,D9*%
X7900000Y-5385000D02*
X11785000Y-5385000D01*
X11785000Y-3115000D02*
X7900000Y-3115000D01*
X11785000Y-5385000D02*
X11785000Y-3115000D01*
%TO.C,Y1*%
X67750000Y-8000000D02*
X64450000Y-8000000D01*
X64450000Y-8000000D02*
X64450000Y-12000000D01*
%TO.C,R25*%
X35637742Y-13077500D02*
X36112258Y-13077500D01*
X35637742Y-14122500D02*
X36112258Y-14122500D01*
%TO.C,R26*%
X41062258Y-14677500D02*
X40587742Y-14677500D01*
X41062258Y-15722500D02*
X40587742Y-15722500D01*
%TO.C,L6*%
X12874721Y-25510000D02*
X13200279Y-25510000D01*
X12874721Y-24490000D02*
X13200279Y-24490000D01*
%TO.C,C21*%
X44384420Y-24210000D02*
X44665580Y-24210000D01*
X44384420Y-23190000D02*
X44665580Y-23190000D01*
%TO.C,C18*%
X44384420Y-16790000D02*
X44665580Y-16790000D01*
X44384420Y-17810000D02*
X44665580Y-17810000D01*
%TO.C,R14*%
X19762258Y-19202500D02*
X19287742Y-19202500D01*
X19762258Y-20247500D02*
X19287742Y-20247500D01*
%TO.C,R15*%
X37677500Y-42812258D02*
X37677500Y-42337742D01*
X38722500Y-42812258D02*
X38722500Y-42337742D01*
%TO.C,R16*%
X19937742Y-29922500D02*
X20412258Y-29922500D01*
X19937742Y-28877500D02*
X20412258Y-28877500D01*
%TO.C,C49*%
X2040580Y-21240000D02*
X1759420Y-21240000D01*
X2040580Y-22260000D02*
X1759420Y-22260000D01*
%TO.C,R17*%
X26412258Y-18222500D02*
X25937742Y-18222500D01*
X26412258Y-17177500D02*
X25937742Y-17177500D01*
%TO.C,D8*%
X13865000Y-3237500D02*
X13865000Y-5522500D01*
X15335000Y-5522500D02*
X15335000Y-3237500D01*
X13865000Y-5522500D02*
X15335000Y-5522500D01*
%TO.C,R33*%
X9662742Y-25522500D02*
X10137258Y-25522500D01*
X9662742Y-24477500D02*
X10137258Y-24477500D01*
%TO.C,R29*%
X35812258Y-38277500D02*
X35337742Y-38277500D01*
X35812258Y-39322500D02*
X35337742Y-39322500D01*
%TO.C,R18*%
X21222500Y-7562258D02*
X21222500Y-7087742D01*
X20177500Y-7562258D02*
X20177500Y-7087742D01*
%TO.C,U2*%
X30860000Y-24540000D02*
X30860000Y-24865000D01*
X27965000Y-27760000D02*
X27640000Y-27760000D01*
X30535000Y-27760000D02*
X30860000Y-27760000D01*
X30535000Y-24540000D02*
X30860000Y-24540000D01*
X27965000Y-24540000D02*
X27640000Y-24540000D01*
X30860000Y-27760000D02*
X30860000Y-27435000D01*
X27640000Y-27760000D02*
X27640000Y-27435000D01*
%TO.C,U5*%
X48850000Y-22850000D02*
X49400000Y-22850000D01*
X59150000Y-33150000D02*
X58600000Y-33150000D01*
X48850000Y-32600000D02*
X48850000Y-33150000D01*
X49400000Y-33150000D02*
X48850000Y-33150000D01*
X59150000Y-32600000D02*
X59150000Y-33150000D01*
X59150000Y-23400000D02*
X59150000Y-22850000D01*
X59150000Y-22850000D02*
X58600000Y-22850000D01*
X48850000Y-23400000D02*
X48850000Y-22850000D01*
D12*
X50300000Y-32000000D02*
G75*
G03*
X50300000Y-32000000I-300000J0D01*
G01*
D10*
%TO.C,C10*%
X36390000Y-27659420D02*
X36390000Y-27940580D01*
X37410000Y-27659420D02*
X37410000Y-27940580D01*
%TO.C,C50*%
X4640000Y-28140580D02*
X4640000Y-27859420D01*
X5660000Y-28140580D02*
X5660000Y-27859420D01*
%TO.C,C35*%
X35734420Y-10710000D02*
X36015580Y-10710000D01*
X35734420Y-9690000D02*
X36015580Y-9690000D01*
%TO.C,C36*%
X35734420Y-11390000D02*
X36015580Y-11390000D01*
X35734420Y-12410000D02*
X36015580Y-12410000D01*
%TO.C,U11*%
X9925000Y-9925000D02*
X9925000Y-10185000D01*
X12650000Y-9925000D02*
X15375000Y-9925000D01*
X15375000Y-9925000D02*
X15375000Y-10185000D01*
X15375000Y-15115000D02*
X17050000Y-15115000D01*
X15375000Y-15375000D02*
X15375000Y-15115000D01*
X12650000Y-15375000D02*
X9925000Y-15375000D01*
X12650000Y-15375000D02*
X15375000Y-15375000D01*
X12650000Y-9925000D02*
X9925000Y-9925000D01*
X9925000Y-15375000D02*
X9925000Y-15115000D01*
%TO.C,U10*%
X9890000Y-22685000D02*
X9890000Y-23160000D01*
X9890000Y-17940000D02*
X10365000Y-17940000D01*
X15110000Y-23160000D02*
X14635000Y-23160000D01*
X9890000Y-18415000D02*
X9890000Y-17940000D01*
X15110000Y-17940000D02*
X14635000Y-17940000D01*
X15110000Y-18415000D02*
X15110000Y-17940000D01*
X15110000Y-22685000D02*
X15110000Y-23160000D01*
%TO.C,L5*%
X6337221Y-24510000D02*
X6662779Y-24510000D01*
X6337221Y-23490000D02*
X6662779Y-23490000D01*
%TO.C,D5*%
X17715000Y-2577500D02*
X17715000Y-4862500D01*
X19185000Y-2577500D02*
X17715000Y-2577500D01*
X19185000Y-4862500D02*
X19185000Y-2577500D01*
%TO.C,R10*%
X44762742Y-33322500D02*
X45237258Y-33322500D01*
X44762742Y-32277500D02*
X45237258Y-32277500D01*
%TO.C,R3*%
X33887258Y-22727500D02*
X33412742Y-22727500D01*
X33887258Y-23772500D02*
X33412742Y-23772500D01*
%TO.C,D4*%
X21565000Y-5497500D02*
X23035000Y-5497500D01*
X21565000Y-3212500D02*
X21565000Y-5497500D01*
X23035000Y-5497500D02*
X23035000Y-3212500D01*
%TO.C,D7*%
X18765000Y-32115000D02*
X18765000Y-36000000D01*
X21035000Y-32115000D02*
X18765000Y-32115000D01*
X21035000Y-36000000D02*
X21035000Y-32115000D01*
%TO.C,R4*%
X24687742Y-23772500D02*
X25162258Y-23772500D01*
X24687742Y-22727500D02*
X25162258Y-22727500D01*
%TO.C,R5*%
X24877500Y-20012742D02*
X24877500Y-20487258D01*
X25922500Y-20012742D02*
X25922500Y-20487258D01*
%TO.C,R6*%
X33892258Y-25522500D02*
X33417742Y-25522500D01*
X33892258Y-24477500D02*
X33417742Y-24477500D01*
%TO.C,R7*%
X24687742Y-24477500D02*
X25162258Y-24477500D01*
X24687742Y-25522500D02*
X25162258Y-25522500D01*
%TO.C,C47*%
X15609420Y-40740000D02*
X15890580Y-40740000D01*
X15609420Y-41760000D02*
X15890580Y-41760000D01*
%TO.C,R2*%
X14822500Y-7087742D02*
X14822500Y-7562258D01*
X13777500Y-7087742D02*
X13777500Y-7562258D01*
%TO.C,R8*%
X27672500Y-20012742D02*
X27672500Y-20487258D01*
X26627500Y-20012742D02*
X26627500Y-20487258D01*
%TO.C,R21*%
X19622500Y-7562258D02*
X19622500Y-7087742D01*
X18577500Y-7562258D02*
X18577500Y-7087742D01*
%TO.C,C1*%
X41340580Y-22710000D02*
X41059420Y-22710000D01*
X41340580Y-21690000D02*
X41059420Y-21690000D01*
%TO.C,C24*%
X55890000Y-18015580D02*
X55890000Y-17734420D01*
X56910000Y-18015580D02*
X56910000Y-17734420D01*
%TO.C,J6*%
X940000Y-16835000D02*
X390000Y-16835000D01*
X6060000Y-16835000D02*
X6060000Y-14985000D01*
X4260000Y-16835000D02*
X6060000Y-16835000D01*
X4260000Y-10765000D02*
X6060000Y-10765000D01*
X6060000Y-10765000D02*
X6060000Y-12615000D01*
X390000Y-16835000D02*
X390000Y-10765000D01*
X6060000Y-14985000D02*
X6800000Y-14985000D01*
X390000Y-10765000D02*
X940000Y-10765000D01*
%TO.C,R1*%
X15377500Y-7562258D02*
X15377500Y-7087742D01*
X16422500Y-7562258D02*
X16422500Y-7087742D01*
%TO.C,C26*%
X40560000Y-42715580D02*
X40560000Y-42434420D01*
X39540000Y-42715580D02*
X39540000Y-42434420D01*
%TO.C,C27*%
X20059420Y-30690000D02*
X20340580Y-30690000D01*
X20059420Y-31710000D02*
X20340580Y-31710000D01*
%TO.C,C28*%
X20084420Y-27090000D02*
X20365580Y-27090000D01*
X20084420Y-28110000D02*
X20365580Y-28110000D01*
%TO.C,C20*%
X44384420Y-19990000D02*
X44665580Y-19990000D01*
X44384420Y-21010000D02*
X44665580Y-21010000D01*
%TO.C,C17*%
X44859420Y-31660000D02*
X45140580Y-31660000D01*
X44859420Y-30640000D02*
X45140580Y-30640000D01*
%TO.C,L2*%
X24100000Y-33350000D02*
X25700000Y-33350000D01*
X24100000Y-30150000D02*
X25700000Y-30150000D01*
%TO.C,C37*%
X62965000Y-26765580D02*
X62965000Y-26484420D01*
X63985000Y-26765580D02*
X63985000Y-26484420D01*
%TO.C,J2*%
X362500Y-39900000D02*
X612500Y-39900000D01*
X362500Y-32100000D02*
X612500Y-32100000D01*
X5312500Y-34300000D02*
X5312500Y-34750000D01*
X5312500Y-34300000D02*
X4862500Y-34300000D01*
X2912500Y-32100000D02*
X4762500Y-32100000D01*
X4762500Y-32100000D02*
X4762500Y-32550000D01*
X2912500Y-39900000D02*
X4762500Y-39900000D01*
X4762500Y-39900000D02*
X4762500Y-39450000D01*
%TO.C,C51*%
X15990000Y-24109420D02*
X15990000Y-24390580D01*
X17010000Y-24109420D02*
X17010000Y-24390580D01*
%TO.C,C5*%
X24734420Y-29010000D02*
X25015580Y-29010000D01*
X24734420Y-27990000D02*
X25015580Y-27990000D01*
%TO.C,R30*%
X11187742Y-15977500D02*
X11662258Y-15977500D01*
X11187742Y-17022500D02*
X11662258Y-17022500D01*
%TO.C,C41*%
X3740000Y-24634420D02*
X3740000Y-24915580D01*
X4760000Y-24634420D02*
X4760000Y-24915580D01*
%TO.C,L3*%
X35250000Y-19350000D02*
X35250000Y-20950000D01*
X32050000Y-19350000D02*
X32050000Y-20950000D01*
%TO.C,D3*%
X21135000Y-2602500D02*
X19665000Y-2602500D01*
X19665000Y-2602500D02*
X19665000Y-4887500D01*
X21135000Y-4887500D02*
X21135000Y-2602500D01*
%TO.C,C38*%
X61390000Y-26765580D02*
X61390000Y-26484420D01*
X62410000Y-26765580D02*
X62410000Y-26484420D01*
%TO.C,R19*%
X40962742Y-23277500D02*
X41437258Y-23277500D01*
X40962742Y-24322500D02*
X41437258Y-24322500D01*
%TO.C,C22*%
X62859420Y-31390000D02*
X63140580Y-31390000D01*
X62859420Y-32410000D02*
X63140580Y-32410000D01*
%TO.C,C23*%
X66034420Y-32410000D02*
X66315580Y-32410000D01*
X66034420Y-31390000D02*
X66315580Y-31390000D01*
%TO.C,C33*%
X49965000Y-35488748D02*
X49965000Y-36011252D01*
X51435000Y-35488748D02*
X51435000Y-36011252D01*
%TD*%
M02*
