M48
; DRILL file {KiCad (5.99.0-8778-g8571687f51)} date Wed Feb  3 12:08:03 2021
; FORMAT={-:-/ absolute / inch / decimal}
; #@! TF.CreationDate,2021-02-03T12:08:03+08:00
; #@! TF.GenerationSoftware,Kicad,Pcbnew,(5.99.0-8778-g8571687f51)
; #@! TF.FileFunction,Plated,1,2,PTH
FMAT,2
INCH
T1C0.0118
T2C0.0157
T3C0.0197
T4C0.0236
T5C0.0276
T6C0.0315
T7C0.0335
T8C0.0394
T9C0.0394
T10C0.0591
T11C0.1260
%
G90
G05
T1
X0.0295Y-0.2657
X0.0295Y-0.4724
X0.0295Y-0.6988
X0.0295Y-1.2402
X0.0886Y-1.2402
X0.1299Y-1.3661
X0.1575Y-1.0433
X0.1575Y-1.122
X0.1575Y-1.2008
X0.1969Y-0.9843
X0.2008Y-1.2244
X0.2008Y-1.2598
X0.2165Y-0.8858
X0.2559Y-1.2244
X0.2559Y-1.2598
X0.2559Y-1.4567
X0.2953Y-0.0394
X0.2953Y-1.939
X0.3228Y-0.9764
X0.3248Y-0.7382
X0.3317Y-1.6713
X0.3504Y-0.9843
X0.3543Y-0.7579
X0.3564Y-0.8722
X0.3661Y-0.8346
X0.3898Y-0.5236
X0.3937Y-0.0394
X0.3976Y-0.2598
X0.4262Y-1.8386
X0.4449Y-1.7402
X0.4488Y-0.9488
X0.4498Y-1.2539
X0.4528Y-0.7677
X0.4528Y-0.8465
X0.4646Y-0.5709
X0.4843Y-1.7402
X0.4921Y-0.0394
X0.498Y-0.6004
X0.5118Y-0.9449
X0.5197Y-1.5984
X0.5276Y-0.2362
X0.5315Y-0.7677
X0.5315Y-0.8465
X0.5394Y-1.4646
X0.5411Y-0.573
X0.5413Y-0.6673
X0.5472Y-0.622
X0.5551Y-1.2362
X0.5551Y-1.2677
X0.563Y-0.2323
X0.5846Y-0.5236
X0.5866Y-0.0394
X0.6339Y-1.4646
X0.6614Y-0.378
X0.6673Y-0.7795
X0.6988Y-0.0709
X0.6988Y-1.25
X0.7087Y-1.939
X0.7264Y-0.0846
X0.7795Y-0.626
X0.8031Y-0.0906
X0.8189Y-0.6299
X0.8504Y-0.0827
X0.8583Y-0.5712
X0.8661Y-1.5256
X0.8957Y-1.3609
X0.9055Y-1.5256
X0.9094Y-0.6378
X0.9252Y-0.0945
X0.9414Y-0.7682
X0.9419Y-0.6693
X0.9646Y-0.8681
X0.9764Y-0.6969
X1.063Y-1.939
X1.0945Y-1.185
X1.1516Y-1.4862
X1.1516Y-1.5256
X1.1831Y-0.9193
X1.1909Y-1.4862
X1.1909Y-1.5256
X1.2106Y-0.9193
X1.2402Y-1.185
X1.3189Y-1.5925
X1.3209Y-0.4055
X1.3583Y-1.939
X1.4094Y-1.1713
X1.437Y-1.8209
X1.437Y-1.8602
X1.437Y-1.8996
X1.4843Y-0.4016
X1.4862Y-1.8602
X1.4862Y-1.8996
X1.4921Y-0.5315
X1.5146Y-0.4921
X1.5182Y-0.5519
X1.5335Y-1.8307
X1.5394Y-0.4724
X1.5413Y-1.6437
X1.5453Y-0.9449
X1.5453Y-0.9744
X1.5453Y-1.2008
X1.5453Y-1.2402
X1.5669Y-0.4488
X1.6063Y-1.6732
X1.624Y-0.9823
X1.624Y-1.0138
X1.6506Y-1.4882
X1.6634Y-1.939
X1.6909Y-1.6693
X1.6929Y-1.1713
X1.6949Y-0.9055
X1.7087Y-1.4823
X1.7222Y-1.6693
X1.7224Y-1.5886
X1.7224Y-1.7008
X1.7372Y-1.3406
X1.7441Y-0.9961
X1.7515Y-1.7008
X1.752Y-1.7303
X1.7559Y-1.8474
X1.7645Y-0.976
X1.7806Y-1.7303
X1.7815Y-1.3386
X1.8209Y-1.3386
X1.8543Y-0.9291
X1.8543Y-0.9626
X1.8713Y-1.1076
X1.8714Y-1.079
X1.8858Y-0.9799
X1.892Y-1.0079
X1.8976Y-0.8976
X1.9112Y-0.7951
X1.935Y-0.811
X1.9573Y-0.7908
X1.9626Y-1.622
X1.9626Y-1.75
X1.9803Y-0.811
X1.9823Y-1.5965
X1.9823Y-1.7264
X2.002Y-1.6201
X2.002Y-1.75
X2.0039Y-0.7933
X2.0079Y-1.3362
X2.0079Y-1.8504
X2.0217Y-1.5965
X2.0217Y-1.7264
X2.0276Y-0.811
X2.0276Y-1.939
X2.0413Y-1.6201
X2.0413Y-1.75
X2.0497Y-0.7888
X2.061Y-1.5945
X2.061Y-1.7264
X2.0712Y-0.8113
X2.0866Y-1.063
X2.0866Y-1.1417
X2.095Y-0.7879
X2.1181Y-0.811
X2.1319Y-1.5295
X2.1496Y-0.6154
X2.1496Y-1.8346
X2.1516Y-1.5039
X2.1654Y-1.063
X2.1654Y-1.1417
X2.1713Y-0.7894
X2.1791Y-1.7421
X2.2126Y-0.7874
X2.2539Y-1.3642
X2.2736Y-1.3878
X2.2933Y-1.3642
X2.2972Y-1.5039
X2.3011Y-1.5688
X2.313Y-1.3858
X2.315Y-1.3169
X2.3189Y-1.689
X2.3228Y-1.4823
X2.3287Y-0.9094
X2.3346Y-1.3642
X2.3425Y-1.8209
X2.3425Y-1.8602
X2.3425Y-1.8996
X2.3563Y-1.3858
X2.3661Y-0.9114
X2.3819Y-1.8209
X2.3819Y-1.8602
X2.3819Y-1.8996
X2.3893Y-1.0547
X2.3985Y-1.0127
X2.4026Y-0.9813
X2.4114Y-1.939
X2.4528Y-1.689
X2.4843Y-0.4665
X2.4882Y-0.5591
X2.4905Y-0.5014
X2.5039Y-0.689
X2.5039Y-0.7913
X2.5039Y-0.8937
X2.5472Y-1.5039
X2.5472Y-1.5433
X2.563Y-1.6378
X2.5945Y-1.5039
X2.5984Y-1.3661
X2.6201Y-1.3386
X2.6398Y-1.3661
X2.7264Y-0.3642
X2.7264Y-0.748
X2.7264Y-1.1614
X2.7264Y-1.5157
T2
X0.0433Y-0.8583
X0.3701Y-0.2992
X0.3819Y-0.5984
X0.3937Y-0.9134
X0.4783Y-1.0492
X0.5728Y-1.0512
X0.6024Y-0.7106
X0.6142Y-1.0236
X0.6319Y-0.9272
X0.752Y-0.3209
X0.7953Y-0.9272
X0.8465Y-0.9272
X0.8465Y-1.2874
X0.8465Y-1.3228
X0.8819Y-1.2874
X0.8819Y-1.3228
X0.937Y-1.3701
X0.937Y-1.4094
X0.9764Y-1.3701
X0.9764Y-1.4094
X0.9921Y-0.3602
X1.0925Y-0.3051
X1.0925Y-0.3406
X1.1299Y-0.3051
X1.1299Y-0.3406
X1.1516Y-1.1516
X1.1516Y-1.187
X1.1929Y-1.1516
X1.1929Y-1.187
X1.2441Y-0.7047
X1.2461Y-0.9154
X1.3031Y-0.6673
X1.4114Y-0.7047
X1.4567Y-0.8583
X1.4573Y-0.8943
X1.4646Y-1.3091
X1.4646Y-1.3465
X1.4665Y-0.7047
X1.4921Y-0.8583
X1.4921Y-0.8937
X1.5039Y-1.3091
X1.5039Y-1.3465
X1.5236Y-0.7047
X1.6106Y-1.1461
X2.0926Y-1.8485
X2.3189Y-1.6437
X2.4168Y-1.154
X2.4488Y-1.5039
X2.4488Y-1.5433
X2.4567Y-0.126
X2.4567Y-0.2323
X2.4882Y-1.5039
X2.4882Y-1.5433
X2.5512Y-1.0157
X2.5512Y-1.0551
X2.5906Y-1.0157
X2.5906Y-1.0551
T3
X0.0472Y-0.1417
X0.0472Y-1.8268
X0.0749Y-0.0749
X0.0749Y-0.2085
X0.0749Y-1.76
X0.0749Y-1.8936
X0.1417Y-0.0472
X0.1417Y-0.2362
X0.1417Y-1.7323
X0.1417Y-1.9213
X0.2085Y-0.0749
X0.2085Y-0.2085
X0.2085Y-1.76
X0.2085Y-1.8936
X0.2362Y-0.1417
X0.2362Y-1.8268
X2.5197Y-0.1417
X2.5197Y-1.8268
X2.5474Y-0.0749
X2.5474Y-0.2085
X2.5474Y-1.76
X2.5474Y-1.8936
X2.6142Y-0.0472
X2.6142Y-0.2362
X2.6142Y-1.7323
X2.6142Y-1.9213
X2.681Y-0.0749
X2.681Y-0.2085
X2.681Y-1.76
X2.681Y-1.8936
X2.7087Y-0.1417
X2.7087Y-1.8268
T5
X1.1516Y-1.0295
T6
X0.3827Y-1.1496
X0.4921Y-0.8071
X0.5748Y-1.1496
T7
X0.1757Y-1.3189
X0.1757Y-1.5157
X0.3858Y-1.7953
X0.5827Y-1.7953
T9
X0.7598Y-1.7106
X0.7598Y-1.8106
X0.7598Y-1.9106
X1.0016Y-0.0787
X1.0016Y-0.1787
X1.1016Y-0.0787
X1.1016Y-0.1787
X1.2016Y-0.0787
X1.2016Y-0.1787
X1.3016Y-0.0787
X1.3016Y-0.1787
X1.4016Y-0.0787
X1.4016Y-0.1787
X1.5016Y-0.0787
X1.5016Y-0.1787
X1.6016Y-0.0787
X1.6016Y-0.1787
X1.7016Y-0.0787
X1.7016Y-0.1787
X1.8016Y-0.0787
X1.8016Y-0.1787
X1.9016Y-0.0787
X1.9016Y-0.1787
X2.0016Y-0.0787
X2.0016Y-0.1787
X2.1016Y-0.0787
X2.1016Y-0.1787
X2.2016Y-0.0787
X2.2016Y-0.1787
X2.3016Y-0.0787
X2.3016Y-0.1787
X2.4016Y-0.0787
X2.4016Y-0.1787
T10
X2.126Y-1.1024
T11
X0.1417Y-0.1417
X0.1417Y-1.8268
X2.6142Y-0.1417
X2.6142Y-1.8268
T4
G00X0.0556Y-1.2795
M15
G01X0.0832Y-1.2795
M16
G05
G00X0.0832Y-1.5551
M15
G01X0.0556Y-1.5551
M16
G05
G00X0.3465Y-1.9154
M15
G01X0.3465Y-1.8878
M16
G05
G00X0.622Y-1.8878
M15
G01X0.622Y-1.9154
M16
G05
T8
G00X0.8661Y-1.6201
M15
G01X0.8661Y-1.6476
M16
G05
G00X0.9646Y-1.6201
M15
G01X0.9646Y-1.6476
M16
G05
G00X1.0768Y-1.8307
M15
G01X1.0492Y-1.8307
M16
G05
G00X1.1614Y-1.6201
M15
G01X1.1614Y-1.6476
M16
G05
G00X1.2598Y-1.6201
M15
G01X1.2598Y-1.6476
M16
G05
T0
M30
