%TF.GenerationSoftware,KiCad,Pcbnew,(5.99.0-8778-g8571687f51)*%
%TF.CreationDate,2021-02-03T12:08:05+08:00*%
%TF.ProjectId,lightboard-zero,6c696768-7462-46f6-9172-642d7a65726f,rev?*%
%TF.SameCoordinates,Original*%
%TF.FileFunction,Soldermask,Bot*%
%TF.FilePolarity,Negative*%
%FSLAX46Y46*%
G04 Gerber Fmt 4.6, Leading zero omitted, Abs format (unit mm)*
G04 Created by KiCad (PCBNEW (5.99.0-8778-g8571687f51)) date 2021-02-03 12:08:05*
%MOMM*%
%LPD*%
G01*
G04 APERTURE LIST*
G04 Aperture macros list*
%AMFreePoly0*
4,1,22,0.550000,-0.750000,0.000000,-0.750000,0.000000,-0.745033,-0.079941,-0.743568,-0.215256,-0.701293,-0.333266,-0.622738,-0.424486,-0.514219,-0.481581,-0.384460,-0.499164,-0.250000,-0.500000,-0.250000,-0.500000,0.250000,-0.499164,0.250000,-0.499963,0.256109,-0.478152,0.396186,-0.417904,0.524511,-0.324060,0.630769,-0.204165,0.706417,-0.067858,0.745374,0.000000,0.744959,0.000000,0.750000,
0.550000,0.750000,0.550000,-0.750000,0.550000,-0.750000,$1*%
%AMFreePoly1*
4,1,20,0.000000,0.744959,0.073905,0.744508,0.209726,0.703889,0.328688,0.626782,0.421226,0.519385,0.479903,0.390333,0.500000,0.250000,0.500000,-0.250000,0.499851,-0.262216,0.476331,-0.402017,0.414519,-0.529596,0.319384,-0.634700,0.198574,-0.708877,0.061801,-0.746166,0.000000,-0.745033,0.000000,-0.750000,-0.550000,-0.750000,-0.550000,0.750000,0.000000,0.750000,0.000000,0.744959,
0.000000,0.744959,$1*%
G04 Aperture macros list end*
%ADD10C,0.100000*%
%ADD11C,0.800000*%
%ADD12C,6.400000*%
%ADD13C,1.500000*%
%ADD14O,1.200000X1.900000*%
%ADD15C,1.450000*%
%ADD16C,1.100023*%
%ADD17O,2.199996X1.399997*%
%ADD18O,1.399997X2.199996*%
%ADD19R,1.700000X1.700000*%
%ADD20O,1.700000X1.700000*%
%ADD21O,1.900000X1.200000*%
%ADD22FreePoly0,180.000000*%
%ADD23R,1.000000X1.500000*%
%ADD24FreePoly1,180.000000*%
%ADD25C,1.200000*%
%ADD26R,1.600000X0.700000*%
%ADD27R,2.200000X1.200000*%
%ADD28R,1.500000X1.200000*%
%ADD29R,1.600000X1.500000*%
G04 APERTURE END LIST*
D10*
X68300000Y-15000000D02*
X63700000Y-15000000D01*
X63700000Y-15000000D02*
X63700000Y-7500000D01*
X63700000Y-7500000D02*
X68300000Y-7500000D01*
X68300000Y-7500000D02*
X68300000Y-15000000D01*
G36*
X68300000Y-15000000D02*
G01*
X63700000Y-15000000D01*
X63700000Y-7500000D01*
X68300000Y-7500000D01*
X68300000Y-15000000D01*
G37*
X68300000Y-15000000D02*
X63700000Y-15000000D01*
X63700000Y-7500000D01*
X68300000Y-7500000D01*
X68300000Y-15000000D01*
X13500000Y-21500000D02*
X11500000Y-21500000D01*
X11500000Y-21500000D02*
X11500000Y-19500000D01*
X11500000Y-19500000D02*
X13500000Y-19500000D01*
X13500000Y-19500000D02*
X13500000Y-21500000D01*
G36*
X13500000Y-21500000D02*
G01*
X11500000Y-21500000D01*
X11500000Y-19500000D01*
X13500000Y-19500000D01*
X13500000Y-21500000D01*
G37*
X13500000Y-21500000D02*
X11500000Y-21500000D01*
X11500000Y-19500000D01*
X13500000Y-19500000D01*
X13500000Y-21500000D01*
X55400000Y-29400000D02*
X52600000Y-29400000D01*
X52600000Y-29400000D02*
X52600000Y-26600000D01*
X52600000Y-26600000D02*
X55400000Y-26600000D01*
X55400000Y-26600000D02*
X55400000Y-29400000D01*
G36*
X55400000Y-29400000D02*
G01*
X52600000Y-29400000D01*
X52600000Y-26600000D01*
X55400000Y-26600000D01*
X55400000Y-29400000D01*
G37*
X55400000Y-29400000D02*
X52600000Y-29400000D01*
X52600000Y-26600000D01*
X55400000Y-26600000D01*
X55400000Y-29400000D01*
D11*
%TO.C,H3*%
X5297056Y-1902944D03*
D12*
X3600000Y-3600000D03*
D11*
X1902944Y-5297056D03*
X1902944Y-1902944D03*
X3600000Y-1200000D03*
X3600000Y-6000000D03*
X5297056Y-5297056D03*
X6000000Y-3600000D03*
X1200000Y-3600000D03*
%TD*%
D13*
%TO.C,Y2*%
X14600000Y-29200000D03*
X9720000Y-29200000D03*
%TD*%
D14*
%TO.C,J1*%
X15800000Y-48300000D03*
X8800000Y-48300000D03*
D15*
X14800000Y-45600000D03*
X9800000Y-45600000D03*
%TD*%
D16*
%TO.C,CN1*%
X31999990Y-48999863D03*
X22000010Y-48999863D03*
X22000010Y-46499995D03*
X31999990Y-46499995D03*
X27000000Y-41500005D03*
D17*
X27000000Y-46499995D03*
D18*
X22000010Y-41500005D03*
X24499878Y-41500005D03*
X29499868Y-41500005D03*
X31999990Y-41500005D03*
%TD*%
D19*
%TO.C,J5*%
X19300000Y-43450000D03*
D20*
X19300000Y-45990000D03*
X19300000Y-48530000D03*
%TD*%
D19*
%TO.C,J3*%
X25440000Y-4540000D03*
D20*
X25440000Y-2000000D03*
X27980000Y-4540000D03*
X27980000Y-2000000D03*
X30520000Y-4540000D03*
X30520000Y-2000000D03*
X33060000Y-4540000D03*
X33060000Y-2000000D03*
X35600000Y-4540000D03*
X35600000Y-2000000D03*
X38140000Y-4540000D03*
X38140000Y-2000000D03*
X40680000Y-4540000D03*
X40680000Y-2000000D03*
X43220000Y-4540000D03*
X43220000Y-2000000D03*
X45760000Y-4540000D03*
X45760000Y-2000000D03*
X48300000Y-4540000D03*
X48300000Y-2000000D03*
X50840000Y-4540000D03*
X50840000Y-2000000D03*
X53380000Y-4540000D03*
X53380000Y-2000000D03*
X55920000Y-4540000D03*
X55920000Y-2000000D03*
X58460000Y-4540000D03*
X58460000Y-2000000D03*
X61000000Y-4540000D03*
X61000000Y-2000000D03*
%TD*%
D11*
%TO.C,H1*%
X5297056Y-44702944D03*
X1902944Y-48097056D03*
X5297056Y-48097056D03*
X1200000Y-46400000D03*
D12*
X3600000Y-46400000D03*
D11*
X3600000Y-48800000D03*
X3600000Y-44000000D03*
X6000000Y-46400000D03*
X1902944Y-44702944D03*
%TD*%
%TO.C,H2*%
X64000000Y-46400000D03*
X66400000Y-48800000D03*
X68800000Y-46400000D03*
X64702944Y-44702944D03*
D12*
X66400000Y-46400000D03*
D11*
X68097056Y-44702944D03*
X66400000Y-44000000D03*
X68097056Y-48097056D03*
X64702944Y-48097056D03*
%TD*%
D21*
%TO.C,J2*%
X1762500Y-32500000D03*
D15*
X4462500Y-33500000D03*
X4462500Y-38500000D03*
D21*
X1762500Y-39500000D03*
%TD*%
D11*
%TO.C,H4*%
X66400000Y-1200000D03*
X68097056Y-1902944D03*
X64000000Y-3600000D03*
X68800000Y-3600000D03*
X66400000Y-6000000D03*
X64702944Y-5297056D03*
D12*
X66400000Y-3600000D03*
D11*
X68097056Y-5297056D03*
X64702944Y-1902944D03*
%TD*%
D22*
%TO.C,JP1*%
X15600000Y-7400000D03*
D23*
X14300000Y-7400000D03*
D24*
X13000000Y-7400000D03*
%TD*%
D25*
%TO.C,U3*%
X4300000Y-21950000D03*
X4300000Y-13950000D03*
D26*
X15300000Y-14750000D03*
X15300000Y-15850000D03*
X15300000Y-16950000D03*
X15300000Y-18050000D03*
X15300000Y-19150000D03*
X15300000Y-20250000D03*
X15300000Y-21350000D03*
X15300000Y-22450000D03*
X15300000Y-23500000D03*
D27*
X4700000Y-24750000D03*
D28*
X14600000Y-24750000D03*
D29*
X14300000Y-10150000D03*
D27*
X4700000Y-9250000D03*
%TD*%
D13*
%TO.C,TP11*%
X6800000Y-41100000D03*
%TD*%
%TO.C,TP12*%
X9400000Y-41050000D03*
%TD*%
%TO.C,TP13*%
X12000000Y-41000000D03*
%TD*%
%TO.C,TP14*%
X12000000Y-38400000D03*
%TD*%
%TO.C,TP10*%
X63600000Y-17500000D03*
%TD*%
%TO.C,TP5*%
X66300000Y-22700000D03*
%TD*%
%TO.C,TP6*%
X66300000Y-20100000D03*
%TD*%
%TO.C,TP7*%
X66300000Y-17500000D03*
%TD*%
%TO.C,TP8*%
X63600000Y-20100000D03*
%TD*%
%TO.C,TP9*%
X63600000Y-22700000D03*
%TD*%
M02*
